<svg width="22" height="22" viewBox="0 0 22 22" fill="none" xmlns="http://www.w3.org/2000/svg">
<path d="M18.5656 18.8145V10.6652C18.5656 7.37269 16.4816 4.56226 13.5505 3.50178L15.2242 0H6.71706L8.468 3.47301C5.49282 4.5097 3.33483 7.34123 3.33483 10.6652V18.8145H2.33936V22H19.6606V18.8145H18.5656ZM12.9437 15.411C12.6205 15.6978 12.2208 15.8971 11.7561 16.0029L11.7638 17.0596L10.2424 17.0634L10.2356 16.0063C9.80522 15.9025 9.49075 15.6953 9.11755 15.3864C8.60916 14.9483 8.34436 14.4364 8.32734 13.8622L8.32704 13.8506L8.36507 13.3656L9.82921 13.3605L9.84066 13.6692C9.84633 14.0338 9.95126 14.2974 10.1614 14.4796C10.3742 14.6705 10.5577 14.7664 10.9773 14.7664C11.3928 14.763 11.7147 14.6632 11.9325 14.4697C12.1401 14.2868 12.2407 14.03 12.2407 13.6846C12.2407 13.4131 12.1494 13.2145 11.9533 13.0595C11.7236 12.8795 11.3074 12.7177 10.7168 12.5792C9.98908 12.4099 9.43032 12.1464 9.05613 11.796C8.65455 11.4149 8.44988 10.9359 8.4467 10.3714C8.44251 9.7246 8.69477 9.18644 9.19629 8.77203C9.48289 8.53381 9.81836 8.36468 10.195 8.26822L10.188 7.34233L11.709 7.33177L11.7128 8.22511C12.1313 8.31172 12.4093 8.48414 12.7246 8.74097C13.2065 9.14404 13.4682 9.69453 13.5045 10.3797L13.5163 10.7093L12.0458 10.7166L12.0025 10.4451C11.9559 10.0979 11.847 9.84216 11.6781 9.69394C11.4993 9.53715 11.3743 9.45701 11.0628 9.45701H11.0422C10.6792 9.45701 10.3904 9.55547 10.2045 9.71395C10.0242 9.86476 9.94558 10.0716 9.94787 10.3532C9.94787 10.5849 10.0249 10.7601 10.1834 10.8904C10.3158 11.0019 10.6008 11.1625 11.2179 11.3041C12.0328 11.4956 12.657 11.7821 13.074 12.1558C13.5156 12.5554 13.7391 13.0609 13.7391 13.659C13.7434 14.3665 13.4757 14.9563 12.9437 15.411Z" fill="white"/>
</svg>
