<svg width="22" height="22" viewBox="0 0 22 22" fill="none" xmlns="http://www.w3.org/2000/svg">
<path d="M11.4168 19.1766V22C14.0341 21.9024 16.5299 20.8713 18.4531 19.0935L16.4567 17.097C15.0651 18.348 13.2856 19.0822 11.4168 19.1766Z" fill="white"/>
<path d="M22 11.4174H19.1768C19.0814 13.3102 18.3297 15.1108 17.051 16.5097L19.0462 18.5049C20.8526 16.5755 21.9015 14.0587 22 11.4174Z" fill="white"/>
<path d="M17.0744 5.51626C18.3392 6.91154 19.082 8.70145 19.1768 10.5823H22C21.902 7.95316 20.862 5.44675 19.0698 3.52047L17.0744 5.51626Z" fill="white"/>
<path d="M3.52002 19.0696C5.4463 20.862 7.95271 21.902 10.582 22V19.1768C8.701 19.082 6.91089 18.3388 5.51561 17.074L3.52002 19.0696Z" fill="white"/>
<path d="M2.92999 18.4792L4.92578 16.4837C3.66096 15.0884 2.91796 13.2983 2.82318 11.4172H1.90735e-06C0.0980487 14.0466 1.13783 16.553 2.92999 18.4792Z" fill="white"/>
<path d="M3.64679 10.9998C3.64679 15.054 6.94532 18.3525 10.9995 18.3525C15.0536 18.3525 18.3516 15.054 18.3516 10.9998C18.3516 6.94568 15.0534 3.64776 10.9995 3.64776C6.94552 3.64776 3.64679 6.94588 3.64679 10.9998ZM13.1826 6.97136C13.3233 6.89737 13.4937 6.9098 13.6221 7.00316C13.7507 7.09652 13.8151 7.2549 13.7882 7.41145L13.3714 9.84265L15.1376 11.5647C15.2514 11.6756 15.2923 11.8415 15.2432 11.9925C15.1941 12.1438 15.0634 12.2539 14.9063 12.2767L12.4653 12.6316L11.3735 14.8434C11.3032 14.9859 11.1581 15.0762 10.9993 15.0762C10.8403 15.0762 10.6951 14.9859 10.6248 14.8434L9.53326 12.6316L7.09208 12.2767C6.93492 12.2539 6.80426 12.1438 6.75514 11.9925C6.70601 11.8415 6.74698 11.6756 6.86073 11.5647L8.6272 9.84265L8.21014 7.41145C8.18344 7.2549 8.24765 7.09652 8.37627 7.00316C8.50489 6.9098 8.6753 6.89737 8.81595 6.97136L10.9995 8.11939L13.1826 6.97136Z" fill="white"/>
<path d="M-0.000196457 10.5823H2.82298C2.91715 8.71348 3.65138 6.93396 4.90234 5.54215L2.90635 3.54595C1.12846 5.46917 0.097239 7.96498 -0.000196457 10.5823Z" fill="white"/>
<path d="M5.48972 4.94922C6.88867 3.67033 8.68918 2.91877 10.582 2.82338V0.000202179C7.94068 0.0986567 5.42388 1.14761 3.49454 2.95404L5.48972 4.94922Z" fill="white"/>
<path d="M11.4187 2.82338C13.2995 2.91817 15.0894 3.66096 16.4847 4.92578L18.4805 2.92999C16.5542 1.13783 14.0478 0.0980468 11.4187 0V2.82338Z" fill="white"/>
<path d="M9.36711 10.2876L8.04929 11.572L9.87039 11.8367C10.0066 11.8565 10.124 11.9417 10.1849 12.065L10.9993 13.7153L11.8136 12.065C11.8743 11.9417 11.992 11.8565 12.1279 11.8367L13.9492 11.572L12.6314 10.2876C12.5329 10.1916 12.4881 10.0534 12.5113 9.91801L12.8224 8.10424L11.1935 8.96057C11.072 9.02458 10.9267 9.02458 10.805 8.96057L9.17611 8.10424L9.48717 9.91801C9.51041 10.0536 9.46557 10.1916 9.36711 10.2876Z" fill="white"/>
</svg>
