<svg width="22" height="22" viewBox="0 0 22 22" fill="none" xmlns="http://www.w3.org/2000/svg">
<path d="M10.2812 11.6633C12.4635 10.7553 13.2156 9.18204 12.9898 8.01561C12.844 7.29492 12.3588 6.84734 11.7231 6.84734C11.3476 6.84734 10.9259 7.00926 10.5037 7.31576C10.3699 7.41294 10.1886 7.41165 10.056 7.3128C9.63404 6.99801 9.211 6.83167 8.83258 6.83167C8.19468 6.83167 7.71262 7.28422 7.57431 8.01266C7.34785 9.19402 8.09897 10.7737 10.2812 11.6633Z" fill="white"/>
<path d="M2.6998 18.0234C2.76453 18.7187 3.30118 19.2767 3.99329 19.3686C3.32239 18.9594 2.91243 18.2311 2.91022 17.4455V1.48619C2.91132 1.12105 3.00169 0.761993 3.17319 0.439819L2.5377 0.500676C1.71318 0.579237 1.10848 1.31155 1.18704 2.13607L2.6998 18.0234Z" fill="white"/>
<path d="M12.1162 19.97H20.8029V22H12.1162V19.97Z" fill="white"/>
<path d="M15.9838 16.3622L15.5073 16.4317C14.99 16.5088 14.4648 16.3576 14.0677 16.0172C13.6707 15.6768 13.4411 15.1807 13.4383 14.6577V13.4984C13.4383 13.0682 13.0896 12.7195 12.6593 12.7195C12.2291 12.7195 11.8804 13.0682 11.8804 13.4984V18.0251C11.8804 18.414 12.0312 18.7878 12.3014 19.0676C12.3539 19.1202 12.4098 19.1692 12.4688 19.2146H20.3262C20.5566 18.8942 20.6818 18.5103 20.6847 18.1158C20.6862 15.9386 20.6897 15.1408 20.6906 14.7099C20.6917 14.3145 20.6947 14.2291 20.6932 13.669C20.6941 13.1171 20.4927 12.5837 20.1269 12.1703L17.404 9.0946V14.7281C17.4025 15.5501 16.7974 16.2462 15.9838 16.3622Z" fill="white"/>
<path d="M3.66553 1.4862V17.4455C3.66553 18.2726 4.34749 18.9313 5.1746 18.9313H11.3283C11.1969 18.6471 11.1275 18.3382 11.1248 18.0251V13.4985C11.1248 12.6511 11.8117 11.9641 12.6591 11.9641C13.5065 11.9641 14.1934 12.6511 14.1934 13.4985V14.6577C14.1966 14.9612 14.3316 15.2484 14.563 15.4446C14.7955 15.6423 15.102 15.7297 15.4037 15.6847L15.8731 15.6154C16.3157 15.5527 16.6454 15.1752 16.6484 14.7281V1.4862C16.6484 0.6591 15.9527 0 15.1256 0H5.1746C4.34749 0 3.66553 0.6591 3.66553 1.4862ZM13.4952 1.1655C14.6757 1.1668 15.6322 2.12336 15.6335 3.3038C15.6335 3.51237 15.4644 3.68148 15.2558 3.68148C15.0473 3.68148 14.8782 3.51237 14.8782 3.3038C14.8772 2.54032 14.2587 1.92179 13.4952 1.92087C13.2867 1.92087 13.1175 1.75176 13.1175 1.54319C13.1175 1.33461 13.2867 1.1655 13.4952 1.1655ZM6.83249 7.87121C7.03922 6.78113 7.82446 6.0763 8.83266 6.0763C9.31011 6.0763 9.7977 6.23619 10.2853 6.55227C10.767 6.2502 11.2597 6.09197 11.7232 6.09197C12.7251 6.09197 13.5131 6.78888 13.7307 7.86752L13.7313 7.87029C14.0188 9.35188 13.1319 11.3236 10.502 12.3892C10.4946 12.3921 10.4872 12.3949 10.4797 12.3975C10.3519 12.4442 10.2117 12.4442 10.0839 12.3975C10.0773 12.3953 10.0706 12.3927 10.0642 12.3903C7.43313 11.3463 6.54536 9.36829 6.83249 7.87121ZM5.42208 15.6277C5.42282 16.3912 6.04153 17.0099 6.80501 17.0108C7.01359 17.0108 7.18269 17.1799 7.18269 17.3885C7.18269 17.5971 7.01359 17.7662 6.80501 17.7662C5.62457 17.7647 4.66801 16.8083 4.66672 15.6279C4.66672 15.4193 4.83583 15.2502 5.0444 15.2502C5.25297 15.2502 5.42208 15.4193 5.42208 15.6279V15.6277Z" fill="white"/>
</svg>
