<svg width="22" height="22" viewBox="0 0 22 22" fill="none" xmlns="http://www.w3.org/2000/svg">
<path d="M12.2891 16.8008C11.9335 16.8008 11.6445 17.0897 11.6445 17.4453C11.6445 17.8009 11.9335 18.0898 12.2891 18.0898C12.6447 18.0898 12.9336 17.8009 12.9336 17.4453C12.9336 17.0897 12.6447 16.8008 12.2891 16.8008Z" fill="white"/>
<path d="M4.56547 9.06641C4.56169 9.06641 4.55855 9.06641 4.55477 9.06641C4.20419 9.06641 3.91591 9.34901 3.91024 9.70088C3.90457 10.0558 4.18906 10.3498 4.54472 10.3555C4.89027 10.3668 5.19367 10.0766 5.1993 9.72099C5.20497 9.36663 4.92048 9.07268 4.56547 9.06641Z" fill="white"/>
<path d="M4.56547 16.8008C4.56169 16.8008 4.55855 16.8008 4.55477 16.8008C4.20419 16.8008 3.91591 17.0834 3.91024 17.4353C3.90457 17.7902 4.18906 18.0842 4.54472 18.0898C4.89027 18.0898 5.19367 17.811 5.1993 17.4554C5.20497 17.101 4.92048 16.8071 4.56547 16.8008Z" fill="white"/>
<path d="M14.8672 5.15625H1.97656C0.910336 5.15625 0 6.06659 0 7.13281V20.0664C0 21.1326 0.910336 22 1.97656 22H14.8672C15.9334 22 16.8438 21.1326 16.8438 20.0664V7.13281C16.8438 6.06659 15.9334 5.15625 14.8672 5.15625ZM4.58554 7.77734H4.58618C5.65181 7.79561 6.5053 8.67681 6.48832 9.74179C6.47066 10.798 5.60583 11.6445 4.55469 11.6445C4.54463 11.6445 4.53393 11.6445 4.52384 11.6445C3.45761 11.6263 2.60408 10.7451 2.62109 9.68009C2.63871 8.61386 3.5218 7.72385 4.58554 7.77734ZM4.55469 19.3789C4.54463 19.3789 4.53393 19.3789 4.52384 19.3789C3.45761 19.3606 2.60408 18.4794 2.62109 17.4145C2.63871 16.3482 3.5218 15.484 4.58554 15.5117H4.58618C5.65181 15.53 6.5053 16.4112 6.48832 17.4762C6.47066 18.5323 5.60583 19.3789 4.55469 19.3789ZM8.42188 15.5117C8.41182 15.5117 8.40112 15.5117 8.39102 15.5117C7.3248 15.4935 6.47127 14.6123 6.48828 13.5473C6.5059 12.4804 7.36884 11.637 8.45273 11.6445H8.45337C9.519 11.6628 10.3725 12.544 10.3555 13.609C10.3379 14.6651 9.47302 15.5117 8.42188 15.5117ZM12.2891 19.3789C11.2228 19.3789 10.3555 18.5115 10.3555 17.4453C10.3555 16.3791 11.2228 15.5117 12.2891 15.5117C13.3553 15.5117 14.2227 16.3791 14.2227 17.4453C14.2227 18.5115 13.3553 19.3789 12.2891 19.3789ZM12.2891 11.6445C12.279 11.6445 12.2683 11.6445 12.2582 11.6445C11.192 11.6263 10.3385 10.7451 10.3555 9.68009C10.3731 8.61386 11.2159 7.72385 12.3199 7.77734H12.3206C13.3862 7.79561 14.2397 8.67681 14.2227 9.74179C14.205 10.798 13.3402 11.6445 12.2891 11.6445Z" fill="white"/>
<path d="M12.2998 9.06641C12.2961 9.06641 12.2929 9.06641 12.2891 9.06641C11.9386 9.06641 11.6503 9.34901 11.6446 9.70088C11.6389 10.0558 11.9234 10.3498 12.2791 10.3555C12.6139 10.3668 12.928 10.0766 12.9337 9.72099C12.9393 9.36663 12.6549 9.07268 12.2998 9.06641Z" fill="white"/>
<path d="M8.43266 12.9336C8.42888 12.9336 8.42574 12.9336 8.42196 12.9336C8.07138 12.9336 7.7831 13.2162 7.77743 13.5681C7.77176 13.923 8.05625 14.217 8.41191 14.2227C8.78139 14.1987 9.06086 13.9432 9.06649 13.5882C9.07217 13.2338 8.78767 12.9399 8.43266 12.9336Z" fill="white"/>
<path d="M18.7881 2.57812C18.7843 2.57812 18.7812 2.57812 18.7774 2.57812C18.4268 2.57812 18.1386 2.86073 18.1329 3.2126C18.1272 3.56761 18.4117 3.86156 18.7674 3.86719C19.1337 3.84643 19.4163 3.58772 19.422 3.23271C19.4276 2.87835 19.1431 2.5844 18.7881 2.57812Z" fill="white"/>
<path d="M9.72172 2.57812C9.71794 2.57812 9.7148 2.57812 9.71102 2.57812C9.36044 2.57812 9.07216 2.86073 9.06649 3.2126C9.06082 3.56761 9.34531 3.86156 9.70097 3.86719C10.0195 3.84643 10.3493 3.58772 10.3556 3.23271C10.3612 2.87835 10.0767 2.5844 9.72172 2.57812Z" fill="white"/>
<path d="M20.0664 0H7.13281C6.06659 0 5.19922 0.867367 5.19922 1.93359V3.86719H7.89448C7.81885 3.65539 7.77356 3.42942 7.77734 3.1918C7.79496 2.12493 8.62894 1.28464 9.74179 1.28906H9.74243C10.8081 1.30732 11.6615 2.18853 11.6446 3.25351C11.641 3.46986 11.594 3.67387 11.525 3.86719H14.8672C16.6441 3.86719 18.1328 5.35593 18.1328 7.13281V10.4742C18.3354 10.402 18.5503 10.3555 18.7773 10.3555C19.8436 10.3555 20.7109 11.2228 20.7109 12.2891C20.7109 13.3553 19.8436 14.2227 18.7773 14.2227C18.5503 14.2227 18.3354 14.1762 18.1328 14.1039V16.8008H20.0664C21.1326 16.8008 22 15.9334 22 14.8672V1.93359C22 0.867367 21.1326 0 20.0664 0ZM18.7773 5.15625C18.7673 5.15625 18.7566 5.15625 18.7465 5.15625C17.6803 5.13799 16.8267 4.25678 16.8438 3.1918C16.8614 2.12493 17.7212 1.28464 18.8082 1.28906H18.8088C19.8745 1.30732 20.728 2.18853 20.711 3.25351C20.6933 4.30968 19.8285 5.15625 18.7773 5.15625Z" fill="white"/>
<path d="M18.7773 11.6445C18.4217 11.6445 18.1328 11.9335 18.1328 12.2891C18.1328 12.6447 18.4217 12.9336 18.7773 12.9336C19.133 12.9336 19.4219 12.6447 19.4219 12.2891C19.4219 11.9335 19.133 11.6445 18.7773 11.6445Z" fill="white"/>
</svg>
