<svg width="22" height="22" viewBox="0 0 22 22" fill="none" xmlns="http://www.w3.org/2000/svg">
<path d="M11 0C4.9351 0 0 4.9351 0 11C0 17.0649 4.9351 22 11 22C17.0649 22 22 17.0649 22 11C22 4.9351 17.0649 0 11 0ZM13.8373 2.39019C16.5495 3.28581 18.6986 5.42903 19.6027 8.13858C19.3188 8.04916 19.0179 8.0009 18.7057 8.0009C18.1181 8.0009 17.5702 8.17264 17.1059 8.46503C16.4287 6.84129 15.1218 5.54258 13.4921 4.8769C13.7916 4.40994 13.9665 3.85639 13.9665 3.26168C13.9665 2.95794 13.921 2.66555 13.8373 2.39019ZM8.09174 19.5871C5.42052 18.68 3.3044 16.5582 2.40439 13.8829C2.66725 13.9579 2.94403 13.9991 3.22932 13.9991C3.83964 13.9991 4.40738 13.8146 4.88173 13.5009C5.54712 15.1244 6.83888 16.4262 8.4568 17.1032C8.1488 17.5732 7.96996 18.1351 7.96996 18.7383C7.96968 19.0335 8.01226 19.3174 8.09174 19.5871ZM4.8813 8.4991C4.40695 8.18542 3.83921 8.0009 3.22889 8.0009C2.9436 8.0009 2.66683 8.04206 2.40396 8.11729C3.30397 5.44181 5.42009 3.31987 8.09132 2.4129C8.01183 2.68258 7.96939 2.96645 7.96939 3.26168C7.96939 3.8649 8.14837 4.42697 8.45637 4.89677C6.83845 5.57381 5.54684 6.87535 4.8813 8.4991ZM11.6401 15.0991H9.7169V13.251H11.6401V15.0991ZM13.3192 10.7999C12.8765 11.1888 12.2847 11.3903 11.5436 11.4045V12.3656H9.80348V10.2167H10.5274C11.0454 10.2167 11.4499 10.1429 11.7381 9.99524C12.0249 9.84763 12.1695 9.58362 12.1695 9.20182C12.1695 8.95627 12.1014 8.76608 11.9637 8.6284C11.8275 8.49214 11.643 8.42401 11.413 8.42401C11.1533 8.42401 10.9503 8.50066 10.8026 8.65537C10.6551 8.8115 10.581 9.00737 10.581 9.2444H8.8423C8.8281 8.81292 8.9205 8.41834 9.11765 8.06208C9.31622 7.70582 9.61584 7.42479 10.0201 7.21898C10.4232 7.01459 10.9086 6.91098 11.4779 6.91098C12.2401 6.91098 12.849 7.10827 13.303 7.50001C13.7557 7.89317 13.9828 8.45666 13.9828 9.19046C13.9835 9.87445 13.7621 10.411 13.3192 10.7999ZM13.8373 19.6098C13.921 19.3346 13.9665 19.0421 13.9665 18.7382C13.9665 18.1436 13.7919 17.5899 13.4921 17.1228C15.1215 16.4574 16.4287 15.1584 17.1059 13.5348C17.5702 13.8274 18.1181 13.9991 18.7057 13.9991C19.0179 13.9991 19.3188 13.9508 19.6027 13.8614C18.6986 16.571 16.5497 18.7142 13.8373 19.6098Z" fill="white"/>
</svg>
