<svg width="241" height="242" viewBox="0 0 241 242" fill="none" xmlns="http://www.w3.org/2000/svg">
<g clip-path="url(#clip0)">
<path d="M218.369 0.641968H53.1661C40.7233 0.641968 30.6384 10.7282 30.6384 23.1894V38.221H23.1292C10.6864 38.221 0.601562 48.3073 0.601562 60.7685V211.085C0.601562 227.687 14.0506 241.148 30.6384 241.148H210.86C227.448 241.148 240.897 227.687 240.897 211.085V23.1894C240.897 10.7282 230.804 0.641968 218.369 0.641968ZM225.878 211.085C225.878 219.367 219.135 226.116 210.86 226.116H30.6384C22.3558 226.116 15.62 219.367 15.62 211.085V60.7685C15.62 56.6198 18.9841 53.2527 23.1292 53.2527H30.6384V203.569C30.6384 207.725 33.9951 211.085 38.1477 211.085C42.3003 211.085 45.6569 207.725 45.6569 203.569V23.1894C45.6569 19.0407 49.021 15.6736 53.1661 15.6736H218.369C222.507 15.6736 225.878 19.0407 225.878 23.1894V211.085Z" fill="#7561EA"/>
<path d="M147.016 98.3851H207.09C209.17 98.3851 210.845 96.7015 210.845 94.6272C210.845 92.5528 209.17 90.8693 207.09 90.8693H147.016C144.951 90.8693 143.262 92.5528 143.262 94.6272C143.262 96.7015 144.951 98.3851 147.016 98.3851Z" fill="#7561EA"/>
<path d="M147.016 75.8377H207.09C209.17 75.8377 210.845 74.1542 210.845 72.0798C210.845 70.0054 209.17 68.3219 207.09 68.3219H147.016C144.951 68.3219 143.262 70.0054 143.262 72.0798C143.262 74.1542 144.951 75.8377 147.016 75.8377Z" fill="#7561EA"/>
<path d="M147.016 53.2902H207.09C209.17 53.2902 210.845 51.6067 210.845 49.5323C210.845 47.458 209.17 45.7744 207.09 45.7744H147.016C144.951 45.7744 143.262 47.458 143.262 49.5323C143.262 51.6067 144.951 53.2902 147.016 53.2902Z" fill="#7561EA"/>
<path d="M124.504 203.599H64.4304C62.3578 203.599 60.6758 205.29 60.6758 207.357C60.6758 209.439 62.3578 211.115 64.4304 211.115H124.504C126.569 211.115 128.259 209.439 128.259 207.357C128.259 205.29 126.577 203.599 124.504 203.599Z" fill="#7561EA"/>
<path d="M124.504 181.052H64.4304C62.3578 181.052 60.6758 182.743 60.6758 184.809C60.6758 186.891 62.3578 188.567 64.4304 188.567H124.504C126.569 188.567 128.259 186.891 128.259 184.809C128.259 182.743 126.577 181.052 124.504 181.052Z" fill="#7561EA"/>
<path d="M124.504 158.504H64.4304C62.3578 158.504 60.6758 160.195 60.6758 162.262C60.6758 164.344 62.3578 166.02 64.4304 166.02H124.504C126.569 166.02 128.259 164.344 128.259 162.262C128.259 160.195 126.577 158.504 124.504 158.504Z" fill="#7561EA"/>
<path d="M207.106 203.599H147.032C144.952 203.599 143.277 205.29 143.277 207.357C143.277 209.439 144.952 211.115 147.032 211.115H207.106C209.171 211.115 210.86 209.439 210.86 207.357C210.86 205.29 209.171 203.599 207.106 203.599Z" fill="#7561EA"/>
<path d="M207.106 181.052H147.032C144.952 181.052 143.277 182.743 143.277 184.809C143.277 186.891 144.952 188.567 147.032 188.567H207.106C209.171 188.567 210.86 186.891 210.86 184.809C210.86 182.743 209.171 181.052 207.106 181.052Z" fill="#7561EA"/>
<path d="M207.106 158.504H147.032C144.952 158.504 143.277 160.195 143.277 162.262C143.277 164.344 144.952 166.02 147.032 166.02H207.106C209.171 166.02 210.86 164.344 210.86 162.262C210.86 160.195 209.171 158.504 207.106 158.504Z" fill="#7561EA"/>
<path d="M207.106 113.409H64.4304C62.3578 113.409 60.6758 115.093 60.6758 117.167C60.6758 119.242 62.3578 120.925 64.4304 120.925H207.106C209.171 120.925 210.86 119.242 210.86 117.167C210.86 115.093 209.171 113.409 207.106 113.409Z" fill="#7561EA"/>
<path d="M207.106 135.957H64.4304C62.3578 135.957 60.6758 137.648 60.6758 139.715C60.6758 141.796 62.3578 143.472 64.4304 143.472H207.106C209.171 143.472 210.86 141.796 210.86 139.715C210.86 137.648 209.171 135.957 207.106 135.957Z" fill="#7561EA"/>
<path d="M68.185 98.3476H120.75C124.902 98.3476 128.259 94.988 128.259 90.8318V38.2512C128.259 34.0949 124.902 30.7354 120.75 30.7354H68.185C64.0324 30.7354 60.6758 34.0949 60.6758 38.2512V90.8318C60.6758 94.9805 64.0324 98.3476 68.185 98.3476ZM75.6942 45.7369H113.24V83.316H75.6942V45.7369Z" fill="#7561EA"/>
</g>
<defs>
<clipPath id="clip0">
<rect x="0.601562" y="0.641968" width="240.295" height="240.506" fill="white"/>
</clipPath>
</defs>
</svg>
