<svg width="16" height="16" viewBox="0 0 16 16" fill="none" xmlns="http://www.w3.org/2000/svg">
<path d="M7.42132 8.4827C9.20084 7.82229 9.81406 6.67811 9.63 5.8298C9.51105 5.30566 9.11542 4.98015 8.59709 4.98015C8.29093 4.98015 7.94703 5.09791 7.60282 5.32082C7.49365 5.3915 7.34583 5.39056 7.23772 5.31867C6.89366 5.08973 6.54871 4.96875 6.24014 4.96875C5.72 4.96875 5.32693 5.29788 5.21415 5.82766C5.02949 6.68683 5.64196 7.8357 7.42132 8.4827Z" fill="white" fill-opacity="0.6"/>
<path d="M1.23911 13.1082C1.29189 13.6138 1.72947 14.0196 2.29382 14.0864C1.74677 13.7888 1.41249 13.2592 1.41068 12.6878L1.41068 1.08107C1.41159 0.815508 1.48527 0.554376 1.62512 0.320068L1.10693 0.364328C0.434612 0.421463 -0.0584608 0.954055 0.00559809 1.55371L1.23911 13.1082Z" fill="white" fill-opacity="0.6"/>
<path d="M8.91699 14.5238H16.0002V16.0002H8.91699V14.5238Z" fill="white" fill-opacity="0.6"/>
<path d="M12.0706 11.9L11.682 11.9506C11.2602 12.0067 10.8319 11.8967 10.5082 11.6491C10.1844 11.4015 9.99722 11.0407 9.99496 10.6604V9.81729C9.99496 9.50439 9.71061 9.25077 9.35979 9.25077C9.00896 9.25077 8.72461 9.50439 8.72461 9.81729V13.1094C8.72461 13.3923 8.84761 13.6641 9.06791 13.8676C9.11077 13.9058 9.15633 13.9415 9.20445 13.9745H15.6114C15.7992 13.7415 15.9013 13.4623 15.9037 13.1754C15.9049 11.592 15.9078 11.0118 15.9085 10.6983C15.9094 10.4108 15.9118 10.3487 15.9106 9.94135C15.9114 9.53993 15.7472 9.15206 15.4488 8.85136L13.2286 6.6145V10.7116C13.2274 11.3094 12.734 11.8157 12.0706 11.9Z" fill="white" fill-opacity="0.6"/>
<path d="M2.02637 1.08112L2.02637 12.6879C2.02637 13.2894 2.58245 13.7685 3.25687 13.7685H8.27467C8.16745 13.5618 8.11091 13.3372 8.10866 13.1094V9.8173C8.10866 9.20102 8.6688 8.70142 9.35976 8.70142C10.0507 8.70142 10.6109 9.20102 10.6109 9.8173V10.6604C10.6134 10.8811 10.7235 11.09 10.9122 11.2327C11.1018 11.3765 11.3518 11.44 11.5978 11.4073L11.9805 11.3569C12.3414 11.3113 12.6102 11.0367 12.6126 10.7116V1.08112C12.6126 0.47959 12.0454 0.000244141 11.371 0.000244141L3.25687 0.000244141C2.58245 0.000244141 2.02637 0.47959 2.02637 1.08112ZM10.0416 0.847884C11.0041 0.848822 11.7841 1.5445 11.7851 2.40301C11.7851 2.5547 11.6472 2.67769 11.4772 2.67769C11.3071 2.67769 11.1692 2.5547 11.1692 2.40301C11.1684 1.84775 10.6641 1.39791 10.0416 1.39724C9.87148 1.39724 9.73359 1.27425 9.73359 1.12256C9.73359 0.970872 9.87148 0.847884 10.0416 0.847884ZM4.60872 5.72476C4.77729 4.93198 5.41758 4.41937 6.23967 4.41937C6.62898 4.41937 7.02657 4.53565 7.42416 4.76553C7.81693 4.54585 8.21873 4.43077 8.59662 4.43077C9.41359 4.43077 10.0561 4.93761 10.2336 5.72208L10.234 5.72409C10.4685 6.80161 9.74532 8.23563 7.60085 9.01057C7.59483 9.01272 7.58882 9.01473 7.58265 9.01661C7.47844 9.05054 7.36416 9.05054 7.25995 9.01661C7.25454 9.015 7.24912 9.01312 7.24386 9.01138C5.09849 8.25212 4.37459 6.81355 4.60872 5.72476ZM3.45867 11.3659C3.45927 11.9211 3.96377 12.3711 4.58632 12.3718C4.75639 12.3718 4.89428 12.4947 4.89428 12.6464C4.89428 12.7981 4.75639 12.9211 4.58632 12.9211C3.62378 12.92 2.8438 12.2245 2.84274 11.366C2.84274 11.2143 2.98063 11.0913 3.15071 11.0913C3.32078 11.0913 3.45867 11.2143 3.45867 11.366V11.3659Z" fill="white" fill-opacity="0.6"/>
</svg>
