<svg width="16" height="18" viewBox="0 0 16 18" fill="none" xmlns="http://www.w3.org/2000/svg">
<path d="M14.1901 15.3937V8.72609C14.1901 6.0322 12.485 3.73276 10.0868 2.86509L11.4562 0H4.49582L5.92841 2.84156C3.49417 3.68976 1.72854 6.00646 1.72854 8.72609V15.3937H0.914062V18H15.086V15.3937H14.1901ZM9.59031 12.609C9.32593 12.8437 8.99891 13.0068 8.61863 13.0932L8.62499 13.9578L7.38022 13.961L7.3746 13.0961C7.0225 13.0111 6.7652 12.8416 6.45986 12.5888C6.0439 12.2304 5.82725 11.8116 5.81332 11.3418L5.81308 11.3323L5.84419 10.9355L7.04213 10.9313L7.05149 11.1839C7.05614 11.4822 7.14198 11.6979 7.31392 11.8469C7.48805 12.0031 7.63816 12.0816 7.98147 12.0816C8.32143 12.0788 8.58483 11.9972 8.76296 11.8389C8.93286 11.6892 9.0152 11.4791 9.0152 11.1965C9.0152 10.9744 8.94044 10.8119 8.77998 10.6851C8.59208 10.5377 8.25155 10.4054 7.76832 10.2921C7.17293 10.1535 6.71576 9.93795 6.4096 9.65126C6.08104 9.33948 5.91358 8.94755 5.91098 8.48566C5.90756 7.95649 6.11395 7.51618 6.52428 7.17711C6.75877 6.98221 7.03325 6.84383 7.34145 6.7649L7.33567 6.00736L8.58011 5.99872L8.58329 6.72964C8.92569 6.8005 9.1531 6.94157 9.41104 7.1517C9.80533 7.48148 10.0195 7.93189 10.0492 8.4925L10.0588 8.76217L8.85573 8.76812L8.8203 8.54601C8.78218 8.26192 8.69308 8.05268 8.55486 7.9314C8.40858 7.80312 8.30628 7.73756 8.05143 7.73756H8.03457C7.73761 7.73756 7.50125 7.81811 7.34919 7.94777C7.20168 8.07117 7.13734 8.24042 7.13921 8.47083C7.13921 8.66036 7.20225 8.80371 7.33192 8.91033C7.44024 9.00155 7.67343 9.13292 8.17833 9.24882C8.84506 9.40553 9.35574 9.63994 9.69692 9.94569C10.0582 10.2726 10.2412 10.6862 10.2412 11.1756C10.2447 11.7544 10.0256 12.237 9.59031 12.609Z" fill="#575757"/>
</svg>
