<svg width="16" height="16" viewBox="0 0 16 16" fill="none" xmlns="http://www.w3.org/2000/svg">
<path d="M8 0.000244141C3.58916 0.000244141 0 3.58941 0 8.00024C0 12.4111 3.58916 16.0002 8 16.0002C12.4108 16.0002 16 12.4111 16 8.00024C16 3.58941 12.4108 0.000244141 8 0.000244141ZM10.0635 1.73857C12.036 2.38992 13.599 3.94863 14.2565 5.91921C14.0501 5.85418 13.8312 5.81908 13.6041 5.81908C13.1768 5.81908 12.7783 5.94399 12.4407 6.15663C11.9482 4.97573 10.9977 4.03121 9.81244 3.54708C10.0302 3.20747 10.1574 2.80489 10.1574 2.37237C10.1574 2.15147 10.1244 1.93882 10.0635 1.73857ZM5.8849 14.2454C3.94219 13.5857 2.4032 12.0426 1.74865 10.0969C1.93982 10.1515 2.14111 10.1814 2.34859 10.1814C2.79246 10.1814 3.20537 10.0472 3.55035 9.81908C4.03427 10.9998 4.97373 11.9466 6.1504 12.439C5.9264 12.7807 5.79634 13.1894 5.79634 13.6281C5.79613 13.8428 5.8271 14.0493 5.8849 14.2454ZM3.55004 6.18141C3.20506 5.95328 2.79215 5.81908 2.34828 5.81908C2.1408 5.81908 1.93951 5.84902 1.74834 5.90373C2.40289 3.95792 3.94188 2.4147 5.88459 1.75508C5.82679 1.95121 5.79592 2.15766 5.79592 2.37237C5.79592 2.81108 5.92609 3.21986 6.15009 3.56153C4.97342 4.05392 4.03406 5.0005 3.55004 6.18141ZM8.46555 10.9814H7.06684V9.6373H8.46555V10.9814ZM9.68671 7.8547C9.36475 8.13753 8.9343 8.28412 8.39536 8.29444V8.99338H7.12981V7.43054H7.65626C8.03303 7.43054 8.32723 7.37686 8.53677 7.26951C8.74539 7.16215 8.85058 6.97015 8.85058 6.69248C8.85058 6.5139 8.80103 6.37557 8.7009 6.27544C8.60181 6.17635 8.46761 6.1268 8.30039 6.1268C8.11148 6.1268 7.96387 6.18254 7.85641 6.29506C7.74916 6.40861 7.69528 6.55106 7.69528 6.72344H6.43076C6.42044 6.40964 6.48764 6.12267 6.63102 5.86357C6.77543 5.60448 6.99334 5.40009 7.28733 5.25041C7.58049 5.10177 7.93352 5.02641 8.34756 5.02641C8.90188 5.02641 9.34472 5.1699 9.67494 5.4548C10.0041 5.74073 10.1693 6.15054 10.1693 6.68422C10.1698 7.18166 10.0088 7.57186 9.68671 7.8547ZM10.0635 14.2619C10.1244 14.0618 10.1574 13.849 10.1574 13.628C10.1574 13.1956 10.0305 12.7929 9.81244 12.4532C10.9975 11.9693 11.9482 11.0246 12.4407 9.84375C12.7783 10.0565 13.1768 10.1814 13.6041 10.1814C13.8312 10.1814 14.0501 10.1463 14.2565 10.0813C13.599 12.0519 12.0361 13.6106 10.0635 14.2619Z" fill="white" fill-opacity="0.6"/>
</svg>
