<svg width="18" height="18" viewBox="0 0 18 18" fill="none" xmlns="http://www.w3.org/2000/svg">
<path d="M9 0C4.03781 0 0 4.03781 0 9C0 13.9622 4.03781 18 9 18C13.9622 18 18 13.9622 18 9C18 4.03781 13.9622 0 9 0ZM11.3214 1.95561C13.5405 2.68839 15.2988 4.44194 16.0386 6.65884C15.8063 6.58568 15.5601 6.54619 15.3046 6.54619C14.8239 6.54619 14.3756 6.68671 13.9958 6.92594C13.4417 5.59742 12.3724 4.53484 11.039 3.99019C11.284 3.60813 11.4271 3.15523 11.4271 2.66865C11.4271 2.42013 11.3899 2.1809 11.3214 1.95561ZM6.62052 16.0258C4.43497 15.2836 2.7036 13.5476 1.96723 11.3587C2.1823 11.4201 2.40875 11.4538 2.64217 11.4538C3.14152 11.4538 3.60604 11.3028 3.99414 11.0462C4.53856 12.3745 5.59545 13.4396 6.9192 13.9935C6.6672 14.3781 6.52088 14.8378 6.52088 15.3314C6.52065 15.5729 6.55548 15.8052 6.62052 16.0258ZM3.99379 6.95381C3.60569 6.69716 3.14117 6.54619 2.64182 6.54619C2.4084 6.54619 2.18195 6.57987 1.96688 6.64142C2.70325 4.45239 4.43462 2.71626 6.62017 1.97419C6.55514 2.19484 6.52041 2.4271 6.52041 2.66865C6.52041 3.16219 6.66685 3.62206 6.91885 4.00645C5.5951 4.56039 4.53832 5.62529 3.99379 6.95381ZM9.52374 12.3538H7.95019V10.8417H9.52374V12.3538ZM10.8975 8.83626C10.5353 9.15445 10.0511 9.31936 9.44477 9.33097V10.1173H8.02103V8.35908H8.61329C9.03716 8.35908 9.36813 8.2987 9.60387 8.17792C9.83857 8.05715 9.9569 7.84115 9.9569 7.52876C9.9569 7.32786 9.90116 7.17225 9.78852 7.0596C9.67703 6.94812 9.52606 6.89237 9.33794 6.89237C9.12542 6.89237 8.95936 6.95508 8.83846 7.08167C8.71781 7.20941 8.65719 7.36966 8.65719 7.5636H7.23461C7.22299 7.21057 7.29859 6.88773 7.4599 6.59625C7.62236 6.30476 7.86751 6.07483 8.19825 5.90644C8.52805 5.73921 8.92521 5.65444 9.39101 5.65444C10.0146 5.65444 10.5128 5.81586 10.8843 6.13637C11.2546 6.45805 11.4405 6.91908 11.4405 7.51947C11.441 8.0791 11.2599 8.51806 10.8975 8.83626ZM11.3214 16.0444C11.3899 15.8192 11.4271 15.5799 11.4271 15.3312C11.4271 14.8448 11.2843 14.3918 11.039 14.0096C12.3722 13.4652 13.4417 12.4023 13.9958 11.0739C14.3756 11.3133 14.8239 11.4538 15.3046 11.4538C15.5601 11.4538 15.8063 11.4143 16.0386 11.3412C15.2988 13.5581 13.5406 15.3116 11.3214 16.0444Z" fill="black"/>
</svg>
