<svg width="18" height="18" viewBox="0 0 18 18" fill="none" xmlns="http://www.w3.org/2000/svg">
<path d="M9.34261 15.69V18C11.484 17.9201 13.5261 17.0766 15.0996 15.6219L13.4662 13.9885C12.3276 15.012 10.8716 15.6127 9.34261 15.69Z" fill="black"/>
<path d="M18 9.34139H15.6901C15.6121 10.8901 14.997 12.3632 13.9508 13.5078L15.5832 15.1403C17.0612 13.5617 17.9194 11.5025 18 9.34139Z" fill="black"/>
<path d="M13.97 4.5134C15.0048 5.655 15.6126 7.11947 15.6901 8.65833H18C17.9198 6.50723 17.0689 4.45653 15.6026 2.88049L13.97 4.5134Z" fill="black"/>
<path d="M2.8802 15.6024C4.45624 17.0689 6.50694 17.9198 8.6582 18V15.6901C7.11918 15.6126 5.65454 15.0045 4.51295 13.9696L2.8802 15.6024Z" fill="black"/>
<path d="M2.39833 15.1194L4.03125 13.4866C2.99639 12.345 2.38849 10.8804 2.31094 9.34137H0.00106716C0.0812874 11.4926 0.93202 13.5433 2.39833 15.1194Z" fill="black"/>
<path d="M2.98445 8.99978C2.98445 12.3168 5.68324 15.0156 9.00029 15.0156C12.3173 15.0156 15.0156 12.3168 15.0156 8.99978C15.0156 5.68274 12.3172 2.98444 9.00029 2.98444C5.68341 2.98444 2.98445 5.68291 2.98445 8.99978ZM10.7865 5.70375C10.9016 5.64321 11.041 5.65339 11.146 5.72977C11.2513 5.80616 11.304 5.93574 11.282 6.06383L10.9409 8.05299L12.386 9.46193C12.4791 9.55265 12.5126 9.68841 12.4724 9.81199C12.4322 9.93574 12.3253 10.0258 12.1967 10.0445L10.1996 10.3348L9.30632 12.1445C9.24879 12.2611 9.13004 12.335 9.00012 12.335C8.87003 12.335 8.75129 12.2611 8.69375 12.1445L7.80065 10.3348L5.80332 10.0445C5.67474 10.0258 5.56783 9.93574 5.52764 9.81199C5.48745 9.68841 5.52097 9.55265 5.61403 9.46193L7.05933 8.05299L6.7181 6.06383C6.69625 5.93574 6.74879 5.80616 6.85402 5.72977C6.95926 5.65339 7.09869 5.64321 7.21376 5.70375L9.00029 6.64305L10.7865 5.70375Z" fill="black"/>
<path d="M0.000548363 8.65833H2.31042C2.38747 7.12931 2.9882 5.67334 4.01172 4.53458L2.37863 2.90133C0.923996 4.47488 0.0802681 6.5169 0.000548363 8.65833Z" fill="black"/>
<path d="M4.49177 4.04932C5.63636 3.00295 7.10951 2.38804 8.6582 2.30999V0.000121117C6.4971 0.0806746 4.4379 0.938913 2.85935 2.4169L4.49177 4.04932Z" fill="black"/>
<path d="M9.34129 2.31001C10.8801 2.38756 12.3446 2.9953 13.4862 4.03015L15.1191 2.39723C13.5431 0.930921 11.4924 0.0801878 9.34129 -3.24249e-05V2.31001Z" fill="black"/>
<path d="M7.66507 8.41715L6.58685 9.46801L8.07684 9.68466C8.18825 9.70083 8.28431 9.77055 8.33418 9.87145L9.00046 11.2217L9.66673 9.87145C9.71643 9.77055 9.81266 9.70083 9.9239 9.68466L11.4141 9.46801L10.3358 8.41715C10.2553 8.33859 10.2186 8.22552 10.2376 8.11478L10.4921 6.63079L9.15939 7.33142C9.05999 7.38379 8.94108 7.38379 8.84152 7.33142L7.5088 6.63079L7.7633 8.11478C7.78231 8.22568 7.74562 8.33859 7.66507 8.41715Z" fill="black"/>
</svg>
