<svg width="38" height="24" viewBox="0 0 38 24" fill="none" xmlns="http://www.w3.org/2000/svg">
<path fill-rule="evenodd" clip-rule="evenodd" d="M21.1264 11.9146L22.8818 11.5362L22.9139 12.3873L23.1055 12.4185C23.1055 12.4185 25.4035 10.3389 26.744 12.6077L26.9354 12.6708C26.9354 12.6708 28.7549 10.2129 30.7656 12.4817L30.7974 17.5869C30.7974 17.5869 31.4995 18.0598 31.8189 18.028L31.7868 18.1857L31.8189 18.4063H28.5633V17.9648C28.5633 17.9648 29.7441 17.9338 29.776 17.524C29.808 17.114 29.7441 13.2067 29.7441 13.2067C29.7441 13.2067 29.393 11.4421 26.9993 12.9856V17.6501C26.9993 17.6501 27.1909 18.154 27.925 17.9648V18.4063H24.4458V17.9648C24.4458 17.9648 25.6149 18.1363 25.6588 17.6186C25.6905 17.2403 25.6588 13.049 25.6588 13.049C25.6588 13.049 24.8289 11.4731 23.0734 13.1121V17.7132C23.0734 17.7132 23.2331 18.0913 23.9033 17.9648V18.4063L21.0946 18.4694L21.0625 18.2171C21.0625 18.2171 21.7331 18.0913 21.6694 17.1771C21.6054 16.2632 21.3499 12.0721 21.1264 11.9146Z" fill="#BDB4EE"/>
<path fill-rule="evenodd" clip-rule="evenodd" d="M37.4286 23.8103V23.0117H11.0742V23.8103H37.4286Z" fill="#BDB4EE"/>
<path fill-rule="evenodd" clip-rule="evenodd" d="M32.6261 16.4288V18.4236L33.6691 18.4878C33.6691 18.4878 36.1454 19.4855 37.0255 17.4261C37.0255 17.4261 37.3946 15.9463 36.276 15.2384C35.1716 14.5398 33.7993 13.8548 33.6039 13.5013C33.4083 13.1469 33.3758 12.2467 34.4511 12.0211C34.4511 12.0211 36.0479 11.7959 36.3088 13.7263L36.667 13.8226L36.732 11.8602L36.1131 11.9248C36.1131 11.9248 33.7993 10.7344 32.7569 12.4713C32.7569 12.4713 31.8768 14.2734 33.506 15.1742C35.1353 16.0751 36.0148 16.3969 36.0148 17.0405C36.0148 17.0405 36.0802 18.1988 35.1678 18.2628C35.1678 18.2628 33.7993 18.5201 33.4733 17.684C33.6045 18.0226 33.0259 16.7049 32.8869 16.4128L32.6261 16.4288Z" fill="#BDB4EE"/>
<path fill-rule="evenodd" clip-rule="evenodd" d="M13.8667 17.8722C13.0984 17.826 12.6933 17.5706 12.5257 16.9691C12.315 16.2112 13.1556 15.432 13.6107 15.1362C14.0657 14.8407 14.7485 14.4041 15.3104 14.5153L15.334 17.2741C15.334 17.2741 14.6352 17.9183 13.8667 17.8722ZM16.4053 17.7691C16.3236 17.6885 16.4405 13.2905 16.4015 12.9751C16.4015 12.9751 16.3817 12.5553 16.1257 12.2163C15.5716 11.4826 14.8331 11.3597 14.053 11.2734C13.2729 11.1872 12.3835 11.5601 11.9689 11.9405C10.9909 12.8372 11.529 13.6553 11.8756 13.7564C12.1902 13.8486 12.435 13.722 12.6211 13.4349C12.8074 13.1476 12.6791 12.5957 12.7374 12.4805C12.7956 12.3655 12.8074 12.2163 13.0402 11.9976C13.2729 11.7795 14.03 11.5836 14.5539 11.7795C15.0776 11.9749 15.264 12.6649 15.264 12.6649C15.4902 12.9993 15.264 13.998 15.264 13.998C15.2758 13.998 13.6806 14.4809 12.9469 14.9868C10.9371 16.3724 11.0025 17.2516 11.1308 17.7574C11.2587 18.2631 12.0153 18.9183 13.0054 18.9183C13.9948 18.9183 14.6702 18.0562 14.7865 17.9183C14.9029 17.7804 15.2511 17.8576 15.2511 17.8576L15.264 17.9701C15.4952 18.6729 15.9628 18.7806 16.3471 18.7977C16.7311 18.8149 17.1763 18.4701 17.1763 18.4701C17.0366 18.4443 16.4053 17.7691 16.4053 17.7691Z" fill="#BDB4EE"/>
<path fill-rule="evenodd" clip-rule="evenodd" d="M19.1064 17.7345C18.3377 17.6883 17.9326 17.4327 17.7654 16.831C17.5547 16.0735 18.3953 15.2939 18.85 14.998C19.3049 14.7028 19.988 14.2662 20.5501 14.3772L20.5733 17.1364C20.5733 17.1364 19.8749 17.7804 19.1064 17.7345ZM22.8553 17.7733C22.0729 18.247 21.6712 17.6504 21.6712 17.6504C21.5897 17.5699 21.7066 13.1718 21.668 12.8564C21.668 12.8564 21.6482 12.437 21.3918 12.098C20.8375 11.3641 20.0994 11.2411 19.3193 11.1549C18.5392 11.0686 17.6498 11.4416 17.2352 11.822C16.257 12.7189 16.7952 13.5368 17.1421 13.638C17.4561 13.7303 17.7007 13.6035 17.887 13.3164C18.0733 13.0291 17.9452 12.4774 18.0037 12.362C18.0619 12.2472 18.0737 12.098 18.3065 11.8791C18.5392 11.6609 19.2961 11.4653 19.82 11.6609C20.3441 11.8566 20.5302 12.5464 20.5302 12.5464C20.756 12.8809 20.5302 13.8799 20.5302 13.8799C20.5419 13.8799 18.9471 14.3624 18.2134 14.8683C16.2036 16.2541 16.2688 17.1333 16.3967 17.6387C16.5252 18.1447 17.2816 18.7997 18.2714 18.7997C19.2611 18.7997 19.9365 17.9377 20.0527 17.7995C20.169 17.6618 20.517 17.7395 20.517 17.7395L20.5302 17.8514C20.7615 18.5541 21.2285 18.6618 21.6131 18.6791C21.994 18.6962 22.4339 18.3583 22.4413 18.3527C22.4445 18.3543 22.4534 18.3577 22.4428 18.3514L22.8553 17.7733Z" fill="#BDB4EE"/>
<path fill-rule="evenodd" clip-rule="evenodd" d="M0 13.7333L0.942772 13.6417L1.28059 14.5417L1.49392 13.6173L2.45336 13.5842L1.62137 13.0877L1.89019 12.1902L1.15821 12.7877L0.355966 12.2583L0.731767 13.1358L0 13.7333Z" fill="#BDB4EE"/>
<path fill-rule="evenodd" clip-rule="evenodd" d="M0.562012 7.56084L1.36299 8.06001L1.06821 8.97523L1.81222 8.37564L2.58935 8.93169L2.24267 8.03459L3.01368 7.49126L2.06458 7.51813L1.76116 6.61292L1.51069 7.53417L0.562012 7.56084Z" fill="#BDB4EE"/>
<path fill-rule="evenodd" clip-rule="evenodd" d="M4.153 2.49334L4.56214 3.33626L3.81982 3.95689L4.77251 3.84002L5.13164 4.71898L5.32071 3.77793L6.26664 3.72147L5.44815 3.24647L5.67857 2.32104L4.97107 2.96834L4.153 2.49334Z" fill="#BDB4EE"/>
<path fill-rule="evenodd" clip-rule="evenodd" d="M9.04346 0.949419L9.84486 1.44776L9.55198 2.36277L10.2949 1.76297L11.0729 2.31818L10.7252 1.4213L11.4949 0.876502L10.546 0.905044L10.2411 0.000244141L9.99256 0.920669L9.04346 0.949419Z" fill="#BDB4EE"/>
<path fill-rule="evenodd" clip-rule="evenodd" d="M14.4775 2.76559L15.3939 2.52913L15.8695 3.36622L15.9341 2.42017L16.8762 2.23871L15.9761 1.87683L16.1004 0.949951L15.4716 1.65287L14.5951 1.25329L15.1051 2.06184L14.4775 2.76559Z" fill="#BDB4EE"/>
<path fill-rule="evenodd" clip-rule="evenodd" d="M18.418 6.00219L19.339 6.22031L19.3586 7.18032L19.8672 6.37615L20.7848 6.65511L20.1636 5.91656L20.7162 5.15718L19.826 5.48406L19.2441 4.72363L19.3076 5.67406L18.418 6.00219Z" fill="#BDB4EE"/>
<path fill-rule="evenodd" clip-rule="evenodd" d="M4.50716 21.2493C4.51765 21.2343 4.52227 21.2189 4.52227 21.2089C4.52772 21.1677 4.50716 21.1427 4.48136 21.1273L4.43499 21.1016C4.41967 21.0914 4.40478 21.0814 4.38883 21.0708L4.37918 21.0862C4.40478 21.1016 4.39408 21.1221 4.37372 21.1529L4.33764 21.2089L4.28645 21.2904C4.26588 21.321 4.25581 21.3412 4.23001 21.3258L4.21973 21.3362L4.31708 21.4023L4.32757 21.3871C4.29673 21.3666 4.3068 21.351 4.3326 21.316L4.36848 21.2602L4.39408 21.275C4.42492 21.2956 4.47674 21.3056 4.50716 21.2493ZM4.46058 21.2189C4.43499 21.2602 4.41485 21.265 4.37918 21.2393L4.39953 21.2089L4.43499 21.1529C4.44548 21.1323 4.44548 21.1323 4.46058 21.1427C4.48136 21.1579 4.48136 21.1781 4.46625 21.2089C4.46625 21.2137 4.46625 21.2137 4.46058 21.2189Z" fill="#BDB4EE"/>
<path fill-rule="evenodd" clip-rule="evenodd" d="M4.92725 18.8278C4.92725 18.8485 4.94265 18.8682 4.96903 18.8739L5.59888 19.0214C5.60352 19.0214 5.61386 19.0264 5.6242 19.0214C5.65015 19.0162 5.67104 18.9903 5.67104 18.9651L5.69678 18.6289L5.7221 18.323C5.7221 18.3076 5.71219 18.2928 5.69678 18.282C5.68623 18.2768 5.67104 18.2722 5.65543 18.2768C5.43345 18.3482 5.237 18.4657 5.07706 18.6289C5.02515 18.6797 4.97894 18.7305 4.93737 18.7918C4.92725 18.802 4.92725 18.8122 4.92725 18.8278ZM4.97367 18.8174C5.02515 18.746 5.07706 18.6849 5.1391 18.6289C5.28849 18.486 5.46932 18.3839 5.67568 18.323L5.65015 18.6289L5.62926 18.9651C5.62926 18.9705 5.6242 18.9755 5.609 18.9755L4.96903 18.8224L4.97367 18.8174Z" fill="#BDB4EE"/>
<path fill-rule="evenodd" clip-rule="evenodd" d="M5.14344 21.9479C5.12282 21.9426 5.11303 21.9633 5.10303 21.9783C5.13344 21.9835 5.14865 21.9937 5.17949 21.9835C5.23011 21.9376 5.26553 21.8664 5.33199 21.8408V21.8256C5.30657 21.8256 5.28615 21.8408 5.26074 21.856C5.23532 21.8818 5.20469 21.9581 5.14344 21.9479Z" fill="#BDB4EE"/>
<path fill-rule="evenodd" clip-rule="evenodd" d="M4.84664 21.3359L4.75539 21.2953L4.74497 21.3103C4.77539 21.3207 4.76539 21.3409 4.74997 21.3765L4.74497 21.382L4.67872 21.5138V21.5195C4.6583 21.5547 4.6533 21.5757 4.62268 21.5599L4.61768 21.5757L4.69872 21.6163C4.72997 21.6313 4.78039 21.652 4.81622 21.6211C4.82164 21.6111 4.83143 21.6011 4.83643 21.5905C4.86247 21.5349 4.83143 21.4986 4.80601 21.4838C4.82164 21.4838 4.84664 21.4892 4.86726 21.4732C4.87726 21.4682 4.88226 21.4582 4.89268 21.443C4.9181 21.3867 4.87726 21.3507 4.84664 21.3359ZM4.72455 21.6061C4.70372 21.5955 4.70934 21.5707 4.71976 21.5449C4.72455 21.5449 4.72455 21.5399 4.72455 21.5349L4.75539 21.4732L4.77018 21.4786C4.80059 21.494 4.80601 21.5195 4.78601 21.5653C4.78039 21.5707 4.77539 21.5803 4.77018 21.5861C4.75997 21.6011 4.73976 21.6111 4.72455 21.6061ZM4.77539 21.4582L4.79059 21.4176L4.81622 21.3563C4.81622 21.3507 4.82664 21.3507 4.83143 21.3563C4.85705 21.3663 4.85705 21.392 4.84164 21.4226C4.83643 21.4328 4.83143 21.4378 4.82664 21.443C4.81122 21.4682 4.79601 21.4682 4.77539 21.4582Z" fill="#BDB4EE"/>
<path fill-rule="evenodd" clip-rule="evenodd" d="M5.04891 21.448C5.06433 21.438 5.08454 21.4278 5.09475 21.4022C5.09475 21.3922 5.10016 21.3822 5.09475 21.3665C5.08454 21.3003 5.0285 21.3003 4.99287 21.3055L4.896 21.3257V21.3465C4.93183 21.3361 4.93183 21.3565 4.94183 21.3972V21.4022L4.97245 21.5501V21.5549C4.97766 21.5907 4.98266 21.6165 4.95204 21.6213L4.95725 21.6363L5.04891 21.6165C5.08454 21.6113 5.13058 21.5957 5.14058 21.5501C5.14058 21.5401 5.14058 21.5251 5.14058 21.514C5.12516 21.4532 5.08454 21.4432 5.04891 21.448ZM4.98266 21.3411C4.97766 21.3311 4.98766 21.3311 4.99287 21.3311C5.01829 21.3257 5.03391 21.3411 5.04391 21.3822C5.04391 21.387 5.04391 21.3972 5.04391 21.4022C5.04391 21.4278 5.03391 21.4432 5.00808 21.448L4.99787 21.4074L4.98266 21.3411ZM5.05954 21.5907C5.0385 21.5957 5.0285 21.5759 5.02329 21.5501C5.02329 21.5451 5.02329 21.5401 5.01829 21.5351L5.00808 21.4684L5.02329 21.4636C5.05391 21.4584 5.07454 21.4788 5.08454 21.5251C5.08454 21.5351 5.08454 21.5401 5.08454 21.5501C5.08454 21.5709 5.07975 21.5907 5.05954 21.5907Z" fill="#BDB4EE"/>
<path fill-rule="evenodd" clip-rule="evenodd" d="M4.73261 21.3002L4.74324 21.2902L4.67199 21.2441L4.66136 21.2599C4.67199 21.2647 4.6872 21.2747 4.67199 21.2954C4.66136 21.3104 4.63574 21.336 4.62095 21.3464L4.53428 21.4277L4.58511 21.2695C4.58511 21.2647 4.59032 21.2491 4.59511 21.2391C4.60553 21.2237 4.62095 21.2287 4.63074 21.2391L4.64095 21.2237L4.54428 21.1622L4.53428 21.1726C4.5549 21.1933 4.5549 21.1981 4.53907 21.2391L4.4624 21.4893L4.47303 21.4987L4.67199 21.3256C4.69699 21.3054 4.71261 21.2902 4.73261 21.3002Z" fill="#BDB4EE"/>
<path fill-rule="evenodd" clip-rule="evenodd" d="M4.26011 21.2541L4.24438 21.2439C4.20829 21.29 4.18836 21.2952 4.15752 21.2745C4.12143 21.2541 4.14178 21.2285 4.16193 21.1931L4.1934 21.1423C4.21899 21.162 4.22424 21.1725 4.20347 21.2133L4.21899 21.2185L4.28068 21.1116L4.27019 21.1064C4.24438 21.1423 4.22927 21.1423 4.20347 21.1268L4.24962 21.0502C4.25508 21.0452 4.26515 21.03 4.26515 21.03C4.27019 21.0245 4.29096 21.0352 4.29599 21.04C4.32159 21.055 4.32683 21.0758 4.3111 21.1216L4.32159 21.1268L4.36292 21.055L4.20829 20.9635L4.20347 20.9737C4.22927 20.9887 4.21899 21.0093 4.19801 21.0452L4.11115 21.1777C4.09101 21.2133 4.08031 21.2339 4.04947 21.2133L4.04443 21.2285L4.20829 21.3308L4.22927 21.3L4.26011 21.2541Z" fill="#BDB4EE"/>
<path fill-rule="evenodd" clip-rule="evenodd" d="M5.33187 21.4686C5.33187 21.5252 5.32187 21.5402 5.28124 21.5502C5.24562 21.555 5.24041 21.5296 5.22999 21.479L5.19937 21.3467C5.19437 21.3056 5.18937 21.285 5.21999 21.2802V21.265L5.10791 21.285V21.3004C5.13854 21.2956 5.14333 21.3161 5.15354 21.3567L5.18416 21.5142C5.18937 21.5502 5.19437 21.5761 5.16395 21.5761L5.16895 21.5959L5.36312 21.555L5.3475 21.4686H5.33187Z" fill="#BDB4EE"/>
<path fill-rule="evenodd" clip-rule="evenodd" d="M5.91634 21.4019L5.88571 21.3309L5.82446 21.1674H5.80904L5.77863 21.3309L5.76321 21.3969C5.75779 21.4276 5.753 21.4732 5.72217 21.4786L5.72758 21.494L5.80425 21.4892V21.4682C5.79383 21.4682 5.77863 21.4682 5.77342 21.4478L5.77863 21.3919L5.85509 21.3867L5.87571 21.443C5.87571 21.4634 5.85509 21.4634 5.84509 21.4682L5.84967 21.4838L5.93634 21.4786L5.96175 21.4732V21.4582C5.95175 21.4582 5.94175 21.453 5.93634 21.4478C5.92634 21.4378 5.92154 21.4176 5.91634 21.4019ZM5.78342 21.3663L5.79384 21.3309L5.80425 21.2542L5.83446 21.3309L5.84509 21.3613L5.78342 21.3663Z" fill="#BDB4EE"/>
<path fill-rule="evenodd" clip-rule="evenodd" d="M4.93262 19.0724L5.57787 19.5005L5.31475 20.2449L5.93911 19.7708L6.56411 20.2449L6.30099 19.5005L6.94603 19.0724H6.16658L5.93911 18.3232L5.71228 19.0724H4.93262ZM5.93911 18.5222V18.517L6.12522 19.1289H6.76035L6.2341 19.4805L6.44532 20.0872L5.93911 19.7045L5.42827 20.0872L5.64518 19.4805L5.1183 19.1289H5.75343L5.93911 18.5222Z" fill="#BDB4EE"/>
<path fill-rule="evenodd" clip-rule="evenodd" d="M5.66847 21.3921C5.66847 21.4431 5.65785 21.4894 5.61722 21.4942C5.56639 21.4988 5.54076 21.4329 5.53055 21.3665C5.52055 21.3054 5.52555 21.2238 5.57639 21.2188C5.61201 21.2136 5.63785 21.2442 5.64785 21.2902L5.66326 21.2848L5.64785 21.1884H5.63264V21.2188C5.61201 21.1981 5.5918 21.1934 5.56639 21.1981C5.49993 21.2088 5.4593 21.2848 5.4743 21.3821C5.48993 21.4734 5.54076 21.5294 5.60722 21.5196C5.63264 21.514 5.65785 21.4988 5.67305 21.4734L5.68347 21.4988H5.69868L5.68347 21.3921H5.66847Z" fill="#BDB4EE"/>
<path fill-rule="evenodd" clip-rule="evenodd" d="M5.4573 21.4586L5.42667 21.3005C5.42147 21.265 5.41647 21.2394 5.4473 21.2344L5.44188 21.219L5.32959 21.2394L5.33459 21.2602C5.36584 21.2494 5.37022 21.275 5.37542 21.3107L5.40605 21.4686C5.41126 21.5046 5.41647 21.5296 5.38522 21.5352L5.39126 21.5502L5.50313 21.5296L5.49792 21.5142C5.4673 21.5198 5.4623 21.499 5.4573 21.4586Z" fill="#BDB4EE"/>
<path fill-rule="evenodd" clip-rule="evenodd" d="M6.18162 18.3019C6.373 18.3633 6.54834 18.4656 6.69816 18.6033C6.75998 18.6642 6.81695 18.7354 6.86886 18.8071L6.23859 18.965C6.23374 18.965 6.22297 18.96 6.2177 18.95L6.19217 18.6081L6.17128 18.3019C6.17128 18.3019 6.17634 18.3019 6.18162 18.3019L6.17634 18.95C6.17634 18.96 6.17634 18.965 6.18162 18.9754C6.19217 19.0006 6.22297 19.011 6.24872 19.006L6.88384 18.8527C6.89925 18.8483 6.91001 18.8323 6.91486 18.8173C6.91971 18.8019 6.91971 18.7863 6.91001 18.7767C6.86316 18.7154 6.81695 18.6592 6.76526 18.6033C6.60553 18.4452 6.40908 18.3279 6.19217 18.2613C6.18162 18.2567 6.16621 18.2567 6.15587 18.2613C6.13013 18.2669 6.11958 18.2873 6.12486 18.3123L6.14532 18.6081L6.17634 18.95L6.18162 18.3019Z" fill="#BDB4EE"/>
<path fill-rule="evenodd" clip-rule="evenodd" d="M5.99087 19.8674C5.9858 19.8626 5.98074 19.8574 5.97019 19.8522C5.95985 19.8472 5.94972 19.8422 5.93896 19.8472C5.9187 19.8472 5.90794 19.8522 5.89296 19.8674L5.4642 20.3518C5.43824 20.3978 5.47433 20.4236 5.49015 20.4288C5.63469 20.4795 5.78408 20.5049 5.93896 20.5099C6.0892 20.5099 6.23395 20.4893 6.37785 20.4438C6.38819 20.4386 6.44516 20.408 6.4038 20.3618L5.99087 19.8674ZM5.93896 20.459C5.78915 20.459 5.63997 20.4288 5.50028 20.3776L5.92883 19.893C5.9339 19.893 5.9339 19.893 5.93896 19.8882C5.94445 19.8882 5.94972 19.893 5.95457 19.893L6.37321 20.3978C6.2388 20.4438 6.09468 20.4643 5.93896 20.459Z" fill="#BDB4EE"/>
<path fill-rule="evenodd" clip-rule="evenodd" d="M7.50054 21.4175C7.49054 21.4125 7.4747 21.3969 7.4647 21.3867L7.42408 21.3507L7.27616 21.2134L7.26074 21.2236L7.29658 21.3463L7.32741 21.4478C7.33262 21.4786 7.35262 21.5248 7.32741 21.5398L7.33741 21.5546L7.40387 21.509L7.39387 21.4986C7.38324 21.5042 7.36824 21.509 7.35824 21.4892L7.33741 21.4378L7.40387 21.3969L7.4447 21.443C7.45491 21.4582 7.43929 21.4682 7.4347 21.4732L7.43929 21.4892L7.53658 21.4275L7.52595 21.4125C7.52074 21.4175 7.51095 21.4225 7.50054 21.4175ZM7.33262 21.4125L7.3172 21.3507L7.30178 21.3053L7.34762 21.3507L7.38324 21.3819L7.33262 21.4125Z" fill="#BDB4EE"/>
<path fill-rule="evenodd" clip-rule="evenodd" d="M7.47222 18.1854C7.46222 18.2056 7.47701 18.2208 7.47701 18.2414C7.48285 18.2521 7.49285 18.2723 7.50826 18.2671C7.50826 18.2464 7.49805 18.2364 7.49805 18.2208C7.48785 18.211 7.49285 18.1802 7.47222 18.1854Z" fill="#BDB4EE"/>
<path fill-rule="evenodd" clip-rule="evenodd" d="M6.38238 21.2138C6.413 21.219 6.40821 21.2394 6.39779 21.2802L6.36217 21.4332C6.35654 21.4736 6.35175 21.4944 6.32133 21.4896L6.31592 21.5046L6.42842 21.5296V21.5094C6.39779 21.5046 6.40279 21.4842 6.413 21.4482L6.44884 21.2904C6.45842 21.2546 6.45842 21.229 6.49446 21.2394V21.219L6.38738 21.1984L6.38238 21.2138Z" fill="#BDB4EE"/>
<path fill-rule="evenodd" clip-rule="evenodd" d="M7.58507 21.0553C7.58004 21.0403 7.59011 21.0355 7.59556 21.0303L7.58507 21.0146L7.52318 21.0553L7.52843 21.0707C7.55969 21.0553 7.58004 21.0861 7.60081 21.1119L7.67235 21.2188L7.43653 21.1119L7.37988 21.1528L7.39016 21.1676C7.40548 21.1578 7.41576 21.1624 7.43653 21.1728L7.54416 21.3311C7.56451 21.3615 7.57479 21.3767 7.55402 21.3972L7.55969 21.4128L7.62641 21.3665L7.61571 21.3509C7.59011 21.3715 7.56997 21.3361 7.5492 21.3105L7.46674 21.1884L7.729 21.3055L7.74453 21.2955L7.61571 21.1067C7.60563 21.0963 7.59011 21.0707 7.58507 21.0553Z" fill="#BDB4EE"/>
<path fill-rule="evenodd" clip-rule="evenodd" d="M7.7105 20.357C7.74658 20.3164 7.9118 20.1224 7.90104 20.0153C7.91686 20.0001 8.04557 19.8828 8.02532 19.6587C8.05106 19.6226 8.07153 19.5878 8.07659 19.5464C8.10297 19.5003 8.08166 19.4647 8.07659 19.4139C8.07153 19.3833 8.05633 19.368 8.03059 19.3526C7.99957 19.3474 7.88078 19.2103 7.80313 19.2816C7.90104 19.0878 7.92214 19.0162 7.92214 19.0162C7.93226 18.9501 7.89618 18.9145 7.88078 18.8682C7.90652 18.7968 7.85989 18.6797 7.839 18.6035C7.83415 18.5932 7.83415 18.5778 7.83415 18.5678C7.77211 18.506 7.81874 18.4199 7.77211 18.3482C7.76684 18.328 7.68919 18.1853 7.64825 18.1447C7.6223 18.1239 7.59128 18.0987 7.57588 18.068C7.57102 18.0272 7.52924 18.0374 7.49865 18.0374C7.43134 18.0272 7.40032 17.9712 7.39547 17.9614C7.32267 17.8641 7.20915 17.7416 7.14732 17.7012C7.10597 17.6705 7.04921 17.6399 6.96185 17.6299C6.86331 17.5682 6.79136 17.5682 6.77553 17.5637C6.73924 17.5476 6.51747 17.3897 6.34677 17.3749C6.06824 17.3493 6.07837 17.5226 6.07331 17.5637C6.15096 17.7012 6.23874 17.7164 6.23874 17.7164C6.29528 17.7262 6.33706 17.7928 6.39361 17.808C6.4451 17.8282 6.61559 17.8945 6.63585 17.9047C6.66686 17.9151 6.68269 17.9355 6.69324 17.9614C6.71371 17.9914 6.72932 18.0224 6.77047 18.017C6.77047 18.017 6.79136 18.0224 6.97704 18.226C6.94581 18.2768 6.9667 18.2874 6.9667 18.2874C6.9667 18.2874 6.99793 18.2974 7.00279 18.4147H6.99266L6.89939 18.323L6.94054 18.226L6.72932 18.0728L6.64661 18.1393L6.5276 18.0835L6.53288 17.9764L6.28495 17.8945L6.22312 17.9864L6.09462 17.9655L6.06824 17.8641H5.79984L5.77389 17.9655L5.64497 17.9864L5.58799 17.8945L5.33479 17.9764L5.34027 18.0835L5.22612 18.1393L5.14383 18.0728L5.01997 18.1597C5.01997 18.1597 5.04044 18.1084 5.05605 18.0728C5.02503 18.0476 5.0666 18.0224 5.08707 18.0224C5.1337 18.0272 5.16978 18.0016 5.20586 17.9814C5.22148 17.9712 5.40168 17.8945 5.45907 17.8539C5.49536 17.8282 5.53123 17.8028 5.5517 17.7928C5.60888 17.7674 5.65003 17.7316 5.68105 17.6855C5.71207 17.6501 5.73274 17.6145 5.75807 17.5789C5.75807 17.5637 5.76355 17.5476 5.74794 17.5378C5.68105 17.5278 5.62408 17.5582 5.56225 17.5637L5.5517 17.5534C5.58293 17.5022 5.67556 17.4103 5.66564 17.3849C5.64497 17.3441 5.59876 17.3697 5.56225 17.3749C5.23161 17.4307 5.00963 17.6855 5.00963 17.6855C4.9689 17.7262 4.92713 17.7674 4.917 17.7878C4.91151 17.7928 4.89611 17.8028 4.89126 17.7928C4.90624 17.7416 4.90624 17.7059 4.90624 17.6855C4.90624 17.6855 4.90624 17.6347 4.89126 17.6243C4.86551 17.5887 4.79272 17.6347 4.74123 17.6855C4.70473 17.7114 4.61758 17.808 4.59163 17.8489C4.52411 17.9409 4.46207 18.0374 4.4262 18.1447C4.42092 18.1597 4.42092 18.1853 4.39518 18.1903C4.38991 18.1543 4.39518 18.0987 4.36944 18.068C4.34391 18.0424 4.3074 18.0578 4.28187 18.0785C4.24537 18.1239 4.1732 18.2207 4.10083 18.3743C4.03352 18.522 3.96135 18.7155 3.9565 18.9601C3.95102 19.2303 4.11138 19.5103 4.11644 19.5212C4.12172 19.5366 4.12657 19.5516 4.11644 19.5666C4.1061 19.5464 4.09555 19.5366 4.08036 19.5212C4.08036 19.5212 4.00778 19.4293 3.9411 19.3933C3.9048 19.3933 3.89447 19.4139 3.88898 19.4395C3.88413 19.4597 3.87885 19.4903 3.87885 19.5212C3.874 19.7097 3.92548 20.0058 4.00292 20.087C4.05462 20.1941 4.3802 20.5558 4.50385 20.6272C4.61758 20.6935 4.66358 20.8108 4.75706 20.8976C4.78238 20.9128 4.84948 20.9537 4.94759 20.9685C4.9689 20.9843 5.04592 20.9889 5.06175 21.0551C5.05605 21.076 5.05099 21.0962 5.05099 21.1166C5.04044 21.1474 5.03031 21.1779 5.00963 21.2087C4.90138 21.2341 4.84441 21.2287 4.78238 21.1981C4.68974 21.1424 4.57622 21.076 4.48296 21.0199C4.34876 20.9485 4.40067 20.9385 4.41607 20.9024C4.43633 20.8418 4.48296 20.7851 4.47283 20.7139C4.46777 20.6426 4.32302 20.5558 4.3074 20.5403C4.27639 20.5253 4.25064 20.5151 4.24537 20.546C4.23018 20.6018 4.21435 20.6578 4.19409 20.7139C4.0753 20.6426 3.97739 20.6683 3.9411 20.7245C3.93561 20.7647 3.85796 20.9995 3.82209 21.076C3.80141 21.127 3.85311 21.2135 3.89447 21.2695C3.91536 21.3001 4.52411 21.7745 4.89126 21.7745C4.93725 21.7745 5.17485 21.7179 5.23688 21.7083C5.24216 21.7083 5.25313 21.7133 5.24743 21.7233C5.19552 21.7895 5.08707 21.7895 5.04592 21.8764C5.01997 21.8914 4.98895 21.9118 4.96342 21.9272C4.917 21.9531 4.87522 21.9781 4.82416 21.9833C4.77731 21.9935 4.71549 22.0035 4.71549 22.0291C4.74123 22.1108 4.97882 22.1824 5.01997 22.1927C5.08707 22.2129 5.1491 22.1868 5.20059 22.1414C5.22148 22.1208 5.23688 22.0395 5.29364 22.0341C5.3196 22.0139 5.36644 21.9731 5.41771 21.9272C5.47426 21.8816 5.70152 21.7083 5.74308 21.6979C5.77917 21.6362 5.84648 21.5956 5.90788 21.5758L5.9389 21.6012L5.94438 21.6062C6.00621 21.6062 6.08913 21.6212 6.14547 21.5906C6.20751 21.6622 6.29022 21.7335 6.37779 21.7691C6.42421 21.7945 6.49173 21.8662 6.50186 21.8816C6.51747 21.9018 6.53836 21.9272 6.55377 21.9477C6.56389 21.9579 6.57423 21.9579 6.58478 21.9477L6.67235 22.0241C6.68269 22.0291 6.69831 22.0341 6.70843 22.0191C6.71877 22.0191 6.80149 22.1058 6.83736 22.1262C6.87386 22.116 6.87386 22.1614 6.88926 22.1824C6.90488 22.2129 7.11124 22.2074 7.17834 22.0906C7.19881 22.0802 7.22476 22.1008 7.24565 22.0802C7.2714 22.0597 7.35938 22.0191 7.30727 22.0139C7.26063 22.0035 7.23489 21.9685 7.18298 21.9731C7.15745 21.9631 7.14732 21.9272 7.12158 21.9172C7.09056 21.9172 7.01819 21.8864 6.99793 21.8816C6.87386 21.8201 6.82217 21.7539 6.77553 21.7385C6.7654 21.7285 6.7654 21.7083 6.7806 21.7083C6.80634 21.7083 6.95615 21.7179 7.08529 21.7233C7.13699 21.7233 7.18298 21.7233 7.21464 21.7179C7.53473 21.6418 7.84976 21.3766 7.9118 21.336C7.96328 21.2847 8.04051 21.1981 8.04051 21.1576C8.03545 21.0912 7.97341 20.9278 7.94767 20.8468C7.94281 20.8362 7.92214 20.7139 7.8755 20.7139C7.8236 20.6531 7.71535 20.7345 7.67927 20.7245C7.67399 20.7245 7.66893 20.7089 7.66365 20.6883C7.65332 20.6578 7.64319 20.6018 7.63243 20.5662C7.54507 20.5253 7.60204 20.5206 7.6223 20.4949C7.68919 20.4643 7.63791 20.3824 7.7105 20.357ZM6.53288 17.6193C6.4451 17.6093 6.36766 17.5324 6.35205 17.5226L6.33706 17.5534C6.28495 17.5428 6.17142 17.4614 6.17649 17.5022C6.17649 17.5278 6.30077 17.5637 6.33706 17.5989C6.35205 17.5939 6.36766 17.5837 6.38306 17.6043C6.37779 17.6243 6.33179 17.6093 6.35205 17.6347C6.41936 17.6299 6.4816 17.6451 6.54301 17.6551C6.57423 17.6651 6.50186 17.7012 6.50186 17.7164C6.50186 17.7316 6.53288 17.7164 6.54849 17.7059C6.60567 17.6705 6.59491 17.7059 6.63078 17.6959C6.65167 17.6959 6.66687 17.6959 6.67235 17.7114C6.65716 17.7468 6.67235 17.7878 6.66686 17.8282C6.58478 17.8234 6.62065 17.7722 6.59491 17.7772C6.56389 17.7878 6.5276 17.7928 6.49173 17.7978C6.46578 17.7416 6.40374 17.7824 6.36766 17.7468C6.34192 17.7012 6.40923 17.7316 6.41408 17.7164C6.40374 17.6551 6.27988 17.6809 6.2592 17.6705C6.23874 17.6399 6.23388 17.5837 6.18176 17.5837C6.16636 17.5837 6.15096 17.5734 6.1402 17.5582C6.11509 17.5324 6.13534 17.4459 6.18176 17.4512C6.20751 17.4512 6.23874 17.5072 6.2592 17.4564C6.2592 17.4412 6.2592 17.4157 6.27988 17.4103C6.33179 17.4005 6.34677 17.4816 6.39868 17.4614C6.42421 17.4564 6.42421 17.5124 6.46008 17.5022C6.47633 17.4816 6.49658 17.4714 6.51747 17.4816C6.54849 17.487 6.55883 17.5226 6.58478 17.5278C6.60567 17.5476 6.64661 17.5428 6.66686 17.5637C6.67742 17.5682 6.68269 17.5789 6.67742 17.5989C6.70316 17.6299 6.76013 17.5682 6.75528 17.6399C6.71877 17.6551 6.73439 17.6905 6.66686 17.6755C6.61032 17.6705 6.55883 17.6043 6.52275 17.5682C6.50186 17.5734 6.53288 17.6093 6.53288 17.6193ZM6.98232 18.1705C6.95109 18.1191 6.88399 18.0987 6.86331 18.0424C6.85318 17.9655 6.80149 17.9814 6.77047 17.9764C6.7654 17.9712 6.76013 17.9655 6.75528 17.9614C6.73439 17.9355 6.72426 17.9101 6.70316 17.8845C6.70843 17.8641 6.73924 17.8437 6.72932 17.8178C6.68269 17.7772 6.70316 17.6501 6.81183 17.6755C6.84242 17.6809 6.86901 17.6501 6.89939 17.6651C6.91501 17.6809 6.97704 17.6959 6.89454 17.7468C6.88399 17.7468 6.87386 17.7262 6.86331 17.7416C6.86901 17.7622 6.87386 17.7824 6.85825 17.7978C6.82216 17.7772 6.79663 17.7368 6.75528 17.7262C6.74958 17.7262 6.74451 17.7368 6.74958 17.7416C6.7806 17.7772 6.84791 17.7878 6.84791 17.8489C6.83736 17.8745 6.79663 17.8391 6.80149 17.8689C6.81183 17.8793 6.82744 17.8745 6.83736 17.8793C6.84242 17.9101 6.84791 17.9355 6.85318 17.9614C6.86901 17.9914 6.88399 18.0224 6.91986 18.0424C6.94054 18.0935 6.99793 18.1239 6.99793 18.1903C6.98232 18.1953 6.98717 18.1751 6.98232 18.1705ZM6.93611 17.9914C6.93062 17.9814 6.91986 17.9712 6.91015 17.9614C6.89454 17.9409 6.87893 17.9151 6.88926 17.8845C6.94054 17.8595 6.87893 17.7978 6.91501 17.7674C7.02832 17.6651 7.04921 17.7059 7.04921 17.7059C7.06482 17.7368 7.08044 17.7622 7.09056 17.7928C7.10597 17.8178 7.14732 17.7622 7.14732 17.7622C7.15745 17.7824 7.168 17.8028 7.17834 17.8282C7.18889 17.8539 7.23489 17.8489 7.22962 17.8845C7.2197 17.9151 7.18889 17.9251 7.21464 17.9505C7.22476 17.9655 7.22962 17.9864 7.25641 17.9814C7.27625 17.9655 7.26063 17.9101 7.29693 17.9251C7.3022 17.9355 7.30727 17.9505 7.31254 17.9614C7.32816 17.9814 7.33343 18.0016 7.36403 18.0224C7.40559 18.0424 7.32816 18.1085 7.34356 18.1393C7.36951 18.1751 7.34862 18.2364 7.32267 18.267C7.29207 18.2928 7.28173 18.1801 7.3022 18.1291C7.3022 18.1239 7.3022 18.1137 7.29207 18.1137C7.2714 18.1291 7.27625 18.1647 7.26063 18.1801C7.17349 18.0016 7.14247 17.9101 7.14247 17.9101C7.1161 17.9201 7.13698 17.9505 7.13698 17.9712C7.08044 17.9101 7.0338 17.8437 6.9667 17.7928C6.9667 17.7824 6.96185 17.7878 6.95109 17.7878C6.93062 17.7928 7.01291 17.8793 7.0701 17.9505C7.04921 17.9457 7.02832 17.9355 7.00806 17.9505C7.01819 17.9764 7.04921 17.9614 7.06482 17.9712C7.12686 18.0122 7.17349 18.0785 7.20915 18.1345V18.1597C7.18298 18.1543 7.15745 18.1291 7.13171 18.1447C7.14247 18.1647 7.168 18.1705 7.18889 18.1751C7.24565 18.216 7.28173 18.2722 7.29207 18.333C7.28173 18.3432 7.2714 18.3432 7.26063 18.3432C7.24038 18.3124 7.20387 18.302 7.19881 18.267C7.17834 18.2414 7.15745 18.211 7.12158 18.211C7.10597 18.2207 7.08044 18.2364 7.0701 18.211C7.01291 18.1751 7.0701 18.1037 7.00279 18.0785C6.97219 18.0528 6.94054 18.0322 6.93611 17.9914ZM5.14383 18.1447L5.22148 18.2055L5.40716 18.1137L5.40168 18.017L5.56753 17.9614L5.62408 18.0476L5.82559 18.0122L5.85112 17.9201H6.02731L6.05305 18.0122L6.25414 18.0476L6.3109 17.9614L6.47633 18.017L6.47084 18.1137L6.65716 18.2055L6.73439 18.1447L6.87893 18.2464L6.83736 18.3382L6.95615 18.4503C6.97219 18.542 7.00279 18.6082 7.00279 18.6082C7.00279 18.6082 7.0338 18.7005 7.10597 18.6899L7.05933 18.7305C7.15745 19.0112 7.2868 19.0878 7.2868 19.0878L7.31254 19.256L7.41108 19.2816V19.4549C7.41108 19.4549 7.35938 19.5003 7.34862 19.6283C7.31254 19.4903 7.30727 19.4597 7.30727 19.4597C7.28173 19.2403 7.16209 19.2766 7.1161 19.307C7.11124 19.312 7.10133 19.322 7.09056 19.3376C7.09056 19.317 7.09056 19.2966 7.09056 19.2766C7.09056 19.2614 7.08529 19.251 7.08044 19.2403C7.06482 19.2199 7.03908 19.2151 7.01819 19.2253L6.70843 19.3526L6.41936 19.4697C6.41408 19.4747 6.40374 19.4747 6.39868 19.4855C6.37779 19.506 6.37779 19.5366 6.39361 19.5568L6.73439 20.1074C6.74452 20.1172 6.76013 20.1278 6.77553 20.1278C6.79136 20.1278 6.80634 20.1172 6.8171 20.1074C6.93062 19.9545 7.00806 19.7862 7.05406 19.6076C7.05406 19.6178 7.08529 19.6485 7.08044 19.7351C7.09056 19.776 7.12158 19.8318 7.07516 19.8883C7.0701 19.8983 7.05933 19.9241 7.05933 19.9545C7.04921 19.9901 7.04414 20.0358 7.03908 20.051C7.02832 20.102 7.17349 20.1278 7.17834 20.1635L7.08044 20.2958L6.98717 20.2601L6.83736 20.4026L6.87893 20.4949L6.73439 20.5966L6.65716 20.5353L6.47084 20.6272L6.47633 20.7245L6.3109 20.7801L6.25414 20.6935L6.05305 20.7291L6.02731 20.8262H5.85112L5.82559 20.7291L5.62408 20.6935L5.56753 20.7801L5.40168 20.7245L5.40716 20.6272L5.22148 20.5353L5.14383 20.5966L5.00478 20.4949L5.04044 20.4026L4.89611 20.2601L4.7982 20.2958L4.75706 20.2347C4.78807 20.1687 4.84441 19.7605 4.83407 19.6787C4.88049 19.8422 4.95814 19.9951 5.06175 20.1326C5.0666 20.1433 5.07694 20.1481 5.09213 20.1524C5.11302 20.1583 5.13898 20.1481 5.1491 20.1278L5.29871 19.8883L5.48502 19.5822C5.49009 19.5772 5.49536 19.5666 5.49536 19.5616C5.50022 19.531 5.48502 19.506 5.45907 19.4953L5.29364 19.4293L4.84948 19.251C4.83407 19.2453 4.81867 19.251 4.80833 19.2614C4.79272 19.2662 4.78807 19.2816 4.78807 19.2966C4.78807 19.322 4.78807 19.3474 4.78807 19.368C4.77204 19.3424 4.73574 19.3376 4.71042 19.363C4.68974 19.3883 4.65873 19.4647 4.62792 19.5212C4.60703 19.5568 4.59163 19.5878 4.58108 19.5822L4.57137 19.5212L4.56546 19.4855L4.46777 19.4597V19.2864L4.56546 19.2614L4.58635 19.1287L4.59648 19.0574L4.56546 19.0368C4.59163 19.0008 4.86003 18.7262 4.87037 18.5012L4.99929 18.3743L5.04044 18.3382L5.00478 18.2464L5.14383 18.1447ZM7.54507 19.5516C7.54 19.5666 7.49337 19.5366 7.46721 19.5416C7.41108 19.5822 7.43682 19.6437 7.44147 19.6995C7.41593 19.6895 7.37437 19.6687 7.36951 19.6533C7.36403 19.6026 7.37985 19.5464 7.40032 19.5103C7.42058 19.4697 7.55499 19.5416 7.52924 19.3526C7.52924 19.3474 7.52924 19.3424 7.52924 19.3376C7.53473 19.3424 7.54 19.3474 7.54507 19.3526C7.58622 19.4087 7.56068 19.4903 7.54507 19.5516ZM7.24565 20.0208C7.25072 20.0306 7.24565 20.0412 7.24565 20.051C7.18889 20.0258 7.20387 19.9951 7.14732 19.9951C7.13699 19.9951 7.13698 20.0058 7.14247 20.0103C7.18298 20.0258 7.22476 20.0664 7.23489 20.1124C7.22476 20.1278 7.20915 20.1378 7.19375 20.1326C7.15745 20.0562 7.09056 20.087 7.08529 20.0614C7.09056 20.0258 7.09056 19.9849 7.10132 19.9489C7.11124 19.8776 7.19881 19.8422 7.20915 19.801C7.22962 19.8266 7.22962 19.9339 7.22962 19.9545C7.22962 19.9795 7.22476 20.0001 7.24565 20.0208ZM7.11124 19.6635C7.1161 19.6533 7.13171 19.6533 7.12686 19.6437C7.1161 19.6283 7.12158 19.6178 7.08529 19.6076C7.04921 19.5974 7.05933 19.5464 7.0701 19.5366C7.08529 19.5516 7.10597 19.5568 7.12686 19.5516C7.15745 19.5366 7.17834 19.5822 7.168 19.5974C7.14732 19.6283 7.17834 19.6687 7.14247 19.6895C7.14247 19.7043 7.14732 19.7197 7.14732 19.7351C7.15745 19.766 7.16209 19.801 7.13171 19.8216C7.10133 19.801 7.14732 19.7605 7.11124 19.7403C7.11124 19.7351 7.11124 19.7351 7.11124 19.7351C7.10132 19.7097 7.11124 19.6843 7.11124 19.6635ZM7.0338 19.4549C7.00806 19.6787 6.91986 19.893 6.7806 20.0818C6.77553 20.0818 6.77553 20.0818 6.77047 20.0768L6.4297 19.531C6.42421 19.531 6.42421 19.5212 6.43497 19.5103L6.82744 19.3526L7.04414 19.2662C7.04414 19.2662 7.04414 19.271 7.04414 19.2766C7.04414 19.3376 7.04414 19.3987 7.0338 19.4549ZM7.21464 19.6437C7.22476 19.6437 7.2197 19.6947 7.21464 19.7351C7.20915 19.7453 7.20915 19.7553 7.20915 19.7605C7.20387 19.7605 7.19881 19.7505 7.19375 19.7351C7.19375 19.7249 7.18889 19.6383 7.21464 19.6437ZM7.2868 19.9545C7.29207 19.9241 7.2868 19.8883 7.30727 19.8674C7.30727 19.8574 7.30727 19.8522 7.29693 19.8472C7.28173 19.8522 7.26591 19.9085 7.26063 19.9185C7.23489 19.8883 7.25641 19.8318 7.23489 19.7962C7.23489 19.776 7.23489 19.7553 7.23489 19.7351C7.24038 19.6533 7.26063 19.5722 7.20915 19.5103C7.20915 19.4903 7.18889 19.4039 7.18298 19.378C7.17349 19.3733 7.168 19.3833 7.168 19.3883C7.168 19.4139 7.18889 19.5103 7.19375 19.5366C7.17349 19.526 7.13699 19.5103 7.1161 19.526C7.10133 19.506 7.09563 19.4803 7.09563 19.4597L7.08529 19.3987C7.12158 19.378 7.13171 19.3474 7.16209 19.3274C7.18298 19.3326 7.18889 19.358 7.2197 19.3526C7.23489 19.3474 7.25072 19.3326 7.25641 19.3526C7.2714 19.3883 7.24038 19.4237 7.24565 19.4549C7.24565 19.4597 7.24565 19.4647 7.25072 19.4697L7.28173 19.4597C7.29207 19.4697 7.29693 19.4855 7.2868 19.5003C7.2714 19.5616 7.34356 19.6226 7.3022 19.6533C7.25641 19.6843 7.27625 19.7453 7.28173 19.7605C7.31782 19.7553 7.32267 19.7043 7.35938 19.7197C7.37437 19.7351 7.41593 19.9028 7.34862 19.9339C7.30727 19.9647 7.32267 20.0306 7.28173 20.0664C7.2714 20.0412 7.2868 19.9647 7.2868 19.9545ZM7.49865 19.3526C7.49865 19.368 7.49865 19.4237 7.46721 19.4293V19.256C7.46721 19.256 7.52397 19.256 7.49337 19.3014C7.49337 19.3274 7.49865 19.3526 7.49865 19.3526ZM6.26427 21.0706C6.26427 21.0401 6.29528 21.0095 6.32124 20.9941C6.34677 20.9793 6.42421 20.9433 6.50186 20.9129C6.57951 20.8872 6.74958 20.7851 6.7654 20.8718C6.77047 20.8872 6.76013 20.9024 6.74958 20.9129C6.74451 20.9129 6.74452 20.9129 6.73924 20.9129C6.69831 20.9174 6.65167 20.9433 6.59977 20.9333C6.56875 20.9485 6.44046 21.0608 6.38813 21.0706C6.36766 21.0812 6.33706 21.086 6.34677 21.0551C6.34677 21.0247 6.27988 21.0706 6.26427 21.0706ZM6.74452 20.7903C6.6983 20.7903 6.52275 20.8618 6.41408 20.9129C6.36766 20.9279 6.33706 20.9433 6.32651 20.9485C6.26427 20.9739 6.2592 21.0199 6.21257 21.0608C6.17142 21.0656 6.1402 21.0706 6.10918 21.0401C6.08386 20.9995 6.00093 21.0199 5.9908 21.0247C5.97013 21.0401 5.95451 21.0301 5.9389 21.0247C5.92392 21.0145 5.90788 21.0047 5.88762 21.0047C5.84099 21.0095 5.78402 21.0095 5.75321 21.0504C5.73274 21.0656 5.67092 21.0706 5.63463 21.0095C5.56753 20.9231 5.43818 20.8618 5.35061 20.8362C5.31453 20.8208 5.28351 20.816 5.27296 20.8108C5.24216 20.8058 5.19046 20.8058 5.13898 20.8976C4.86551 20.7443 4.83914 20.4997 4.83914 20.4997C4.77731 20.3776 4.77204 20.3672 4.77204 20.3672L4.88049 20.3262L4.97355 20.4183L4.9324 20.5151L5.14383 20.6683L5.23161 20.6018L5.34492 20.6578L5.34027 20.7647L5.59327 20.8468L5.65003 20.7547L5.77917 20.7753L5.80512 20.8824H6.07331L6.09926 20.7753L6.22861 20.7547L6.28495 20.8468L6.53836 20.7647L6.53288 20.6578L6.64661 20.6018L6.73439 20.6683L6.94581 20.5151L6.90488 20.4183L6.99793 20.3262L7.08529 20.357C7.08529 20.357 7.10597 20.3672 7.00806 20.4745C7.00806 20.4745 6.9667 20.6833 6.80149 20.8618C6.7806 20.8418 6.77553 20.8008 6.74452 20.7903ZM5.65003 21.0812C5.65531 21.086 5.64497 21.0962 5.63463 21.1014C5.63463 21.1014 5.61901 21.1066 5.52617 21.086C5.47954 21.076 5.41244 21.0145 5.38606 21.0247C5.37615 21.0247 5.36644 21.0199 5.35061 21.0145C5.28837 20.9941 5.20059 20.9279 5.18033 20.9129C5.16978 20.9074 5.20586 20.8418 5.29871 20.8568C5.3196 20.8618 5.35061 20.8718 5.35061 20.8718C5.42278 20.8976 5.56753 20.9637 5.65003 21.0812ZM4.75157 19.5212C4.75706 19.4803 4.75706 19.4549 4.75157 19.4395L4.74651 19.4293C4.74123 19.4341 4.73131 19.4697 4.72583 19.5212C4.70473 19.6895 4.68974 20.0306 4.70473 20.2091C4.70473 20.2347 4.71042 20.3164 4.69966 20.3164H4.68426C4.65873 20.2853 4.67941 20.2447 4.66864 20.2043C4.65366 20.1524 4.6429 20.0972 4.63256 20.0412C4.63256 20.0306 4.63256 20.0208 4.63256 20.0103C4.58635 19.9393 4.62265 19.6843 4.67434 19.5212C4.69966 19.4341 4.72583 19.3733 4.74651 19.378C4.77731 19.3833 4.7982 19.4443 4.80833 19.5212C4.82416 19.6533 4.80833 19.8422 4.77731 19.8828C4.77204 19.9439 4.76718 20.0103 4.75706 20.0714C4.75706 20.0918 4.77204 20.1124 4.74123 20.1124C4.73131 20.1124 4.73574 20.087 4.74123 20.0768C4.69966 20.0306 4.74123 19.6843 4.75157 19.5212ZM4.27639 19.531C4.29727 19.5366 4.30234 19.531 4.3074 19.5212C4.31247 19.5103 4.31774 19.4953 4.32302 19.4903C4.36944 19.4903 4.43147 19.4855 4.45679 19.5153C4.45679 19.5212 4.45679 19.5212 4.45679 19.5212C4.47283 19.5666 4.47283 19.6076 4.48296 19.6485C4.49309 19.6995 4.36944 19.7149 4.36459 19.7505C4.36944 19.8066 4.40594 19.8574 4.38463 19.9185C4.36944 19.8626 4.32302 19.801 4.31774 19.7351C4.26626 19.6333 4.27132 19.5666 4.27639 19.531ZM4.29727 19.1287C4.33336 18.9299 4.4262 18.7716 4.47283 18.7564C4.47832 18.7864 4.44688 18.8174 4.4262 18.8426C4.38991 18.9349 4.35889 19.0314 4.32829 19.1287C4.31774 19.1793 4.30234 19.2303 4.29221 19.2816L4.28694 19.2766C4.28694 19.2253 4.29221 19.1743 4.29727 19.1287ZM4.36944 19.1233C4.3802 18.8739 4.78238 18.4097 4.84948 18.4043C4.917 18.4043 4.70473 18.8485 4.57137 18.9651C4.52959 19.0214 4.47283 19.0722 4.43147 19.1287C4.4262 19.1439 4.41607 19.1641 4.4108 19.1793C4.40594 19.1847 4.40067 19.1895 4.38991 19.1895C4.38991 19.1743 4.39518 19.1541 4.4108 19.1287C4.47832 18.9651 4.73574 18.6189 4.81867 18.486C4.81867 18.486 4.82922 18.4657 4.80833 18.4705C4.80833 18.4705 4.63256 18.6289 4.38991 19.1287L4.35404 19.2051L4.34391 19.2151C4.34876 19.1847 4.34876 19.1487 4.36944 19.1233ZM4.917 18.3743L4.88556 18.4043C4.88049 18.3997 4.88049 18.3893 4.88049 18.3793C4.89126 18.3482 4.94759 18.302 4.95814 18.2874L4.97355 18.328L4.917 18.3743ZM4.77731 18.3839C4.75157 18.4349 4.69966 18.486 4.65366 18.5012C4.68974 18.4453 4.74123 18.3793 4.74123 18.3793C4.80284 18.2974 4.88556 18.1903 4.9324 18.1291L4.94759 18.1191C4.9689 18.1647 4.88049 18.323 4.77731 18.3839ZM4.52959 19.1287L4.51398 19.2151L4.4108 19.2403V19.4597C4.4108 19.4597 4.3802 19.4497 4.35404 19.4443C4.33842 19.3733 4.34876 19.3326 4.34876 19.3326C4.35889 19.2864 4.40067 19.2353 4.45152 19.1947C4.46777 19.1847 4.48802 19.1591 4.50385 19.1287C4.51398 19.113 4.52411 19.0978 4.53487 19.0826L4.52959 19.1287ZM4.45679 19.7505C4.45679 19.7705 4.45152 19.7962 4.43633 19.7962C4.4262 19.801 4.4108 19.7914 4.4108 19.781C4.39518 19.7403 4.45152 19.7453 4.45679 19.7505ZM4.40594 20.0412C4.4262 19.9439 4.46207 19.8522 4.48802 19.8168C4.47832 19.776 4.56061 19.6383 4.59648 19.6076L4.60154 19.6126C4.61231 19.776 4.48802 19.8828 4.46207 20.0306C4.46207 20.0358 4.46207 20.0358 4.46207 20.0412C4.44688 20.1278 4.40594 20.2195 4.43633 20.3064C4.44688 20.3262 4.48802 20.3262 4.51398 20.2958C4.545 20.3416 4.52959 20.4081 4.53972 20.4591L4.53487 20.4643C4.50385 20.4693 4.50385 20.3672 4.49309 20.357C4.48296 20.357 4.47832 20.3776 4.44688 20.3518C4.3802 20.291 4.3802 20.1583 4.40594 20.0412ZM4.49309 20.0412C4.49309 20.0412 4.49815 20.0001 4.50891 19.9489L4.56061 19.8372C4.63763 19.8472 4.53487 20.0153 4.51946 20.0412C4.50891 20.0562 4.49815 20.0664 4.49309 20.0664C4.48802 20.0664 4.48802 20.0562 4.49309 20.0412ZM4.53487 20.0768C4.53972 20.0664 4.55048 20.051 4.55576 20.0412C4.56546 20.0306 4.57137 20.0208 4.58635 20.0103C4.58108 20.0208 4.58108 20.0306 4.58108 20.0412C4.57622 20.0768 4.56546 20.1074 4.56061 20.1481C4.545 20.1687 4.51946 20.1074 4.53487 20.0768ZM4.83407 19.2966H4.83914L5.29364 19.4803L5.44346 19.5366C5.44894 19.5366 5.45401 19.5464 5.44894 19.5568L5.29364 19.8066L5.10796 20.1074C5.10796 20.1124 5.10796 20.1124 5.09741 20.1074C4.9689 19.9285 4.88049 19.7301 4.84948 19.5212C4.83914 19.4497 4.83407 19.3733 4.83407 19.2966ZM5.04044 18.0122C5.04044 18.0016 5.04592 17.9914 5.05099 17.9814C5.08221 17.9355 5.1491 17.9001 5.13898 17.9505C5.1337 17.9614 5.12294 17.9712 5.10796 17.9764C5.08221 17.9968 5.05099 18.0122 5.04044 18.0122ZM5.707 17.5837C5.69139 17.6193 5.62408 17.6809 5.60888 17.6855C5.5517 17.7368 5.44346 17.8028 5.35589 17.8539C5.28837 17.8897 5.22612 17.9201 5.21114 17.9251C5.20059 17.9303 5.14383 17.9101 5.23161 17.8595C5.23688 17.8539 5.24216 17.8539 5.25313 17.8489C5.30905 17.8234 5.43333 17.7468 5.53123 17.6855C5.58799 17.6551 5.63463 17.6243 5.66564 17.6093C5.66564 17.6093 5.66564 17.5989 5.66016 17.5989C5.61901 17.6145 5.5517 17.6451 5.47954 17.6855C5.38606 17.7316 5.28351 17.7928 5.19046 17.8489C5.10796 17.9001 5.04044 17.9457 4.99929 17.9764C4.99423 17.9814 4.98895 17.9864 4.98389 17.9864C4.97882 17.9968 4.95814 18.0016 4.94759 17.9914C4.95814 17.9712 4.98389 17.9655 4.99929 17.9505C5.02503 17.9201 5.0666 17.8845 5.11302 17.8539C5.19552 17.7878 5.29871 17.7262 5.37615 17.6855C5.42278 17.6601 5.69139 17.5378 5.707 17.5837ZM4.82416 18.0882C4.74123 18.1597 4.65366 18.2768 4.58108 18.3793C4.58108 18.3793 4.51398 18.476 4.46777 18.5572C4.46777 18.5572 4.46207 18.5572 4.45152 18.542C4.45679 18.5268 4.49815 18.4603 4.55576 18.3743C4.65366 18.2312 4.79272 18.0424 4.81867 17.9968C4.83407 17.9864 4.85496 17.9814 4.86551 17.9764C4.84948 18.017 4.81867 18.0424 4.79272 18.0785C4.80833 18.0835 4.8136 18.0834 4.82416 18.0882ZM4.93725 18.0224C4.9324 18.0272 4.83914 18.0935 4.83914 18.0785C4.83914 18.0578 4.9689 17.9712 4.93725 18.0224ZM4.89611 17.9457C4.90138 17.9251 4.93725 17.8845 4.97882 17.8489C5.02503 17.808 5.06175 17.7878 5.07188 17.7928C5.07188 17.808 5.06175 17.8234 5.03031 17.8489C5.00478 17.8745 4.9689 17.9001 4.95287 17.9047C4.94759 17.9303 4.90138 17.9614 4.89611 17.9457ZM5.05605 17.6855C5.28351 17.4664 5.59876 17.4053 5.61374 17.4103V17.4205C5.53609 17.5072 5.45401 17.5887 5.35589 17.6451C5.34027 17.6551 5.31453 17.6755 5.29364 17.6855C5.23161 17.7262 5.1337 17.7674 5.11302 17.7772C5.10796 17.7772 5.10289 17.7772 5.10289 17.7674C5.10289 17.7622 5.1491 17.7262 5.20586 17.6855C5.29364 17.6243 5.52617 17.487 5.53609 17.4564C5.40716 17.5176 5.28351 17.5989 5.16472 17.6855C5.13898 17.7059 5.10796 17.7262 5.08221 17.7468C5.08221 17.7416 5.07694 17.7368 5.07188 17.7316C5.05605 17.7316 4.99423 17.7978 4.95287 17.8489C4.93725 17.8689 4.92185 17.8845 4.91151 17.8945C4.91151 17.8793 4.92185 17.8641 4.9324 17.8489C4.9324 17.8437 4.97882 17.7468 5.05605 17.6855ZM4.6429 17.8489C4.71042 17.7622 4.77204 17.7114 4.81361 17.6855C4.81361 17.6855 4.84948 17.6651 4.87037 17.6601C4.87037 17.6651 4.87037 17.6755 4.87037 17.6855C4.86551 17.7368 4.84948 17.7928 4.82416 17.8489C4.74651 18.0424 4.59163 18.267 4.49815 18.3793C4.48296 18.3997 4.46777 18.4147 4.45679 18.4247C4.45679 18.4097 4.46207 18.3943 4.46777 18.3793C4.50385 18.252 4.64839 18.0016 4.75157 17.8489C4.76718 17.8234 4.78807 17.7978 4.80284 17.7772C4.82416 17.7416 4.86003 17.7012 4.83914 17.6959C4.81867 17.7012 4.7982 17.7316 4.78807 17.7522C4.76718 17.7772 4.73574 17.8132 4.71042 17.8489C4.60703 18.0068 4.48296 18.2568 4.43147 18.3743C4.42092 18.3997 4.41607 18.4199 4.4108 18.4299C4.39518 18.4503 4.38991 18.4705 4.37471 18.486C4.38463 18.4503 4.39518 18.4097 4.40594 18.3743C4.47832 18.1239 4.56546 17.9559 4.6429 17.8489ZM4.16814 19.4697C4.12172 19.4855 4.09555 19.3883 4.09555 19.3883C3.99744 19.0672 3.98224 18.6643 4.16814 18.3743C4.1732 18.3687 4.26119 18.1705 4.33842 18.0987C4.34876 18.0987 4.34876 18.1085 4.35404 18.1191C4.36459 18.1903 4.32829 18.3535 4.32302 18.3743C4.30234 18.4705 4.19874 18.8739 4.16814 18.9705C4.15801 19.0162 4.14746 19.0574 4.14219 19.103C4.12172 19.0826 4.14219 19.052 4.14219 19.0264C4.12657 18.8887 4.24537 18.4453 4.26626 18.3743C4.29221 18.3124 4.31247 18.252 4.32302 18.1801L4.3074 18.1953C4.29221 18.2568 4.26626 18.3176 4.24537 18.3793C4.1732 18.5828 4.09555 18.7918 4.1061 19.0264C4.0753 19.1487 4.08036 19.2864 4.12172 19.3987C4.21984 19.4903 4.17827 19.3424 4.19409 19.2916C4.19874 19.251 4.23524 19.2151 4.22511 19.1691C4.23018 19.103 4.24537 19.0468 4.27639 18.9903C4.26626 18.9858 4.26119 18.9808 4.25613 18.9705C4.25613 18.9601 4.25613 18.9447 4.26119 18.9299C4.3074 18.9041 4.32829 18.7612 4.35889 18.7612C4.35889 18.746 4.36944 18.7305 4.35889 18.7155C4.34391 18.7205 4.32302 18.7305 4.31774 18.7053C4.33336 18.6493 4.32302 18.5828 4.37471 18.547C4.37471 18.547 4.37471 18.5168 4.44688 18.4349C4.44688 18.476 4.33336 18.6082 4.35404 18.6701C4.35889 18.6797 4.36944 18.6751 4.3802 18.6751C4.40067 18.6643 4.40067 18.6189 4.43147 18.6235C4.43147 18.6543 4.36459 18.6849 4.42092 18.7053C4.50891 18.6543 4.52959 18.5678 4.52959 18.5678C4.55048 18.4812 4.59163 18.4299 4.63256 18.3743C4.74123 18.2007 4.86551 18.1084 4.95814 18.0528C4.97355 18.0374 4.99423 18.0424 4.99423 18.063C4.99423 18.0728 4.97882 18.1191 4.95814 18.0882C4.89126 18.1393 4.77204 18.2974 4.71549 18.3743C4.71549 18.3743 4.68426 18.3893 4.52411 18.6493C4.49815 18.6899 4.46207 18.7355 4.41607 18.7512C4.4108 18.746 4.40067 18.7355 4.39518 18.746C4.38991 18.7564 4.31774 18.9447 4.26626 19.1287C4.2403 19.2199 4.21984 19.312 4.21435 19.378C4.21435 19.3987 4.20907 19.4187 4.22511 19.4341C4.28187 19.3987 4.29221 19.3376 4.32302 19.2864C4.32829 19.2816 4.33842 19.2864 4.33842 19.2916C4.31247 19.3474 4.3074 19.4697 4.22511 19.4597C4.22511 19.4697 4.21984 19.4903 4.21984 19.5212C4.21984 19.5772 4.22511 19.6485 4.26119 19.6995C4.27132 19.7097 4.31774 19.9393 4.37471 20.0001C4.38463 20.0153 4.3802 20.0258 4.37471 20.0306C4.37471 20.0306 4.36944 20.0412 4.36459 20.0464C4.35404 20.0358 4.34876 20.0306 4.34391 20.0208C4.31247 19.9795 4.29221 19.9285 4.27132 19.8776C4.27132 19.8626 4.28694 19.8574 4.28187 19.8472C4.26119 19.8318 4.24537 19.8216 4.2403 19.8066C4.23524 19.7862 4.27639 19.7914 4.26626 19.7705C4.25064 19.7453 4.19874 19.7705 4.20422 19.7351C4.20907 19.6587 4.18903 19.5922 4.1732 19.5212C4.1732 19.506 4.16814 19.4855 4.16814 19.4697ZM4.22511 18.9705C4.21984 19.0162 4.23017 19.0672 4.20422 19.113C4.18354 19.1487 4.20907 19.1997 4.1732 19.2303C4.17827 19.1591 4.18903 19.0468 4.20422 18.9705C4.20422 18.9705 4.21435 18.9299 4.29221 18.7103C4.32829 18.7664 4.27132 18.9041 4.24537 18.9145C4.23524 18.9299 4.23018 18.9501 4.22511 18.9705ZM4.27132 19.9647C4.28187 19.9697 4.3074 20.0001 4.32829 20.0412C4.33842 20.0614 4.34876 20.087 4.35889 20.1074L4.35404 20.1785H4.34391C4.32829 20.1326 4.31247 20.087 4.29727 20.0412C4.29221 20.0153 4.28187 19.9901 4.27132 19.9647ZM4.98895 20.9129C4.96891 20.9024 4.95814 20.8924 4.9324 20.8768C4.94253 20.8568 4.92713 20.8468 4.917 20.8468C4.91151 20.8666 4.89125 20.8768 4.87522 20.8824C4.86551 20.8824 4.84441 20.8824 4.83914 20.8718C4.85496 20.8718 4.87037 20.8666 4.87522 20.8516C4.87522 20.8362 4.87522 20.8208 4.86551 20.816C4.84441 20.8208 4.85496 20.8568 4.82416 20.8618C4.73574 20.8262 4.61758 20.6426 4.60154 20.6116C4.57622 20.5862 4.55576 20.6068 4.52959 20.5966C4.50891 20.5916 4.33842 20.4131 4.29727 20.3672C3.95101 20.0058 3.94637 19.8422 3.9411 19.6737C3.9411 19.6226 3.93076 19.5722 3.93076 19.5212C3.93076 19.506 3.93076 19.4903 3.93561 19.4747C3.95101 19.4443 3.99744 19.506 4.01326 19.5212C4.09555 19.6178 4.19874 19.8626 4.23524 19.9849C4.2403 20.0001 4.24537 20.0208 4.25064 20.0358C4.26119 20.0818 4.27132 20.1224 4.28187 20.1635C4.25613 20.1481 4.24537 20.1124 4.23018 20.087C4.22511 20.0714 4.21435 20.0818 4.20422 20.0818C4.19409 20.0664 4.18354 20.051 4.17827 20.0358C4.09112 19.8828 4.03352 19.7197 3.99237 19.5516L3.97739 19.5416C3.9565 19.5416 3.98752 19.6787 4.04934 19.8266C4.03352 19.8266 4.0236 19.8066 4.00778 19.8168C4.00292 19.8728 4.13206 19.9849 4.14746 20.0412C4.14746 20.0464 4.14746 20.051 4.14746 20.0562C4.22511 20.1583 4.28187 20.2706 4.34391 20.3776C4.36459 20.4131 4.40594 20.4331 4.42092 20.4693C4.43147 20.4795 4.45152 20.4745 4.45679 20.4949C4.47832 20.5253 4.48802 20.5558 4.52411 20.5708C4.55048 20.5766 4.55576 20.5814 4.56061 20.5608C4.56061 20.5403 4.545 20.5253 4.545 20.4997C4.55576 20.5253 4.57622 20.5353 4.59648 20.546L4.6429 20.5306C4.65873 20.5558 4.63256 20.5814 4.63256 20.6068C4.67434 20.6578 4.77731 20.8058 4.7982 20.7801C4.82922 20.7395 4.84948 20.8262 4.87037 20.7801C4.88049 20.7595 4.86551 20.7395 4.84948 20.7345C4.78238 20.7547 4.78238 20.6683 4.75157 20.6372C4.71549 20.5708 4.71042 20.4893 4.65366 20.4331C4.59648 20.357 4.56061 20.2756 4.49309 20.2143C4.48296 20.2043 4.49309 20.1785 4.50891 20.1737C4.54499 20.1785 4.52959 20.2447 4.57137 20.2447C4.59163 20.2447 4.58108 20.1887 4.60703 20.1785C4.59648 20.2503 4.66358 20.4081 4.7617 20.4643C4.77204 20.4745 4.78807 20.4893 4.78238 20.5049C4.77731 20.5151 4.76718 20.4997 4.7617 20.5049C4.75157 20.5306 4.78807 20.5353 4.78807 20.551C4.78807 20.6628 5.09213 20.9889 5.32466 21.0301C5.32972 21.0401 5.34027 21.0454 5.35061 21.0504C5.37087 21.0608 5.40716 21.0608 5.39703 21.1014C5.40716 21.1066 5.42278 21.1166 5.42278 21.132C5.39218 21.1424 5.37087 21.1424 5.35061 21.137C5.3196 21.137 5.29364 21.127 5.27824 21.1166C5.24743 21.1066 5.0149 20.9174 4.98895 20.9129ZM5.10289 21.0812C5.11809 21.086 5.1491 21.1014 5.16978 21.1166C5.19046 21.137 5.21114 21.1526 5.20586 21.1576C5.21114 21.1674 5.10289 21.1933 5.0666 21.1981C5.07694 21.1726 5.08707 21.1474 5.09213 21.1166C5.09741 21.1066 5.09741 21.0962 5.10289 21.0812ZM4.28187 20.5814C4.28694 20.5814 4.29727 20.5862 4.3074 20.5916C4.33336 20.6018 4.35404 20.6172 4.37471 20.6372C4.36944 20.6531 4.34876 20.622 4.33336 20.6372C4.32302 20.6478 4.39518 20.6833 4.38463 20.7089C4.3802 20.7139 4.34391 20.6683 4.33842 20.6833C4.32302 20.7089 4.32829 20.7245 4.31247 20.7495C4.31247 20.7495 4.3074 20.7495 4.30234 20.7495C4.28187 20.7495 4.26119 20.7495 4.23018 20.7395C4.23018 20.6883 4.25613 20.622 4.28187 20.5814ZM4.18903 20.7443C4.21435 20.7647 4.25613 20.7851 4.3074 20.8008C4.33842 20.8058 4.37471 20.816 4.41607 20.816C4.40594 20.8468 4.36944 20.9333 4.35889 20.9485C4.33842 20.9433 4.31774 20.9333 4.30234 20.9231C4.28694 20.9074 4.27132 20.8976 4.25064 20.8824C4.2403 20.8768 4.27132 20.8568 4.25064 20.8418C4.25064 20.8362 4.26119 20.8312 4.26119 20.8312C4.29727 20.8468 4.29727 20.8208 4.28694 20.816C4.22511 20.7851 4.16814 20.7595 4.1061 20.7245C4.13206 20.7291 4.16244 20.7395 4.18903 20.7443ZM5.29871 21.9118C5.29364 21.9118 5.29364 21.9227 5.28837 21.9272C5.27296 21.9579 5.23161 22.0089 5.19552 22.0191C5.15944 22.0241 5.13898 21.9935 5.1337 22.0191C5.12821 22.0495 5.16978 22.0291 5.18033 22.0547C5.20059 22.1108 5.1491 22.1414 5.1337 22.1464C5.14383 22.0341 5.03579 22.0241 4.99929 22.0191C4.99929 22.0191 4.90138 22.0495 4.91151 22.0139C4.91151 21.9781 4.99929 21.9579 5.05605 21.9272C5.06175 21.9227 5.0666 21.9227 5.07188 21.9172C5.10289 21.8354 5.19552 21.8099 5.26262 21.7795C5.28837 21.7895 5.33479 21.8202 5.38606 21.7491C5.36644 21.7233 5.39703 21.7133 5.40716 21.7133C5.42278 21.7133 5.40168 21.7285 5.40716 21.7385C5.43818 21.7385 5.44894 21.7083 5.47426 21.7083C5.49009 21.7029 5.48502 21.7179 5.49009 21.7233C5.50022 21.7335 5.51034 21.7179 5.52111 21.7233C5.53609 21.7285 5.39218 21.8764 5.29871 21.9118ZM5.9389 21.5349C5.79457 21.5499 4.99423 21.6824 4.917 21.6931C4.82416 21.7083 4.74123 21.6979 4.68974 21.6722C4.62792 21.6468 3.96663 21.2847 3.89974 21.1576C3.88898 21.137 3.87885 21.1066 3.87885 21.1066L3.88898 21.127L3.93076 21.1576L3.9411 21.1424C3.90987 21.127 3.92 21.1066 3.94637 21.076L3.98752 21.0247C3.99744 21.0301 3.99237 21.0551 3.99237 21.0812L3.97739 21.1883L4.03352 21.2237L4.04428 21.2087C4.03352 21.2035 4.03352 21.1981 4.03352 21.1831L4.04428 21.0454C4.0753 21.0551 4.1061 21.0454 4.13206 21.0095C4.14219 20.9995 4.14746 20.9843 4.14746 20.9739C4.15253 20.9589 4.15253 20.9433 4.14746 20.9333C4.1367 20.9174 4.11644 20.9024 4.1061 20.8924L4.05968 20.8618L4.01326 20.8312L4.00292 20.8468C4.02888 20.8618 4.01854 20.8824 3.99744 20.9129L3.9565 20.9739L3.9048 21.0454C3.89447 21.0608 3.88413 21.0706 3.87885 21.0812C3.87885 21.0812 3.87885 21.086 3.87885 21.0912C3.874 21.0706 3.874 21.0551 3.88413 21.0454C3.93561 20.9537 3.9565 20.8468 3.98224 20.7495C3.99237 20.7245 4.01326 20.7291 4.0236 20.7245C4.01326 20.7345 4.01326 20.7495 4.01854 20.7647C4.02888 20.7801 4.15252 20.8618 4.30234 20.9485C4.54499 21.0962 4.84948 21.2695 4.86003 21.2599C4.90138 21.2599 5.12294 21.2187 5.35061 21.1831C5.57766 21.1474 5.8201 21.1118 5.87749 21.1166C5.89775 21.1166 5.91864 21.1474 5.9389 21.1883C5.97498 21.2747 6.00621 21.4072 6.01655 21.4583C6.00621 21.5449 5.9389 21.5349 5.9389 21.5349ZM4.09112 20.9739C4.09112 20.9739 4.08585 20.9793 4.08585 20.9843C4.05462 21.0247 4.03352 21.0301 4.00778 21.0095L3.99744 21.0047L4.01854 20.9739L4.03879 20.9385C4.04428 20.9279 4.06475 20.9024 4.06475 20.8976C4.07002 20.8976 4.08036 20.9024 4.08585 20.9024C4.1061 20.9174 4.1061 20.9433 4.09112 20.9739ZM6.20286 21.5043C6.16636 21.4583 6.23388 21.341 6.18176 21.341C6.16636 21.3464 6.18176 21.3664 6.18176 21.382C6.16087 21.4329 6.16087 21.4941 6.11509 21.5293C6.10411 21.5293 6.10411 21.5195 6.10918 21.5091C6.125 21.4635 6.14547 21.4176 6.1402 21.3664C6.13534 21.3664 6.11509 21.3464 6.11509 21.402C6.11509 21.4431 6.07331 21.4733 6.06824 21.5139C6.06824 21.5293 6.03701 21.5449 6.01655 21.5449C6.01655 21.4893 6.05305 21.4479 6.05305 21.392C6.07331 21.3614 6.07837 21.4072 6.07837 21.4072C6.08913 21.392 6.09462 21.2087 6.02224 21.1726C6.01127 21.1831 6.06824 21.2695 6.04229 21.336H6.02224C6.00621 21.2187 5.97013 21.1526 5.9389 21.1218C5.87749 21.0551 5.80997 21.086 5.78908 21.0812C5.79984 21.0608 5.82559 21.0454 5.84648 21.0401C5.87201 21.0354 5.90303 21.0454 5.9389 21.0608C5.98574 21.076 6.02731 21.1066 6.04778 21.1118C6.05305 21.1066 6.0579 21.0962 6.05305 21.086C6.04229 21.0812 6.03701 21.0706 6.04229 21.0608C6.11509 21.0199 6.30626 21.331 6.26996 21.4329C6.25414 21.4683 6.23874 21.4987 6.20286 21.5043ZM6.7806 21.7945C6.79136 21.8099 6.81183 21.8458 6.83272 21.8816C6.85318 21.9172 6.87893 21.9531 6.89454 21.9579C6.91015 21.9424 6.86331 21.9118 6.90488 21.8968C6.95615 21.8864 6.96185 22.0291 7.09563 21.9833C7.12686 22.0191 7.19881 22.0035 7.24038 22.0139C7.24038 22.0191 7.23489 22.0341 7.22962 22.0341C7.13698 22.0241 7.02325 22.0291 6.94054 22.0852C6.92577 22.0954 6.94054 22.1208 6.92577 22.1312C6.90488 22.1058 6.92577 22.0754 6.94054 22.0495C6.95109 22.0291 7.00806 22.0395 6.97704 22.0089C6.97704 22.0089 6.95109 21.9887 6.87386 22.0852C6.86331 22.0754 6.86331 22.0495 6.84791 22.0395C6.7806 22.0547 6.76013 21.9731 6.70316 21.9631C6.68797 21.9531 6.71371 21.9424 6.70316 21.9272C6.67235 21.9066 6.64112 21.8914 6.60567 21.8816C6.50186 21.8508 6.58478 21.8045 6.54849 21.7895C6.36766 21.7335 6.38306 21.6879 6.38306 21.6879C6.39361 21.6572 6.41936 21.6979 6.43497 21.6776C6.42969 21.6674 6.41408 21.6622 6.41936 21.6468C6.4451 21.6314 6.50186 21.6979 6.51262 21.6931C6.53288 21.6776 6.49658 21.6572 6.52275 21.6572C6.57951 21.6468 6.71877 21.8099 6.75528 21.8201C6.7654 21.8099 6.74958 21.8045 6.74958 21.7945C6.75528 21.7895 6.77047 21.7895 6.7806 21.7945ZM7.79764 20.7345C7.79764 20.7345 7.8084 20.6989 7.88078 20.7395C7.88563 20.7547 7.89618 20.7951 7.9118 20.8468C7.9118 20.8468 7.94767 20.9637 7.99451 21.1218C8.00443 21.1622 7.98396 21.1831 7.96813 21.2087C7.86474 21.3001 7.44695 21.5449 7.39547 21.5758C7.32816 21.6212 7.21464 21.6468 7.08529 21.652C6.76013 21.6674 6.32651 21.5906 6.2592 21.5399C6.34192 21.4276 6.31575 21.3256 6.3109 21.3054C6.26996 21.2441 6.22312 21.137 6.20751 21.1218L6.21785 21.1118C6.83736 21.2391 7.07516 21.2491 7.08529 21.2391C7.17349 21.2341 7.60204 20.9637 7.76684 20.8468C7.82887 20.8058 7.86474 20.7699 7.85483 20.7495C7.839 20.7291 7.81874 20.7345 7.79764 20.7345ZM6.77047 21.1166C6.7806 21.0962 6.81183 21.0812 6.83272 21.0812C6.84242 21.0812 6.84791 21.0962 6.85318 21.1166C6.85318 21.1424 6.85318 21.1726 6.84242 21.1831C6.82744 21.1831 6.81183 21.1779 6.79663 21.1726C6.79663 21.1726 6.80634 21.132 6.7654 21.1474C6.7654 21.137 6.7654 21.127 6.77047 21.1166ZM6.88926 21.0199C6.89454 20.9793 7.08529 20.9385 7.10597 20.9278C7.1526 20.9024 7.17349 20.8768 7.18889 20.8468C7.21463 20.8008 7.20915 20.7595 7.2197 20.7443C7.24565 20.7089 7.3022 20.6578 7.39547 20.6372C7.40559 20.6322 7.4518 20.6172 7.42058 20.6728C7.40032 20.6989 7.39547 20.7345 7.38471 20.7647C7.38471 20.7801 7.40559 20.8108 7.42606 20.8516C7.43134 20.8618 7.44147 20.8718 7.44695 20.8824C7.46236 20.9128 7.47734 20.9485 7.47734 20.9739C7.45729 20.9995 7.15745 21.1883 7.08529 21.1981C7.02832 21.2087 6.97219 21.1981 6.90488 21.1883C6.89454 21.1526 6.88399 21.1166 6.88399 21.1166C6.87893 21.0812 6.87893 21.0454 6.88926 21.0199ZM7.74152 20.7443C7.74152 20.7753 7.54001 20.8516 7.54001 20.8516C7.52924 20.8568 7.54001 20.8618 7.52924 20.8768C7.52924 20.8872 7.54507 20.8872 7.55013 20.8976C7.55013 20.9074 7.52397 20.9074 7.53473 20.9231C7.56068 20.9433 7.52397 20.9589 7.51405 20.9537C7.5035 20.9485 7.47734 20.8768 7.46721 20.8666C7.46236 20.8618 7.45729 20.8516 7.45729 20.8468C7.4518 20.8362 7.4518 20.8312 7.46235 20.8262C7.5035 20.8208 7.54507 20.816 7.58622 20.816C7.59677 20.7851 7.70543 20.7443 7.74152 20.7443ZM7.60204 20.5862C7.63243 20.6426 7.63791 20.6935 7.63791 20.6935C7.63791 20.7037 7.63791 20.7139 7.63791 20.7245C7.63791 20.7395 7.59128 20.7395 7.59128 20.7395C7.59128 20.7245 7.61702 20.7139 7.59677 20.7037C7.58115 20.7037 7.56068 20.7291 7.55499 20.7189C7.54507 20.7037 7.58115 20.6989 7.57102 20.6781C7.56554 20.6683 7.49337 20.7291 7.48831 20.7139C7.48324 20.6883 7.57102 20.6531 7.55499 20.6372C7.54 20.6172 7.47734 20.6833 7.46235 20.6833H7.45729C7.44695 20.6728 7.49337 20.6018 7.60204 20.5862ZM7.59677 20.4439C7.57102 20.4745 7.53473 20.4997 7.52924 20.5403C7.52924 20.551 7.50899 20.5608 7.48831 20.5558C7.47248 20.5558 7.46721 20.5306 7.44695 20.5353C7.43134 20.5814 7.37985 20.5662 7.34862 20.5966C7.28173 20.6578 7.27625 20.5662 7.27139 20.5766C7.22962 20.622 7.19375 20.6781 7.1526 20.7245C7.12686 20.7547 7.11124 20.816 7.10132 20.8262C7.09563 20.8312 7.08044 20.8468 7.08044 20.8468C7.07516 20.8618 7.0701 20.8768 7.04921 20.8718C7.0338 20.8718 7.0338 20.8468 7.01291 20.8618C7.00279 20.8872 6.98717 20.8618 6.97219 20.8666C6.95615 20.8924 6.87893 20.9793 6.82216 20.9843C6.81183 20.9889 6.79136 20.9889 6.7806 20.9739C6.75528 20.9589 6.71877 21.0401 6.69324 21.0454C6.68797 21.0504 6.69324 21.0551 6.6983 21.0551H6.72932C6.72932 21.076 6.69831 21.1014 6.67235 21.1166C6.67235 21.1166 6.64661 21.132 6.62065 21.1424C6.62065 21.1424 6.543 21.1424 6.46008 21.1118V21.0812L6.54849 21.0301C6.55377 21.0551 6.56875 21.0656 6.58964 21.0812C6.60567 21.0912 6.61032 21.0812 6.61559 21.0706C6.62066 21.0354 6.53836 21.0247 6.59977 20.9843C6.63585 20.9589 6.63585 20.9793 6.69324 20.9685C6.73439 20.9589 6.77553 20.9385 6.80634 20.9129C6.80634 20.9129 6.85318 20.8924 6.93611 20.7495C6.93611 20.7495 6.97704 20.6781 7.29693 20.1124C7.29693 20.1124 7.37437 20.0412 7.48831 19.7705C7.49865 19.7505 7.5035 19.7914 7.51912 19.7862C7.54507 19.7553 7.50899 19.7351 7.49337 19.7097C7.48324 19.6737 7.47248 19.6283 7.48324 19.5878C7.48831 19.5772 7.50899 19.5822 7.51405 19.6076C7.51912 19.6383 7.52397 19.6687 7.53473 19.6995C7.58622 19.6995 7.60689 19.4087 7.61196 19.3526C7.61196 19.3474 7.61196 19.3474 7.61196 19.3424C7.58622 19.307 7.51405 19.2916 7.51912 19.2614C7.57102 19.2453 7.49337 19.1439 7.48831 19.1847C7.48831 19.1947 7.49865 19.2103 7.48831 19.2199C7.40559 19.2253 7.42058 19.1439 7.40032 19.1233C7.3847 19.103 7.34356 19.1233 7.33828 19.0878C7.33828 19.0672 7.33343 19.0468 7.31254 19.0368C7.29207 19.0314 7.26063 19.052 7.26063 19.0007C7.26063 18.9601 7.35938 19.052 7.33343 18.9705C7.29693 18.8939 7.22476 18.9447 7.21464 18.9299C7.18889 18.8887 7.1161 18.7768 7.1161 18.7262C7.12158 18.7005 7.16209 18.7564 7.16209 18.7205C7.16209 18.6899 7.12158 18.6493 7.11124 18.6543C7.06482 18.6751 7.04921 18.6235 7.04921 18.6035C7.04414 18.5932 7.04414 18.5728 7.04921 18.547C7.03908 18.5268 7.00806 18.5268 7.00279 18.5012C6.99793 18.491 6.98717 18.4705 7.00279 18.4553C7.1161 18.4199 7.00279 18.3743 7.02832 18.3432C7.04921 18.323 7.10133 18.3589 7.13171 18.3124C7.15745 18.2874 7.16209 18.2974 7.17349 18.3124C7.20915 18.3432 7.15745 18.4147 7.2197 18.4147C7.23489 18.4147 7.25641 18.3743 7.28173 18.3997C7.31782 18.4349 7.31254 18.4657 7.32816 18.5168C7.35369 18.5876 7.30727 18.6035 7.3022 18.6082C7.29693 18.6132 7.29207 18.6235 7.29207 18.6339C7.2868 18.6493 7.2868 18.6701 7.3022 18.6849C7.32267 18.6751 7.34356 18.6593 7.35369 18.6391C7.35938 18.6289 7.36951 18.6289 7.37985 18.6339C7.39019 18.6493 7.37985 18.6797 7.39019 18.6949C7.47248 18.7816 7.39019 18.8324 7.39019 18.8324C7.37985 18.8072 7.39019 18.7768 7.36403 18.7612C7.34862 18.7968 7.37985 18.8485 7.35938 18.8835C7.35938 18.8835 7.34862 18.8224 7.20915 18.6391C7.20915 18.6082 7.19881 18.5572 7.20387 18.5268C7.19881 18.5268 7.19881 18.5168 7.18889 18.522C7.17834 18.522 7.18298 18.5372 7.17349 18.532C7.14732 18.4812 7.13698 18.4247 7.10597 18.3743L7.09563 18.3893C7.1161 18.4603 7.14732 18.5268 7.168 18.5982H7.15745L7.10597 18.542C7.10132 18.542 7.09563 18.542 7.09563 18.547C7.10133 18.5876 7.1526 18.6235 7.18298 18.6543L7.29693 18.8174C7.27625 18.8072 7.25072 18.7918 7.22476 18.7918C7.2197 18.7968 7.2197 18.802 7.22476 18.8072C7.30727 18.8528 7.37985 18.9447 7.40032 19.0314C7.39019 19.0412 7.37437 19.0162 7.36951 19.0368C7.37437 19.0574 7.42606 19.0978 7.46235 19.108V19.0826C7.43134 19.0112 7.37985 18.9447 7.39019 18.858C7.40032 18.8739 7.42058 18.9553 7.4518 18.8682C7.47734 18.8635 7.46721 18.9245 7.47734 18.9349C7.50899 18.9651 7.52397 18.9755 7.50899 19.0214C7.49865 19.0412 7.48831 19.052 7.49337 19.103C7.50899 19.1335 7.57102 19.1233 7.55013 19.1691C7.54507 19.1847 7.53473 19.2051 7.54001 19.2199C7.56554 19.2303 7.57588 19.256 7.59677 19.271C7.61702 19.2453 7.58622 19.2151 7.58622 19.1895C7.60204 19.1541 7.58115 19.118 7.57102 19.0826C7.54507 19.0722 7.56554 19.0468 7.56554 19.0264C7.56554 19.0214 7.57102 19.0264 7.57102 19.0264C7.56068 19.0722 7.64319 19.0774 7.60204 19.1233C7.61702 19.1743 7.64825 19.2151 7.63791 19.271C7.65332 19.2916 7.66365 19.2662 7.67399 19.256C7.69467 19.2303 7.71535 19.1895 7.69995 19.1591C7.68454 19.1591 7.67399 19.1387 7.66365 19.1387C7.66893 19.103 7.63791 19.0878 7.63791 19.0574C7.64825 19.052 7.65817 19.052 7.66365 19.0412C7.66893 18.9807 7.59128 18.9705 7.58115 18.9145C7.58115 18.8739 7.53473 18.858 7.52397 18.8224C7.54507 18.8072 7.60204 18.8278 7.58115 18.7816C7.52924 18.7305 7.46721 18.6797 7.44695 18.6082C7.44695 18.6035 7.43134 18.5678 7.44695 18.5572C7.46236 18.5572 7.47734 18.5522 7.47734 18.532C7.47734 18.491 7.43682 18.4657 7.4056 18.4453C7.37437 18.4043 7.37437 18.3589 7.35369 18.3176C7.37437 18.2722 7.39019 18.2207 7.41108 18.1705C7.40559 18.1597 7.35369 18.0882 7.46721 18.1239C7.47734 18.1291 7.51912 18.1085 7.52397 18.0835C7.55499 18.0987 7.55013 18.2207 7.58115 18.216C7.60204 18.211 7.59677 18.1751 7.62778 18.1953C7.62778 18.1953 7.62778 18.282 7.68454 18.3382C7.68454 18.3743 7.66893 18.4147 7.68919 18.4503C7.68919 18.4503 7.7105 18.476 7.73582 18.4405C7.73096 18.5876 7.77211 18.6035 7.7776 18.6082C7.75671 18.6443 7.66893 18.7864 7.76684 18.7968C7.78773 18.7968 7.76684 18.7305 7.79258 18.7103C7.80313 18.7005 7.839 18.7305 7.84449 18.802C7.84976 18.858 7.73582 18.9245 7.8084 18.9958C7.81305 18.9857 7.81874 18.9808 7.8236 18.9705C7.839 18.9858 7.84976 19.0214 7.84449 19.0412C7.79258 19.0622 7.80313 19.1233 7.80313 19.1641C7.78773 19.2051 7.7202 19.2103 7.73097 19.2614C7.73582 19.312 7.66893 19.317 7.65331 19.3526C7.65331 19.358 7.55013 19.9339 7.47248 19.9951C7.44695 20.0153 7.37437 20.1635 7.30727 20.2347C7.29207 20.2503 7.2714 20.2347 7.25641 20.2447C7.26063 20.2601 7.26063 20.2756 7.26063 20.2853C7.25072 20.3108 7.19881 20.4081 7.168 20.4183C7.15745 20.4439 7.14247 20.4693 7.12686 20.4949C7.11124 20.5253 7.01819 20.6372 7.01819 20.7037C7.01291 20.8312 7.0338 20.8208 7.0338 20.8208C7.06482 20.8058 7.05933 20.7595 7.06482 20.7291C7.12686 20.6628 7.18298 20.5862 7.25072 20.5306C7.25641 20.5206 7.26591 20.5049 7.27139 20.4949C7.30727 20.4693 7.31254 20.347 7.32267 20.3164C7.32816 20.3262 7.34356 20.3164 7.35938 20.3164C7.35369 20.3672 7.38471 20.4183 7.35938 20.4643C7.34356 20.4591 7.32816 20.4591 7.31782 20.4693C7.32267 20.4795 7.34356 20.4843 7.33343 20.4997C7.32267 20.5151 7.30727 20.5306 7.3022 20.546C7.31254 20.5766 7.32267 20.5403 7.33828 20.5403C7.36951 20.5558 7.38471 20.5099 7.41593 20.5353C7.44695 20.4893 7.50899 20.4591 7.51912 20.4081C7.55499 20.3776 7.55499 20.3314 7.57588 20.2958C7.58115 20.2958 7.58115 20.291 7.58622 20.2853C7.6223 20.2551 7.64319 20.2091 7.69467 20.1991C7.69995 20.1941 7.70543 20.1839 7.70543 20.1785C7.67927 20.1583 7.65817 20.1991 7.63243 20.1991C7.65332 20.1278 7.69995 20.0614 7.70543 19.9849C7.73096 19.9285 7.7776 19.8983 7.83415 19.8776C7.84449 19.8674 7.84976 19.8574 7.84449 19.8372C7.81874 19.8674 7.78266 19.8674 7.75143 19.8883C7.74152 19.7962 7.91686 19.6383 7.91686 19.5772C7.9118 19.5722 7.90652 19.5722 7.90104 19.5722C7.86474 19.6026 7.86474 19.6687 7.81874 19.6787C7.84976 19.4855 7.88078 19.4087 7.88078 19.4087C7.88078 19.4039 7.8755 19.3987 7.87002 19.3933C7.83415 19.378 7.80313 19.6533 7.79258 19.6485C7.74658 19.6283 7.78266 19.5516 7.75143 19.5153C7.74152 19.5153 7.73582 19.526 7.73582 19.531C7.73582 19.531 7.71535 19.5822 7.75671 19.6687C7.74152 19.7605 7.71535 19.8626 7.69467 19.9489L7.68454 19.9593C7.67927 19.9285 7.67399 19.893 7.65817 19.8626C7.65332 19.8318 7.66365 19.801 7.64825 19.781C7.60689 19.8168 7.63791 19.8776 7.64825 19.9185C7.65331 20.0001 7.64319 20.0714 7.61196 20.1378C7.60204 20.1524 7.61702 20.1687 7.61196 20.1839C7.59677 20.2143 7.58115 20.2503 7.56068 20.2756C7.49865 20.2195 7.56554 20.0768 7.56554 20.0614C7.56554 20.0208 7.52924 20.0358 7.52397 20.0001C7.51912 19.9747 7.56554 19.9647 7.55013 19.9339C7.55499 19.9135 7.59128 19.893 7.58115 19.8674C7.55499 19.7914 7.63791 19.7097 7.63791 19.6437C7.63243 19.6178 7.67399 19.6587 7.67927 19.6283C7.68454 19.5878 7.65817 19.5366 7.68919 19.506C7.69995 19.4697 7.67399 19.4341 7.69995 19.4039C7.71535 19.3833 7.74152 19.378 7.75671 19.3933C7.77211 19.4139 7.75671 19.4597 7.78773 19.4497C7.8084 19.4341 7.79764 19.3376 7.80313 19.3326C7.80313 19.3274 7.8236 19.307 7.85989 19.307C7.87002 19.307 7.8755 19.3474 7.9118 19.3526C7.94767 19.3733 7.99957 19.378 7.99957 19.3933C8.00443 19.4293 7.93226 19.4549 7.97341 19.4855C7.97868 19.4903 8.02025 19.4803 8.02025 19.506C8.02532 19.5416 7.97869 19.5616 7.98881 19.6026C7.99451 19.6587 7.93226 19.6687 7.9118 19.7097C7.90652 19.7249 7.9272 19.7351 7.94281 19.7351C7.95315 19.7403 7.96328 19.7301 7.96813 19.7453C7.97341 19.7705 7.96328 19.7962 7.95315 19.8168C7.93754 19.8266 7.90652 19.8318 7.90652 19.8472C7.90103 19.9085 7.8755 19.9647 7.83415 20.0001C7.82887 20.0001 7.74151 20.0153 7.7776 20.0614C7.79258 20.0768 7.82887 20.0358 7.83415 20.0664C7.73096 20.2447 7.69995 20.291 7.69995 20.291C7.66893 20.3416 7.59128 20.3164 7.59128 20.3876C7.59128 20.4081 7.61196 20.4289 7.59677 20.4439ZM7.47248 20.4131C7.46236 20.3726 7.48324 20.3368 7.49865 20.3008C7.49865 20.2958 7.49865 20.291 7.49865 20.2853C7.49865 20.2803 7.49865 20.2756 7.5035 20.2706C7.50899 20.2706 7.50899 20.2803 7.51405 20.2853C7.51405 20.291 7.51405 20.291 7.51405 20.2958C7.53473 20.3368 7.5035 20.3876 7.47248 20.4131ZM7.4518 20.2853C7.44147 20.3064 7.43134 20.3262 7.41108 20.3416C7.40559 20.3416 7.40032 20.3164 7.40032 20.2853C7.40032 20.2447 7.41108 20.1887 7.43682 20.1839C7.46721 20.2347 7.4518 20.2853 7.4518 20.2853ZM7.19881 20.4949C7.21463 20.4693 7.24565 20.4439 7.26063 20.4183C7.26063 20.4439 7.25072 20.4745 7.22962 20.4949C7.2197 20.5099 7.20915 20.5206 7.19881 20.5306C7.19375 20.5306 7.19375 20.5253 7.18889 20.5206C7.18889 20.5151 7.19375 20.5049 7.19881 20.4949Z" fill="#BDB4EE"/>
<path fill-rule="evenodd" clip-rule="evenodd" d="M7.72292 19.1795C7.76897 19.1693 7.74855 19.0114 7.75376 18.9654C7.75855 18.9399 7.77438 18.9195 7.75855 18.9043C7.73876 18.9043 7.74376 18.9503 7.72292 18.9503C7.71772 18.9091 7.69772 18.8741 7.68709 18.8326C7.66709 18.7566 7.73313 18.6135 7.68709 18.5985C7.68709 18.7208 7.66709 18.7208 7.66709 18.7208C7.63105 18.6237 7.58542 18.4201 7.59584 18.3333L7.58542 18.3283C7.57042 18.3385 7.58542 18.3689 7.57042 18.3795C7.56501 18.3841 7.56501 18.3795 7.56021 18.3745C7.5498 18.3537 7.5398 18.3283 7.52396 18.3078C7.51417 18.3022 7.50917 18.3178 7.51417 18.3233C7.52396 18.3537 7.58042 18.4556 7.56021 18.4814C7.5498 18.4606 7.52917 18.4351 7.51417 18.4301C7.5398 18.4968 7.65647 18.6753 7.63105 18.7158L7.58542 18.6703C7.56021 18.6595 7.57042 18.6799 7.58042 18.6851C7.64167 18.7566 7.68251 18.8326 7.69251 18.9247L7.68709 18.9351C7.67209 18.9147 7.65167 18.8993 7.63647 18.8741H7.62105C7.62647 18.9147 7.65647 18.9301 7.68251 18.9556C7.74376 18.996 7.73313 19.1389 7.72292 19.1795Z" fill="#BDB4EE"/>
<path fill-rule="evenodd" clip-rule="evenodd" d="M7.68457 20.9535L7.71978 21.0758L7.75061 21.1777C7.75582 21.2085 7.77645 21.2542 7.75061 21.2646L7.76061 21.2798L7.82707 21.239L7.81707 21.2235C7.80686 21.2285 7.79124 21.239 7.78145 21.2185L7.76582 21.1621L7.82707 21.1269L7.8677 21.1673C7.87832 21.1881 7.86249 21.1931 7.8577 21.2033L7.86249 21.2133L7.95978 21.1575L7.94978 21.1423C7.94436 21.1473 7.93436 21.1473 7.92416 21.1423C7.91395 21.1423 7.89832 21.1217 7.88832 21.1165L7.8477 21.0758L7.69978 20.9431L7.68457 20.9535ZM7.77103 21.0758L7.80686 21.1117L7.75582 21.1423L7.74082 21.0758L7.72499 21.03L7.77103 21.0758Z" fill="#BDB4EE"/>
<path fill-rule="evenodd" clip-rule="evenodd" d="M6.70071 21.3566H6.71612L6.73154 21.2697L6.52258 21.2239L6.50195 21.3105L6.51737 21.316C6.52737 21.2749 6.548 21.2493 6.57862 21.2601C6.59862 21.2697 6.59862 21.2649 6.59383 21.3003L6.5532 21.4735C6.548 21.5141 6.54258 21.5351 6.51258 21.5251L6.50716 21.5451L6.61925 21.5655L6.62445 21.5501C6.59383 21.5451 6.59383 21.5251 6.60445 21.4841L6.63945 21.3105C6.64987 21.2749 6.64487 21.2749 6.67029 21.2801C6.69591 21.2849 6.70591 21.316 6.70071 21.3566Z" fill="#BDB4EE"/>
<path fill-rule="evenodd" clip-rule="evenodd" d="M6.87137 21.5195L6.86095 21.4683L6.83074 21.2695H6.81533L6.76428 21.3868L6.72366 21.4893C6.70803 21.5139 6.69803 21.56 6.66699 21.5547V21.5758L6.74366 21.5804L6.74866 21.5654C6.73366 21.5654 6.71824 21.56 6.72366 21.535L6.74366 21.4839L6.81533 21.4941L6.82033 21.5547C6.82033 21.5758 6.79991 21.5708 6.78991 21.5708V21.5862L6.90199 21.6012V21.5862C6.89658 21.5804 6.88658 21.5758 6.88137 21.5708C6.87637 21.56 6.87137 21.535 6.87137 21.5195ZM6.74866 21.4635L6.77428 21.402L6.79512 21.3564L6.8047 21.4227L6.81012 21.4683L6.74866 21.4635Z" fill="#BDB4EE"/>
<path fill-rule="evenodd" clip-rule="evenodd" d="M7.24908 21.4985L7.21846 21.3408C7.21346 21.3052 7.20804 21.2798 7.23887 21.2746L7.23346 21.2598L7.12158 21.2798L7.12679 21.3C7.157 21.29 7.16158 21.3156 7.16742 21.3506L7.19783 21.5089C7.20804 21.5448 7.21346 21.5706 7.17762 21.5756L7.18221 21.5904L7.29471 21.5706L7.28992 21.5498C7.25887 21.5598 7.25471 21.5398 7.24908 21.4985Z" fill="#BDB4EE"/>
<path fill-rule="evenodd" clip-rule="evenodd" d="M7.06314 21.576C7.0221 21.576 7.0271 21.5451 7.0271 21.4989V21.3616C7.0271 21.321 7.0221 21.3003 7.05772 21.3003V21.2849H6.94043V21.3003C6.97647 21.3003 6.97647 21.321 6.97647 21.3616V21.5197C6.97647 21.5601 6.97647 21.5805 6.94043 21.5805V21.6014H7.13981L7.1446 21.5093H7.12918C7.11918 21.5601 7.10376 21.576 7.06314 21.576Z" fill="#BDB4EE"/>
<path fill-rule="evenodd" clip-rule="evenodd" d="M11.0742 20.6157V21.4143H37.4286V20.6157H11.0742Z" fill="#BDB4EE"/>
</svg>
