<svg width="76" height="77" viewBox="0 0 76 77" fill="none" xmlns="http://www.w3.org/2000/svg">
<path d="M74.5 38.5997C74.5 58.8159 58.1547 75.1978 38 75.1978C17.8453 75.1978 1.5 58.8159 1.5 38.5997C1.5 18.3834 17.8453 2.00146 38 2.00146C58.1547 2.00146 74.5 18.3834 74.5 38.5997Z" fill="#523EC8" stroke="white" stroke-width="3"/>
<path d="M15.9071 33.1354V28.3354H24.4871V49.5454H19.0871V33.1354H15.9071ZM28.2805 33.1054C28.2805 32.0854 28.5705 31.1254 29.1505 30.2254C29.7305 29.3254 30.5905 28.5954 31.7305 28.0354C32.8905 27.4754 34.2905 27.1954 35.9305 27.1954C37.5905 27.1954 38.9905 27.4754 40.1305 28.0354C41.2905 28.5954 42.1505 29.3254 42.7105 30.2254C43.2905 31.1254 43.5805 32.0854 43.5805 33.1054C43.5805 34.2254 43.3205 35.1854 42.8005 35.9854C42.2805 36.7654 41.5205 37.3654 40.5205 37.7854C42.9005 38.8454 44.0905 40.6354 44.0905 43.1554C44.0905 44.5954 43.7305 45.8354 43.0105 46.8754C42.2905 47.8954 41.3105 48.6754 40.0705 49.2154C38.8505 49.7354 37.4705 49.9954 35.9305 49.9954C34.4105 49.9954 33.0305 49.7354 31.7905 49.2154C30.5505 48.6754 29.5705 47.8954 28.8505 46.8754C28.1305 45.8354 27.7705 44.5954 27.7705 43.1554C27.7705 40.6354 28.9605 38.8454 31.3405 37.7854C30.3405 37.3654 29.5805 36.7654 29.0605 35.9854C28.5405 35.1854 28.2805 34.2254 28.2805 33.1054ZM33.3205 33.9754C33.3205 34.7954 33.5505 35.4254 34.0105 35.8654C34.4905 36.2854 35.1305 36.4954 35.9305 36.4954C36.7305 36.4954 37.3605 36.2854 37.8205 35.8654C38.3005 35.4254 38.5405 34.7954 38.5405 33.9754C38.5405 33.1754 38.3005 32.5454 37.8205 32.0854C37.3405 31.6254 36.7105 31.3954 35.9305 31.3954C35.1505 31.3954 34.5205 31.6254 34.0405 32.0854C33.5605 32.5454 33.3205 33.1754 33.3205 33.9754ZM32.7505 42.8554C32.7505 43.7554 33.0305 44.4654 33.5905 44.9854C34.1705 45.5054 34.9505 45.7654 35.9305 45.7654C36.9105 45.7654 37.6805 45.5054 38.2405 44.9854C38.8205 44.4654 39.1105 43.7554 39.1105 42.8554C39.1105 41.9554 38.8105 41.2554 38.2105 40.7554C37.6305 40.2354 36.8705 39.9754 35.9305 39.9754C34.9905 39.9754 34.2205 40.2354 33.6205 40.7554C33.0405 41.2554 32.7505 41.9554 32.7505 42.8554ZM61.6864 41.4154H56.4964V46.6954H51.5464V41.4154H46.3564V36.7054H51.5464V31.3954H56.4964V36.7054H61.6864V41.4154Z" fill="white"/>
</svg>
