<svg width="16" height="16" viewBox="0 0 16 16" fill="none" xmlns="http://www.w3.org/2000/svg">
<path d="M14.9885 13.6835V7.75677C14.9885 5.3622 13.0634 3.31825 10.356 2.547L11.902 0.000244141L4.04377 0.000244141L5.66115 2.52607C2.91292 3.28003 0.91954 5.33932 0.91954 7.75677L0.91954 13.6835H0L0 16.0002H16V13.6835H14.9885ZM9.7954 11.2082C9.49692 11.4169 9.12772 11.5618 8.69839 11.6387L8.70556 12.4072L7.30023 12.41L7.29388 11.6412C6.89637 11.5657 6.60588 11.415 6.26115 11.1903C5.79154 10.8717 5.54694 10.4994 5.53122 10.0818L5.53094 10.0734L5.56607 9.72072L6.91853 9.71695L6.9291 9.94146C6.93434 10.2067 7.03126 10.3984 7.22538 10.5309C7.42198 10.6697 7.59145 10.7394 7.97903 10.7394C8.36285 10.737 8.66023 10.6644 8.86133 10.5237C9.05315 10.3906 9.14611 10.2039 9.14611 9.95268C9.14611 9.75525 9.0617 9.61081 8.88055 9.49809C8.66841 9.36712 8.28395 9.24948 7.73839 9.14877C7.06621 9.02562 6.55007 8.83398 6.20441 8.57914C5.83347 8.302 5.64441 7.95362 5.64147 7.54305C5.63761 7.07268 5.87062 6.68129 6.33388 6.3799C6.59862 6.20665 6.90851 6.08365 7.25646 6.01349L7.24993 5.34012L8.6549 5.33244L8.65848 5.98214C9.04506 6.04513 9.30179 6.17053 9.59301 6.35731C10.0382 6.65045 10.2799 7.05081 10.3135 7.54913L10.3243 7.78884L8.96607 7.79413L8.92607 7.5967C8.88303 7.34417 8.78244 7.15818 8.62639 7.05038C8.46124 6.93635 8.34575 6.87807 8.05802 6.87807H8.03899C7.70372 6.87807 7.43687 6.94967 7.2652 7.06493C7.09867 7.17462 7.02602 7.32506 7.02814 7.52987C7.02814 7.69834 7.09931 7.82577 7.2457 7.92053C7.368 8.00162 7.63126 8.1184 8.20129 8.22142C8.95402 8.36071 9.53057 8.56908 9.91577 8.84086C10.3237 9.13147 10.5302 9.4991 10.5302 9.93407C10.5342 10.4486 10.2869 10.8776 9.7954 11.2082Z" fill="white" fill-opacity="0.6"/>
</svg>
