<svg width="28" height="22" viewBox="0 0 28 22" fill="none" xmlns="http://www.w3.org/2000/svg">
<path fill-rule="evenodd" clip-rule="evenodd" d="M10.2339 14.7234C9.02265 14.7234 8.05713 13.7042 8.05713 12.4485C8.05713 11.1745 9.04021 10.1736 10.2339 10.1736C11.1819 10.1736 11.9719 10.7923 12.2879 11.6477C12.1474 10.483 11.3399 9.44561 9.9004 9.40921L11.1292 6.69754L15.1493 6.64294L13.8152 9.7186L15.9744 12.2119L16.6942 10.5558C17.3788 10.2646 19.3274 10.2464 19.7838 9.7004C19.4327 9.19082 19.1694 8.77224 18.9763 8.31726C18.7481 7.82589 18.6603 7.31631 18.6603 6.64294H19.2221C19.2221 7.22532 19.3099 7.6621 19.4854 8.08067C19.6434 8.46286 19.8892 8.84504 20.2052 9.30001C20.3807 9.5548 20.486 9.73679 20.2227 10.0826C20.1349 10.1918 19.9769 10.3192 19.819 10.4284C19.5907 10.6104 19.3099 10.7741 19.0465 10.9197L20.8371 13.9772C19.3625 15.9245 15.2371 17.0892 13.3412 11.5385C13.271 11.3565 13.2358 11.2291 13.2007 11.1199L12.2177 13.3948L12.2001 13.4312C11.8841 14.1592 11.1117 14.7234 10.2339 14.7234Z" fill="#BDB4EE"/>
<path fill-rule="evenodd" clip-rule="evenodd" d="M6.86426 21.0021C6.93448 20.8201 6.95203 20.6199 6.95203 20.4197C6.95203 20.2013 6.91692 20.0011 6.86426 19.8191C6.93448 19.6371 6.95203 19.4369 6.95203 19.2367C6.95203 19.0547 6.91692 18.891 6.88181 18.7454H7.56646C8.19843 18.7454 8.70753 18.1994 8.70753 17.5442V16.4159C8.70753 15.7607 8.19843 15.2329 7.56646 15.2329H6.91692V13.14L6.95203 13.1218C7.26802 14.7052 8.61975 15.9063 10.2348 15.9063C11.5163 15.9063 12.6749 15.1601 13.2367 13.9772C14.132 15.4149 15.396 16.5615 17.169 16.7617C18.4505 16.889 19.8023 16.4705 20.838 15.6515L21.3998 16.1065C20.1885 16.9982 19.1352 18.0902 18.2399 19.4551C18.0819 19.7099 17.9941 19.9647 17.9941 20.2741V21.0203H6.86426V21.0021Z" fill="#BDB4EE"/>
<path fill-rule="evenodd" clip-rule="evenodd" d="M19.3623 20.274C21.1705 17.5623 23.8037 15.6878 27.6834 15.16V21.002H19.3623V20.274Z" fill="#BDB4EE"/>
<path fill-rule="evenodd" clip-rule="evenodd" d="M5.77558 3.27612L5.75803 16.3977H7.56619V17.526H5.56492C5.70536 17.6352 5.81069 17.8172 5.81069 18.0174C5.81069 18.8546 5.81069 19.5825 5.81069 20.4197C5.81069 20.7473 5.56492 21.0021 5.24893 21.0021H4.81006H2.86146H2.54547C2.22948 21.0021 1.96616 20.7473 1.96616 20.4197C1.96616 19.5825 1.96616 18.8546 1.96616 18.0174C1.96616 17.8172 2.07149 17.6352 2.21193 17.526H0L0 16.3977H1.87838L1.87838 10.301C1.87838 7.55292 3.75676 4.47726 5.77558 3.27612Z" fill="#BDB4EE"/>
<path fill-rule="evenodd" clip-rule="evenodd" d="M9.90088 3.0577L12.6219 3.22149L14.8338 0.000244141L17.6251 2.52992L20.5919 1.72916L19.7668 5.89676H11.0946L9.90088 3.0577Z" fill="#BDB4EE"/>
<path fill-rule="evenodd" clip-rule="evenodd" d="M17.6253 8.24441L16.4141 7.86223L17.5727 7.60744C18.1871 7.49825 18.1344 8.39 17.6253 8.24441Z" fill="#BDB4EE"/>
</svg>
