<svg width="16" height="16" viewBox="0 0 16 16" fill="none" xmlns="http://www.w3.org/2000/svg">
<path d="M8.30405 13.9469V16.0002C10.2075 15.9292 12.0227 15.1794 13.4214 13.8864L11.9695 12.4345C10.9574 13.3443 9.66318 13.8782 8.30405 13.9469Z" fill="white"/>
<path d="M16 8.30371H13.9468C13.8774 9.68033 13.3307 10.9898 12.4007 12.0072L13.8518 13.4583C15.1655 12.0551 15.9284 10.2247 16 8.30371Z" fill="white"/>
<path d="M12.4178 4.01216C13.3376 5.02691 13.8778 6.32866 13.9468 7.69653H16C15.9287 5.78445 15.1723 3.96161 13.869 2.56068L12.4178 4.01216Z" fill="white"/>
<path d="M2.56077 13.869C3.9617 15.1726 5.78454 15.9289 7.69678 16.0002V13.947C6.32876 13.8781 5.02685 13.3376 4.01211 12.4177L2.56077 13.869Z" fill="white"/>
<path d="M2.13103 13.4397L3.58252 11.9884C2.66265 10.9736 2.12229 9.67171 2.05335 8.30368H0.000134468C0.0714412 10.2159 0.827648 12.0388 2.13103 13.4397Z" fill="white"/>
<path d="M2.65279 8.00012C2.65279 10.9486 5.05172 13.3475 8.0002 13.3475C10.9487 13.3475 13.3472 10.9486 13.3472 8.00012C13.3472 5.05164 10.9485 2.65315 8.0002 2.65315C5.05187 2.65315 2.65279 5.05179 2.65279 8.00012ZM9.58792 5.07032C9.69021 5.0165 9.81415 5.02555 9.90754 5.09344C10.0011 5.16134 10.0479 5.27653 10.0284 5.39038L9.7252 7.15852L11.0098 8.41091C11.0925 8.49156 11.1223 8.61223 11.0866 8.72208C11.0508 8.83208 10.9558 8.91214 10.8415 8.92874L9.06624 9.18684L8.27223 10.7955C8.22109 10.8991 8.11554 10.9648 8.00005 10.9648C7.88442 10.9648 7.77887 10.8991 7.72772 10.7955L6.93386 9.18684L5.15845 8.92874C5.04416 8.91214 4.94913 8.83208 4.9134 8.72208C4.87768 8.61223 4.90747 8.49156 4.9902 8.41091L6.2749 7.15852L5.97159 5.39038C5.95217 5.27653 5.99887 5.16134 6.09241 5.09344C6.18595 5.02555 6.30989 5.0165 6.41218 5.07032L8.0002 5.90524L9.58792 5.07032Z" fill="white"/>
<path d="M-5.43594e-05 7.69653H2.05316C2.12165 6.33741 2.65564 5.04322 3.56543 4.03099L2.1138 2.57921C0.820788 3.97792 0.0708077 5.79305 -5.43594e-05 7.69653Z" fill="white"/>
<path d="M3.99328 3.59973C5.0107 2.66963 6.32016 2.12304 7.69678 2.05367V0.000446081C5.7758 0.0720494 3.94539 0.834928 2.54224 2.14869L3.99328 3.59973Z" fill="white"/>
<path d="M8.30359 2.05362C9.67146 2.12256 10.9732 2.66277 11.988 3.58264L13.4395 2.13116C12.0385 0.82777 10.2157 0.0715625 8.30359 0.000255823V2.05362Z" fill="white"/>
<path d="M6.81355 7.48218L5.85514 8.41628L7.17958 8.60885C7.2786 8.62323 7.364 8.6852 7.40832 8.77489L8.00057 9.9751L8.59281 8.77489C8.63699 8.6852 8.72253 8.62323 8.82141 8.60885L10.146 8.41628L9.18758 7.48218C9.11598 7.41235 9.08336 7.31184 9.10026 7.21341L9.32649 5.89431L8.14185 6.51709C8.05349 6.56364 7.94779 6.56364 7.85929 6.51709L6.67465 5.89431L6.90087 7.21341C6.91777 7.31199 6.88516 7.41235 6.81355 7.48218Z" fill="white"/>
</svg>
