<svg width="18" height="18" viewBox="0 0 18 18" fill="none" xmlns="http://www.w3.org/2000/svg">
<path d="M16.9877 16.3954L12.7353 11.9398C13.8287 10.6304 14.4277 8.98287 14.4277 7.26774C14.4277 3.2605 11.1915 0.000244141 7.21387 0.000244141C3.2362 0.000244141 0 3.2605 0 7.26774C0 11.275 3.2362 14.5352 7.21387 14.5352C8.70714 14.5352 10.1302 14.0815 11.3468 13.2201L15.6315 17.7095C15.8106 17.8969 16.0515 18.0002 16.3096 18.0002C16.5539 18.0002 16.7857 17.9064 16.9617 17.7358C17.3356 17.3733 17.3475 16.7724 16.9877 16.3954ZM7.21387 1.89611C10.154 1.89611 12.5459 4.30576 12.5459 7.26774C12.5459 10.2297 10.154 12.6394 7.21387 12.6394C4.27375 12.6394 1.88188 10.2297 1.88188 7.26774C1.88188 4.30576 4.27375 1.89611 7.21387 1.89611Z" fill="white"/>
</svg>
