<svg width="21" height="20" viewBox="0 0 21 20" fill="none" xmlns="http://www.w3.org/2000/svg">
<g clip-path="url(#clip0)">
<path d="M19.7576 9.2932C20.1377 8.92268 20.272 8.37889 20.108 7.87338C19.9436 7.36787 19.5154 7.00702 18.9894 6.93044L14.3126 6.25089C14.1135 6.22188 13.9413 6.09696 13.8524 5.91634L11.7615 1.67891C11.5268 1.2028 11.0503 0.906921 10.5192 0.906921C9.98858 0.906921 9.51208 1.2028 9.27731 1.67891L7.18606 5.91672C7.0971 6.09734 6.9246 6.22227 6.72542 6.25128L2.04862 6.93083C1.52301 7.00702 1.09447 7.36826 0.930093 7.87377C0.766103 8.37927 0.900311 8.92307 1.2805 9.29359L4.66433 12.5919C4.8086 12.7327 4.87474 12.9354 4.8407 13.1334L4.04241 17.7909C3.97163 18.2008 4.07915 18.5996 4.34448 18.914C4.75677 19.4041 5.47655 19.5534 6.05206 19.2509L10.2346 17.0518C10.4094 16.9601 10.6295 16.9609 10.8039 17.0518L14.9868 19.2509C15.1902 19.3581 15.4072 19.4122 15.6311 19.4122C16.0399 19.4122 16.4275 19.2304 16.694 18.914C16.9597 18.5996 17.0668 18.2001 16.996 17.7909L16.1974 13.1334C16.1633 12.935 16.2295 12.7327 16.3737 12.5919L19.7576 9.2932Z" fill="#FF8126"/>
</g>
<defs>
<clipPath id="clip0">
<rect x="0.861328" y="0.500671" width="19.3152" height="19.3152" fill="white"/>
</clipPath>
</defs>
</svg>
