<svg width="20" height="20" viewBox="0 0 20 20" fill="none" xmlns="http://www.w3.org/2000/svg">
<g clip-path="url(#clip0)">
<path opacity="0.5" d="M19.4868 9.29353C19.8693 8.92292 20.0044 8.37899 19.8394 7.87337C19.674 7.36774 19.2432 7.0068 18.7139 6.9302L14.008 6.25049C13.8076 6.22147 13.6344 6.09652 13.5449 5.91585L11.4411 1.67742C11.2048 1.20119 10.7254 0.905243 10.191 0.905243C9.6571 0.905243 9.17765 1.20119 8.94142 1.67742L6.83717 5.91624C6.74766 6.09691 6.57409 6.22186 6.37367 6.25088L1.66782 6.93059C1.13893 7.0068 0.707734 7.36813 0.542336 7.87375C0.377328 8.37938 0.51237 8.92331 0.894925 9.29392L4.29978 12.5931C4.44494 12.7339 4.51149 12.9366 4.47724 13.1347L3.67399 17.7932C3.60277 18.2033 3.71096 18.6022 3.97794 18.9167C4.39279 19.4068 5.11704 19.5562 5.69612 19.2536L9.90462 17.0539C10.0805 16.9623 10.302 16.963 10.4775 17.0539L14.6864 19.2536C14.8911 19.3608 15.1094 19.415 15.3347 19.415C15.7461 19.415 16.136 19.2331 16.4042 18.9167C16.6715 18.6022 16.7793 18.2025 16.7081 17.7932L15.9045 13.1347C15.8702 12.9362 15.9368 12.7339 16.0819 12.5931L19.4868 9.29353Z" fill="#FF8126"/>
</g>
<defs>
<clipPath id="clip0">
<rect x="0.473145" y="0.50029" width="19.4352" height="19.3198" fill="white"/>
</clipPath>
</defs>
</svg>
