<svg width="20" height="20" viewBox="0 0 20 20" fill="none" xmlns="http://www.w3.org/2000/svg">
<g clip-path="url(#clip0)">
<path opacity="0.5" d="M19.4868 9.2935C19.8693 8.92289 20.0044 8.37896 19.8394 7.87334C19.674 7.36771 19.2432 7.00677 18.7139 6.93017L14.008 6.25046C13.8076 6.22144 13.6344 6.09649 13.5449 5.91582L11.4411 1.67739C11.2048 1.20116 10.7254 0.905212 10.191 0.905212C9.6571 0.905212 9.17765 1.20116 8.94142 1.67739L6.83717 5.91621C6.74766 6.09688 6.57409 6.22183 6.37367 6.25085L1.66782 6.93056C1.13893 7.00677 0.707734 7.3681 0.542336 7.87372C0.377328 8.37935 0.51237 8.92327 0.894925 9.29389L4.29978 12.593C4.44494 12.7338 4.51149 12.9366 4.47724 13.1346L3.67399 17.7932C3.60277 18.2033 3.71096 18.6021 3.97794 18.9166C4.39279 19.4068 5.11704 19.5561 5.69612 19.2536L9.90462 17.0539C10.0805 16.9622 10.302 16.963 10.4775 17.0539L14.6864 19.2536C14.8911 19.3608 15.1094 19.4149 15.3347 19.4149C15.7461 19.4149 16.136 19.2331 16.4042 18.9166C16.6715 18.6021 16.7793 18.2025 16.7081 17.7932L15.9045 13.1346C15.8702 12.9362 15.9368 12.7338 16.0819 12.593L19.4868 9.2935Z" fill="#FF8126"/>
<path d="M8.94142 1.67742C9.17765 1.20119 9.6571 0.905243 10.191 0.905243L10.4775 17.0539C10.302 16.963 10.0805 16.9623 9.90462 17.0539L5.69612 19.2536C5.11704 19.5561 4.39279 19.4068 3.97794 18.9167C3.71096 18.6022 3.60278 18.2033 3.67399 17.7932L4.47724 13.1347C4.51149 12.9366 4.44494 12.7339 4.29978 12.5931L0.894925 9.29391C0.51237 8.9233 0.377328 8.37938 0.542336 7.87375C0.707734 7.36812 1.13893 7.0068 1.66782 6.93059L6.37367 6.25087C6.57409 6.22186 6.74766 6.0969 6.83717 5.91624L8.94142 1.67742Z" fill="#FF8126"/>
</g>
<defs>
<clipPath id="clip0">
<rect x="0.473145" y="0.500275" width="19.4352" height="19.3198" fill="white"/>
</clipPath>
</defs>
</svg>
