<svg width="19" height="17" viewBox="0 0 19 17" fill="none" xmlns="http://www.w3.org/2000/svg">
<path d="M8.81733 0.687549C8.97898 0.253593 9.59278 0.253594 9.75443 0.68755L11.6279 5.71701C11.7008 5.9127 11.8876 6.04248 12.0964 6.04248L17.9973 6.04248C18.498 6.04248 18.6879 6.69678 18.265 6.96481L13.6139 9.91241C13.4143 10.0389 13.3305 10.2878 13.413 10.5093L15.2162 15.3502C15.3834 15.799 14.8846 16.2034 14.48 15.947L9.55353 12.8249C9.39013 12.7213 9.18164 12.7213 9.01823 12.8249L4.09177 15.947C3.68716 16.2034 3.18836 15.799 3.35557 15.3502L5.15878 10.5093C5.24126 10.2878 5.15747 10.0389 4.95788 9.91241L0.306797 6.96481C-0.116134 6.69678 0.0737368 6.04248 0.574447 6.04248L6.47533 6.04248C6.68415 6.04248 6.87099 5.9127 6.94388 5.71701L8.81733 0.687549Z" fill="white"/>
</svg>
