<svg width="21" height="19" viewBox="0 0 21 19" fill="none" xmlns="http://www.w3.org/2000/svg">
<path d="M10.0289 1.32371C10.1866 0.880556 10.8134 0.880556 10.9711 1.32371L12.9636 6.92296C13.0345 7.12223 13.2232 7.25532 13.4347 7.25532H19.7789C20.2742 7.25532 20.4681 7.89818 20.0553 8.17198L15.0033 11.5233C14.812 11.6502 14.7317 11.8912 14.8087 12.1076L16.7564 17.5808C16.9175 18.0335 16.4094 18.4307 16.0089 18.1651L10.7764 14.694C10.6089 14.5829 10.3911 14.5829 10.2236 14.694L4.99109 18.1651C4.59061 18.4307 4.08251 18.0335 4.24363 17.5808L6.19134 12.1076C6.26833 11.8912 6.18805 11.6502 5.99668 11.5233L0.944682 8.17198C0.531943 7.89818 0.725783 7.25532 1.22108 7.25532H7.5653C7.77682 7.25532 7.96545 7.12223 8.03637 6.92296L10.0289 1.32371Z" fill="white"/>
</svg>
