<svg width="24" height="24" viewBox="0 0 24 24" fill="none" xmlns="http://www.w3.org/2000/svg">
<path fill-rule="evenodd" clip-rule="evenodd" d="M12 24.0002C5.37258 24.0002 0 18.6277 0 12.0002C0 5.37283 5.37258 0.000244141 12 0.000244141C18.6274 0.000244141 24 5.37283 24 12.0002C24 18.6277 18.6274 24.0002 12 24.0002ZM12 23.2002C18.1856 23.2002 23.2 18.1858 23.2 12.0002C23.2 5.81465 18.1856 0.800244 12 0.800244C5.81441 0.800244 0.8 5.81465 0.8 12.0002C0.8 18.1858 5.81441 23.2002 12 23.2002Z" fill="#BDB4EE"/>
<path fill-rule="evenodd" clip-rule="evenodd" d="M7.80171 14.2016H9.27051V15.2H5.09451V14.2016H6.56331V9.84318L5.40171 10.544L4.91211 9.64158L6.91851 8.43198H7.80171V14.2016ZM13.2961 11.7248C13.6929 11.8336 13.9985 12.032 14.2129 12.32C14.4273 12.608 14.5345 12.96 14.5345 13.376C14.5345 13.9712 14.3105 14.4368 13.8625 14.7728C13.4145 15.1088 12.7937 15.2768 12.0001 15.2768C11.2065 15.2768 10.5857 15.1088 10.1377 14.7728C9.68971 14.4368 9.46571 13.9712 9.46571 13.376C9.46571 12.96 9.57451 12.6064 9.79211 12.3152C10.0097 12.024 10.3169 11.8272 10.7137 11.7248C10.3745 11.5968 10.1089 11.3968 9.91691 11.1248C9.72491 10.8528 9.62891 10.5344 9.62891 10.1696C9.62891 9.60638 9.84011 9.16158 10.2625 8.83518C10.6849 8.50878 11.2641 8.34558 12.0001 8.34558C12.7361 8.34558 13.3153 8.50878 13.7377 8.83518C14.1601 9.16158 14.3713 9.60638 14.3713 10.1696C14.3713 10.5408 14.2753 10.864 14.0833 11.1392C13.8913 11.4144 13.6289 11.6096 13.2961 11.7248ZM12.0001 9.31518C11.2001 9.31518 10.8001 9.64158 10.8001 10.2944C10.8001 10.6208 10.9009 10.8688 11.1025 11.0384C11.3041 11.208 11.6033 11.2928 12.0001 11.2928C12.3969 11.2928 12.6961 11.208 12.8977 11.0384C13.0993 10.8688 13.2001 10.6208 13.2001 10.2944C13.2001 9.64158 12.8001 9.31518 12.0001 9.31518ZM12.0001 14.3072C12.9153 14.3072 13.3729 13.9648 13.3729 13.28C13.3729 12.5952 12.9153 12.2528 12.0001 12.2528C11.0849 12.2528 10.6273 12.5952 10.6273 13.28C10.6273 13.9648 11.0849 14.3072 12.0001 14.3072ZM19.4625 12.032V12.8768H17.5425V14.7968H16.6977V12.8768H14.7777V12.032H16.6977V10.112H17.5425V12.032H19.4625Z" fill="#BDB4EE"/>
</svg>
