<svg width="9" height="10" viewBox="0 0 9 10" fill="none" xmlns="http://www.w3.org/2000/svg">
<g clip-path="url(#clip0)">
<path d="M4.5 0.47937C2.0187 0.47937 0 2.49807 0 4.97937C0 7.46067 2.0187 9.47937 4.5 9.47937C6.9813 9.47937 9 7.46067 9 4.97937C9 2.49807 6.9813 0.47937 4.5 0.47937ZM4.5 8.52185C2.5467 8.52185 0.957431 6.93277 0.957431 4.97937C0.957431 3.02597 2.5467 1.43689 4.5 1.43689C6.4533 1.43689 8.04257 3.02597 8.04257 4.97937C8.04257 6.93277 6.4533 8.52185 4.5 8.52185Z" fill="#7E7E7E"/>
<path d="M6.84539 4.84041H4.82308V2.40885C4.82308 2.20423 4.65718 2.03833 4.45255 2.03833C4.24793 2.03833 4.08203 2.20423 4.08203 2.40885V5.21093C4.08203 5.41555 4.24793 5.58145 4.45255 5.58145H6.84539C7.05001 5.58145 7.21591 5.41555 7.21591 5.21093C7.21591 5.00631 7.05001 4.84041 6.84539 4.84041Z" fill="#7E7E7E"/>
</g>
<defs>
<clipPath id="clip0">
<rect y="0.47937" width="9" height="9" fill="white"/>
</clipPath>
</defs>
</svg>
