<svg width="35" height="43" viewBox="0 0 35 43" fill="none" xmlns="http://www.w3.org/2000/svg">
<path d="M28.5411 22.8912C28.4866 17.5904 32.863 15.0536 33.057 14.9263C30.599 11.3348 26.7742 10.8408 25.4073 10.7863C22.1553 10.4529 19.0548 12.7017 17.4 12.7017C15.7513 12.7017 13.1994 10.8317 10.499 10.8802C6.94692 10.9348 3.67672 12.9472 1.84613 16.1235C-1.84231 22.5244 0.900533 32.0047 4.49502 37.2025C6.25287 39.7422 8.35016 42.5942 11.0991 42.4942C13.748 42.3881 14.7481 40.7788 17.9516 40.7788C21.1552 40.7788 22.0553 42.4942 24.8557 42.4427C27.7077 42.3881 29.511 39.8513 31.2537 37.3055C33.2722 34.3566 34.1026 31.4986 34.1541 31.3561C34.0874 31.3197 28.5987 29.2194 28.5411 22.8912Z" fill="url(#paint0_linear)"/>
<path d="M23.2741 7.34644C24.7319 5.5795 25.7199 3.11852 25.4502 0.666626C23.3438 0.751487 20.801 2.06381 19.2886 3.83378C17.9339 5.40069 16.7549 7.90107 17.0701 10.3045C19.4159 10.4893 21.8163 9.11035 23.2741 7.34644Z" fill="url(#paint1_linear)"/>
<defs>
<linearGradient id="paint0_linear" x1="17.1244" y1="10.7526" x2="17.1244" y2="42.4967" gradientUnits="userSpaceOnUse">
<stop stop-color="#FFBB8B"/>
<stop offset="0.338542" stop-color="#F1A570"/>
<stop offset="0.692708" stop-color="#EE782E"/>
<stop offset="1" stop-color="#ED6112"/>
</linearGradient>
<linearGradient id="paint1_linear" x1="21.2566" y1="0.666626" x2="21.2566" y2="10.3211" gradientUnits="userSpaceOnUse">
<stop stop-color="#FFBB8B"/>
<stop offset="0.338542" stop-color="#F1A570"/>
<stop offset="0.692708" stop-color="#EE782E"/>
<stop offset="1" stop-color="#ED6112"/>
</linearGradient>
</defs>
</svg>
