<svg width="47" height="42" viewBox="0 0 47 42" fill="none" xmlns="http://www.w3.org/2000/svg">
<path d="M43.0883 0.333374H3.94359C2.13686 0.333374 0.666504 1.82167 0.666504 3.65141V27.6625C0.666504 29.4921 2.13686 30.9806 3.94359 30.9806H17.8159V36.1332H11.7692C10.841 36.1332 10.0871 36.8955 10.0871 37.8369V40.2964C10.0871 41.2378 10.8412 42 11.7692 42H35.2628C36.1911 42 36.9449 41.2378 36.9449 40.2964V37.8369C36.9449 36.8955 36.1909 36.1332 35.2628 36.1332H29.2161V30.9806H43.0882C44.8949 30.9806 46.3654 29.4923 46.3654 27.6625V3.65141C46.3655 1.82167 44.8951 0.333374 43.0883 0.333374ZM3.85649 27.6625L3.94351 3.56236L43.1753 3.65141V27.75L3.85649 27.6625ZM44.7705 25.7248C44.3156 25.7248 43.9462 25.3511 43.9462 24.8917C43.9462 24.4304 44.3156 24.0573 44.7705 24.0573C45.2254 24.0573 45.5943 24.4302 45.5943 24.8917C45.5943 25.3513 45.2254 25.7248 44.7705 25.7248ZM44.7705 22.2461C44.3156 22.2461 43.9462 21.8733 43.9462 21.412C43.9462 20.9525 44.3156 20.5789 44.7705 20.5789C45.2254 20.5789 45.5943 20.9526 45.5943 21.412C45.5943 21.8733 45.2254 22.2461 44.7705 22.2461Z" fill="url(#paint0_linear)"/>
<defs>
<linearGradient id="paint0_linear" x1="23.516" y1="0.333374" x2="23.516" y2="42" gradientUnits="userSpaceOnUse">
<stop stop-color="#9D77F7"/>
<stop offset="0.348958" stop-color="#8172DF"/>
<stop offset="0.708333" stop-color="#766BDF"/>
<stop offset="1" stop-color="#6567D6"/>
</linearGradient>
</defs>
</svg>
