<svg width="43" height="51" viewBox="0 0 43 51" fill="none" xmlns="http://www.w3.org/2000/svg">
<path d="M42.6616 42.374C42.4595 42.1437 42.1735 41.9181 41.8052 41.6968C41.7495 41.6607 41.5977 41.573 41.35 41.4354C41.1015 41.297 40.9034 41.1773 40.7552 41.0757C40.6081 40.9742 40.4145 40.7994 40.1747 40.5504C39.9355 40.302 39.7467 40.039 39.6082 39.7626C39.47 39.4866 39.3364 39.1136 39.2073 38.6434C39.078 38.1733 39.0051 37.6528 38.9863 37.0815C38.7282 37.3019 38.5857 37.7396 38.5579 38.3942C38.5301 39.0483 38.6686 39.7158 38.9727 40.3977C39.2765 41.0798 39.7327 41.5214 40.3407 41.7246C40.9301 41.9277 41.4045 42.1436 41.7643 42.3739C42.1231 42.6045 42.354 42.8666 42.4555 43.1615C42.5568 43.4571 42.3859 43.7747 41.9439 44.1153C41.5013 44.4566 40.792 44.7925 39.8156 45.1253C38.4704 45.5854 37.5166 45.9774 36.9544 46.2994C36.3925 46.6221 35.5683 47.235 34.4808 48.1375C33.7434 48.7457 32.9604 49.0731 32.1308 49.1192C31.3022 49.1655 30.6291 48.8615 30.1135 48.2074C29.5973 47.5534 29.431 46.6278 29.6155 45.4293C29.9657 43.1262 29.9571 41.3294 29.5887 40.0397C29.2938 39.0261 29.2289 38.1323 29.3953 37.3583C29.5609 36.5852 29.8187 36.1339 30.1692 36.0047C30.5183 35.8752 30.8968 36.1519 31.3022 36.8333C31.3383 36.9254 31.4218 37.1051 31.5504 37.3724C31.6792 37.6394 31.7849 37.8289 31.8687 37.9389C31.9515 38.0496 32.0759 38.1924 32.2418 38.3677C32.4074 38.5432 32.6159 38.6671 32.864 38.7413C33.1125 38.8149 33.4025 38.8609 33.7347 38.8792C34.3612 38.8974 34.9227 38.7685 35.4207 38.4922C35.9181 38.2159 36.2918 37.9072 36.5402 37.5663C36.7886 37.225 37.0378 36.8984 37.2863 36.5849C37.5348 36.2711 37.7515 36.0962 37.936 36.0591C38.1385 36.023 38.323 35.8202 38.4889 35.4511C38.6547 35.0827 38.7652 34.5715 38.8206 33.9175C38.8763 33.2631 38.8299 32.4846 38.6828 31.5821C38.4062 29.9783 37.8575 28.2187 37.0378 26.3024C36.2175 24.3858 35.3014 22.884 34.2876 21.7967C32.4635 19.8621 31.2386 17.8536 30.6115 15.7712C29.9671 13.5785 29.6911 11.6068 29.7828 9.85609C29.8752 8.60294 29.6032 7.24388 28.9678 5.77881C28.3324 4.31393 27.4889 3.19448 26.4385 2.42056C25.7753 1.92323 24.955 1.54092 23.9789 1.27352C23.0022 1.00612 22.0253 0.882105 21.0487 0.900306C19.8512 0.900306 18.8926 1.09364 18.1743 1.4808C16.7001 2.27331 15.7238 3.23602 15.2443 4.36931C14.7649 5.50241 14.5442 6.89826 14.5808 8.55676C14.6548 12.2054 14.8019 15.0615 15.0232 17.1252C14.765 18.0835 13.6228 19.8799 11.5956 22.515C11.2269 22.8837 10.8675 23.3812 10.5173 24.0076C10.1674 24.6343 9.89087 25.1965 9.68824 25.6936C9.48532 26.191 9.21366 26.9096 8.87278 27.8496C8.53171 28.7891 8.28784 29.4528 8.14029 29.8395C8.01134 30.1717 7.80851 30.558 7.53231 31.001C7.25581 31.4429 7.0342 31.8763 6.86875 32.2994C6.7033 32.7231 6.61094 33.2021 6.59254 33.7367C6.57415 34.1421 6.59254 34.4924 6.64792 34.7869C6.7214 35.2298 6.85994 35.3677 7.06238 35.202C7.89197 34.5754 8.93309 34.9439 10.186 36.3079C11.0704 37.2661 12.6277 39.4959 14.8573 42.9971C15.0415 43.3102 15.2256 43.6464 15.4099 44.0067C15.5946 44.3655 15.7692 44.8441 15.9352 45.4432C16.101 46.0428 16.1703 46.5813 16.1425 47.0606C16.1146 47.5401 15.903 47.9824 15.5067 48.3872C15.1104 48.7924 14.5161 49.0502 13.7239 49.1608C13.2998 49.2161 12.789 49.1797 12.1898 49.0501C11.5909 48.9212 10.8307 48.7095 9.90955 48.4147C8.98818 48.1202 8.30652 47.917 7.86418 47.8064C7.2196 47.6587 6.30288 47.4707 5.11411 47.2398C3.92544 47.0092 3.14668 46.8389 2.77821 46.7283C2.15173 46.5626 1.81095 46.3234 1.75577 46.0097C1.70039 45.7516 1.82934 45.3097 2.14273 44.6835C2.45631 44.0569 2.61266 43.605 2.61266 43.3291C2.63086 43.126 2.62176 42.9239 2.58478 42.7209C2.54818 42.5181 2.50674 42.3613 2.46057 42.2508C2.41448 42.1404 2.33616 41.9745 2.2255 41.7531C2.11485 41.5321 2.04127 41.3658 2.00438 41.2558C1.67289 40.4815 1.62671 39.9557 1.86623 39.6798C2.03188 39.4402 2.42813 39.3481 3.05461 39.4037C3.99437 39.4959 4.759 39.3573 5.34879 38.9887C6.32515 38.3807 6.62033 37.404 6.23317 36.0585C6.23317 36.685 6.12252 37.1544 5.9014 37.4682C5.68027 37.7813 5.29312 38.104 4.74051 38.436C4.42742 38.6202 3.87433 38.7306 3.0822 38.768C2.28998 38.8048 1.76458 38.934 1.50667 39.155C1.32253 39.3209 1.22591 39.5697 1.21662 39.9014C1.20751 40.2338 1.24924 40.5693 1.34121 40.9106C1.43319 41.2515 1.52545 41.6427 1.61742 42.0851C1.70968 42.5277 1.74628 42.8965 1.72808 43.191C1.70968 43.3935 1.54336 43.896 1.23027 44.6969C0.917173 45.4987 0.852695 46.1115 1.03693 46.5349C1.12919 46.7381 1.28555 46.9179 1.50676 47.0743C1.72779 47.2309 2.03643 47.3645 2.43259 47.4756C2.82845 47.5862 3.19257 47.6737 3.52444 47.7379C3.85593 47.8018 4.31657 47.8853 4.90616 47.9861C5.49585 48.0871 5.96568 48.1752 6.31585 48.2484C7.49523 48.4883 8.84025 48.8845 10.3514 49.4371C11.8624 49.9901 12.8849 50.2753 13.4193 50.2936C13.9353 50.3118 14.4281 50.2062 14.8981 49.9756C15.368 49.7457 15.7687 49.4829 16.1005 49.188C16.4319 48.8931 16.9249 48.6165 17.5789 48.3588C18.2333 48.1007 18.9657 47.9625 19.7766 47.9441C20.1451 47.9259 20.6795 47.9026 21.3797 47.8751C22.0799 47.8472 22.6049 47.8337 22.9551 47.8337C24.5397 47.8337 25.7374 47.8426 26.5481 47.8611C27.101 47.88 27.5341 47.9672 27.8474 48.1239C28.1605 48.2803 28.3637 48.4602 28.4554 48.6625C28.5475 48.8657 28.7003 49.1002 28.9123 49.3676C29.1237 49.6346 29.3954 49.8513 29.7267 50.0169C30.4266 50.3489 31.247 50.4824 32.187 50.4178C33.1266 50.3535 33.7534 50.1737 34.0664 49.8789C34.5823 49.3815 35.2777 48.7916 36.153 48.11C37.0284 47.4285 37.817 46.9123 38.5166 46.5621C38.6638 46.4879 38.9126 46.3683 39.2628 46.2023C39.6125 46.0364 39.9072 45.8938 40.1467 45.7736C40.3863 45.6538 40.6768 45.5016 41.017 45.3174C41.3582 45.1329 41.6346 44.9626 41.8466 44.8059C42.0585 44.6491 42.2746 44.4699 42.4959 44.2668C42.717 44.0644 42.8598 43.8616 42.9247 43.6589C42.9883 43.4562 43.0121 43.2488 42.9936 43.037C42.9748 42.8256 42.8647 42.6049 42.6616 42.374ZM27.8468 15.6593C27.9018 15.6228 27.9389 15.6088 27.9571 15.6179C27.9757 15.6272 28.0125 15.6642 28.0675 15.7286C28.1232 15.793 28.1732 15.8532 28.2199 15.9084C28.2657 15.9632 28.33 16.0373 28.4127 16.1293C28.4955 16.2215 28.583 16.2951 28.6748 16.3504C28.786 16.424 28.9193 16.475 29.076 16.5025C29.2327 16.53 29.3526 16.5761 29.4359 16.6405C29.5191 16.7048 29.579 16.8107 29.6152 16.9584C29.6516 17.1613 29.6208 17.3452 29.5194 17.511C29.4174 17.677 29.2842 17.7509 29.1179 17.7323C28.7862 17.6585 28.4268 17.3685 28.0401 16.8617C27.6536 16.3549 27.5888 15.9542 27.8468 15.6593ZM24.4191 4.92153C24.5109 4.80177 24.5663 4.70506 24.5845 4.63148C24.6213 4.52053 24.6259 4.40552 24.5984 4.28576C24.5709 4.166 24.5799 4.04624 24.6259 3.92649C24.6723 3.80673 24.7783 3.7376 24.9442 3.71921C25.11 3.71921 25.3312 3.85756 25.6076 4.13386C25.6626 4.17084 25.7501 4.22612 25.8693 4.2997C25.9892 4.37347 26.0721 4.43785 26.1181 4.49304C26.1642 4.54803 26.187 4.59459 26.187 4.63119C26.1502 4.72316 26.0674 4.78822 25.9389 4.82481C25.8104 4.86141 25.6715 4.88019 25.5244 4.88019C25.3774 4.88019 25.2938 4.88929 25.2757 4.90769C25.1283 4.96306 24.9901 5.04584 24.8609 5.1563C24.732 5.26696 24.6306 5.34983 24.5571 5.40511C24.4828 5.46029 24.4093 5.46029 24.3358 5.40511C24.2622 5.29445 24.2344 5.21613 24.253 5.17024C24.2717 5.12435 24.327 5.04129 24.4191 4.92153ZM11.0413 25.6106C11.1699 25.4633 11.2623 25.3435 11.3175 25.2513C11.3728 25.159 11.4233 25.0346 11.4695 24.8782C11.5156 24.7213 11.557 24.606 11.5939 24.5324C11.631 24.4584 11.6864 24.4309 11.7599 24.4493C11.7965 24.4402 11.824 24.4584 11.8431 24.5046C11.8613 24.5507 11.8706 24.5738 11.8706 24.5738V24.6568C11.8706 24.6846 11.8658 24.7212 11.8567 24.7674C11.8474 24.8139 11.8334 24.8552 11.8152 24.8918C11.7965 24.9289 11.7782 24.9843 11.7599 25.0578C11.7415 25.1313 11.7233 25.1959 11.7046 25.2511C11.631 25.4358 11.5156 25.6013 11.3592 25.7488C11.2025 25.8962 11.0872 25.9607 11.0135 25.9422C10.9029 25.9056 10.9124 25.7946 11.0413 25.6106ZM29.1173 42.6646C29.0806 43.254 28.9561 44.0835 28.744 45.1524C28.532 46.2208 28.3982 46.9304 28.3427 47.2803C27.9558 47.2614 27.7349 47.1186 27.6795 46.8515C27.6245 46.5841 27.6795 46.239 27.8454 45.8149C28.2507 44.5798 28.462 43.7323 28.4809 43.2721C28.5184 42.4243 28.4259 41.9451 28.2052 41.8348C28.0017 41.6874 27.6887 41.964 27.2649 42.6637C26.4535 43.9906 24.8231 44.7916 22.3725 45.0687C20.1617 45.3636 18.6322 45.0319 17.7843 44.0732C17.6001 43.9442 17.4158 43.9214 17.2317 44.0045C17.0475 44.0867 16.9277 44.1748 16.8724 44.2662C16.8542 44.3034 16.8724 44.3584 16.9278 44.4323C16.9831 44.5062 17.0706 44.6164 17.1904 44.7639C17.3101 44.912 17.4068 45.0588 17.4804 45.2069C18.1994 46.4595 18.135 47.307 17.2871 47.7494C17.2871 46.9023 17.2226 46.2525 17.0938 45.8013C16.9647 45.3498 16.707 44.8524 16.3198 44.3084C15.9331 43.765 15.6659 43.3548 15.5186 43.0786C16.0712 43.0236 16.4905 42.8115 16.7762 42.4429C17.0618 42.0744 17.1907 41.6782 17.1632 41.2545C17.1355 40.8304 16.9744 40.4802 16.6795 40.2039C16.5136 40.0382 15.6566 39.3332 14.1088 38.0894C12.5612 36.8456 11.6028 36.0118 11.2344 35.588C11.1604 35.5141 10.9395 35.3299 10.5709 35.035C10.2021 34.7402 9.9717 34.4824 9.87973 34.2611C9.03194 32.4008 8.93997 30.8706 9.60323 29.6734L9.7137 29.5353C9.80567 29.5171 9.81496 29.6826 9.74119 30.033C9.63073 30.5491 9.59404 31.0646 9.63073 31.5808C9.70431 32.742 10.0361 33.6078 10.6257 34.1786C11.0128 34.5662 11.2798 34.5385 11.4274 34.096C11.538 33.9483 11.5886 33.4049 11.5793 32.4646C11.5705 31.5254 11.5841 30.8896 11.621 30.5576C11.7686 29.5074 12.2062 28.208 12.934 26.6608C13.6617 25.1127 14.2379 24.2834 14.6616 24.173C14.3298 23.6386 14.2239 23.0581 14.3438 22.4315C14.4633 21.8049 14.6572 21.2702 14.9242 20.8283C15.1911 20.3861 15.4632 19.875 15.7393 19.2944C16.0158 18.7139 16.154 18.1932 16.154 17.7326C16.154 17.6038 16.1635 17.5116 16.1819 17.4563C16.2371 17.2905 16.4675 17.4931 16.8728 18.0642C17.6467 19.2069 18.2272 19.8796 18.6143 20.0822C19.0197 20.3031 19.4709 20.294 19.9685 20.0544C20.4659 19.8149 21.0786 19.4186 21.8066 18.866C22.5342 18.3134 23.1561 17.9078 23.6722 17.6501C23.7279 17.6314 23.8151 17.59 23.9353 17.5255C24.0545 17.4614 24.1467 17.4151 24.211 17.3872C24.275 17.3597 24.3581 17.3183 24.4598 17.263C24.5605 17.2077 24.6387 17.1616 24.6941 17.1246C24.7493 17.0875 24.8047 17.0461 24.8597 17C24.9146 16.9537 24.9514 16.908 24.9704 16.8619C24.9888 16.8158 24.9981 16.7744 24.9981 16.7375C24.9611 16.5715 24.8829 16.4701 24.7629 16.4335C24.643 16.3967 24.482 16.4195 24.2792 16.5027C24.0765 16.5857 23.8505 16.6963 23.602 16.8344C23.3536 16.9725 23.0773 17.1292 22.7731 17.3043C22.4692 17.4794 22.1605 17.6404 21.8474 17.7881C21.5343 17.9356 21.2024 18.0646 20.8522 18.1752C20.5021 18.2856 20.1705 18.3504 19.8573 18.3688C19.0834 18.3872 18.4663 18.1849 18.0056 17.7608C17.7108 17.4841 17.5544 17.3091 17.5357 17.2355C17.5171 17.162 17.6002 17.1436 17.7843 17.1802C18.7797 17.3092 19.5074 17.3274 19.9681 17.2355C20.4472 17.162 21.092 16.9499 21.9029 16.5997C22.069 16.5261 22.4877 16.3462 23.1609 16.0606C23.8331 15.7754 24.354 15.5773 24.7224 15.4666C24.944 15.4112 25.0961 15.3238 25.179 15.204C25.2615 15.0843 25.2894 14.9736 25.2615 14.8722C25.2341 14.771 25.1741 14.6928 25.0823 14.6375C24.8791 14.5268 24.6949 14.6007 24.5297 14.8586C24.4372 15.0244 24.2434 15.1859 23.9488 15.3424C23.6543 15.4992 23.382 15.6188 23.1334 15.7017C22.8847 15.7844 22.5669 15.8812 22.1797 15.9917C21.7926 16.1024 21.581 16.1668 21.544 16.1852C20.5306 16.4983 19.5908 16.6367 18.7247 16.5997C18.3192 16.5815 17.9923 16.5214 17.7437 16.42C17.4948 16.3189 17.3242 16.1992 17.2323 16.0607C17.14 15.9228 16.9928 15.7476 16.79 15.5356C16.5871 15.3236 16.3567 15.144 16.0989 14.9964C15.9147 14.9044 15.8454 14.7386 15.8916 14.499C15.9377 14.2595 16.0805 14.0105 16.32 13.7526C16.3384 13.734 16.5274 13.6191 16.8866 13.4071C17.2458 13.1951 17.4993 12.9785 17.6469 12.7574C17.8124 12.4995 18.0982 12.2321 18.5035 11.9556C18.5219 11.882 18.5359 11.6794 18.545 11.3477C18.5541 11.0162 18.4667 10.6568 18.2824 10.2699C18.0982 9.88271 17.8492 9.68947 17.536 9.68947C17.0937 9.67108 16.7805 9.79994 16.5962 10.0764C16.412 10.3525 16.3293 10.6936 16.3476 11.099C16.3663 11.449 16.4538 11.7574 16.6102 12.0248C16.7669 12.2922 16.9098 12.4259 17.0388 12.4259C17.2413 12.4072 17.3058 12.4807 17.2321 12.6467C17.1216 12.8496 16.974 12.9789 16.7899 13.0339C16.6605 13.0705 16.5176 12.9463 16.3613 12.6607C16.2045 12.3751 16.0849 12.0297 16.002 11.6242C15.9192 11.2188 15.8867 10.8779 15.9054 10.6013C15.942 10.0301 16.0939 9.48181 16.3613 8.9566C16.6287 8.43148 17.011 8.17803 17.5083 8.19623C18.0243 8.21491 18.4393 8.52839 18.7524 9.13628C19.0659 9.74427 19.2132 10.5739 19.1948 11.6241C19.2502 11.7531 19.3929 11.7992 19.6234 11.7622C19.8533 11.7253 20.1576 11.7205 20.5353 11.7483C20.9127 11.7758 21.1845 11.8724 21.3504 12.0383C21.3691 12.0383 21.3783 11.8999 21.3783 11.6237C21.0465 9.30222 21.8664 8.06756 23.8383 7.92002C24.1325 7.9754 24.3813 8.04462 24.5838 8.1273C24.7872 8.21007 25.0029 8.34861 25.2335 8.54195C25.4644 8.73528 25.6572 9.01623 25.8139 9.385C25.9706 9.75395 26.0951 10.2146 26.1872 10.7672V11.7897C26.1872 12.3793 26.067 12.7111 25.8274 12.7849C25.4408 12.9137 25.1648 12.9093 24.9991 12.7709C24.8331 12.6325 24.8511 12.3886 25.0541 12.0384C25.2382 11.5778 25.2015 11.043 24.9433 10.435C24.6856 9.82714 24.2154 9.55064 23.5339 9.60602C23.0731 9.62451 22.7414 9.87332 22.5387 10.3523C22.336 10.8314 22.2625 11.3013 22.3178 11.762C22.3731 12.2227 22.4741 12.4622 22.622 12.4805C22.7323 12.4992 23.0599 12.6464 23.6034 12.9229C24.1476 13.1993 24.5575 13.3651 24.8335 13.4204C25.5521 13.5675 25.9615 13.7979 26.0633 14.1113C26.1646 14.4249 26.1232 14.8808 25.9391 15.4796C25.7545 16.0787 25.6995 16.5712 25.7737 16.9584C25.8473 17.3642 25.9857 17.7323 26.1886 18.064C26.3913 18.396 26.6073 18.6998 26.8379 18.9764C27.0681 19.2522 27.3395 19.7686 27.6535 20.5239C27.9663 21.2796 28.2519 22.2285 28.5096 23.371C28.5278 23.3894 28.5968 23.4539 28.7168 23.5645C28.8367 23.675 28.9561 23.8131 29.0763 23.979C29.1965 24.1449 29.339 24.3706 29.505 24.6562C29.6707 24.942 29.8509 25.3612 30.0443 25.9142C30.2372 26.4668 30.4174 27.1029 30.583 27.8212C30.7858 28.6694 30.8917 29.6543 30.901 30.7791C30.9104 31.9029 30.9839 32.6723 31.1223 33.087C31.2609 33.5022 31.6154 33.6725 32.1865 33.5986C32.9052 33.5618 33.3664 33.1749 33.5681 32.4377C34.1764 30.3001 33.6795 27.7384 32.076 24.7537C31.4677 23.5927 30.9429 22.8279 30.5002 22.4595C31.145 22.828 31.8086 23.5187 32.4908 24.5325C33.1726 25.5462 33.6053 26.4954 33.7895 27.3793C33.8074 27.4718 33.8585 27.7161 33.9412 28.1118C34.024 28.5081 34.0704 28.7387 34.0791 28.803C34.088 28.8675 34.1255 29.0564 34.1895 29.3696C34.2543 29.6829 34.2862 29.8857 34.2862 29.9778C34.2862 30.0703 34.2951 30.2498 34.314 30.5168C34.3329 30.7839 34.3279 30.9912 34.3 31.1387C34.2722 31.2864 34.245 31.4846 34.2173 31.7328C34.1895 31.9815 34.1437 32.2211 34.0791 32.4518C34.0155 32.682 33.9462 32.9358 33.8723 33.2118C34.8855 33.6541 35.3924 34.0407 35.3924 34.3727C35.0057 34.0593 34.4524 33.8522 33.7335 33.7519C33.0145 33.6501 32.3473 33.7468 31.7297 34.0417C31.1122 34.3366 30.7941 34.8246 30.7756 35.5061C30.1123 35.5061 29.6422 35.6718 29.3662 36.0041C28.9609 36.4829 28.7493 37.1322 28.7308 37.9526C28.7123 38.7722 28.7808 39.6664 28.9375 40.6331C29.0949 41.6005 29.1545 42.2773 29.1173 42.6646ZM17.5365 10.6288C17.4811 10.6106 17.4351 10.5549 17.3985 10.4629C17.3985 10.2975 17.4812 10.2325 17.6471 10.2696C17.7578 10.3062 17.864 10.4445 17.9651 10.684C18.0664 10.9235 18.0895 11.2 18.0343 11.5133C18.0343 11.5686 18.0068 11.5965 17.9511 11.596C17.7482 11.596 17.6746 11.4119 17.73 11.0434C17.7851 10.767 17.7206 10.6288 17.5365 10.6288ZM24.6954 11.0713L24.6404 11.1541C24.4933 11.246 24.4202 11.2645 24.4202 11.2094C24.3459 10.7116 24.1802 10.426 23.9225 10.3523L23.8118 10.2971C23.6826 10.1864 23.7468 10.1219 24.0046 10.1035C24.0598 10.0851 24.1427 10.1125 24.2534 10.1863C24.364 10.2602 24.4654 10.3754 24.5576 10.532C24.6493 10.6889 24.6954 10.8683 24.6954 11.0713Z" fill="url(#paint0_linear)"/>
<defs>
<linearGradient id="paint0_linear" x1="21.9672" y1="0.89856" x2="21.9672" y2="50.4336" gradientUnits="userSpaceOnUse">
<stop stop-color="#FDB786"/>
<stop offset="0.3125" stop-color="#F1A570"/>
<stop offset="0.651042" stop-color="#EE7A30"/>
<stop offset="1" stop-color="#ED6619"/>
</linearGradient>
</defs>
</svg>
