<svg width="25" height="37" viewBox="0 0 25 37" fill="none" xmlns="http://www.w3.org/2000/svg">
<path d="M21.702 0.666626H2.76875C1.42467 0.666626 0.333496 1.75717 0.333496 3.1025V34.3883C0.333496 35.7337 1.42467 36.8242 2.76875 36.8242H21.7022C23.0463 36.8242 24.1375 35.7337 24.1375 34.3883V3.1025C24.1374 1.75717 23.0463 0.666626 21.702 0.666626ZM3.69855 5.14808C3.69855 4.80844 3.97394 4.53318 4.31308 4.53318H20.1578C20.4981 4.53318 20.7734 4.80857 20.7734 5.14808V28.1991C20.7734 28.5386 20.4981 28.8138 20.1578 28.8138H4.31295C3.97388 28.8138 3.69843 28.5385 3.69843 28.1991V5.14808H3.69855ZM8.25228 33.1331C8.25228 33.4591 7.98759 33.7239 7.66148 33.7239H3.46192C3.13581 33.7239 2.87113 33.4591 2.87113 33.1331V32.0951C2.87113 31.7691 3.13581 31.5041 3.46192 31.5041H7.66148C7.98759 31.5041 8.25228 31.769 8.25228 32.0951V33.1331ZM12.2366 34.2795C11.3161 34.2795 10.571 33.534 10.571 32.6139C10.571 31.6942 11.3161 30.9483 12.2366 30.9483C13.1559 30.9483 13.9021 31.6941 13.9021 32.6139C13.902 33.534 13.1558 34.2795 12.2366 34.2795ZM21.6008 33.1331C21.6008 33.4591 21.336 33.7239 21.0099 33.7239H16.8103C16.4844 33.7239 16.2196 33.4591 16.2196 33.1331V32.0951C16.2196 31.7691 16.4844 31.5041 16.8103 31.5041H21.0099C21.336 31.5041 21.6008 31.769 21.6008 32.0951V33.1331Z" fill="url(#paint0_linear)"/>
<defs>
<linearGradient id="paint0_linear" x1="12.2355" y1="0.666626" x2="12.2355" y2="36.8242" gradientUnits="userSpaceOnUse">
<stop stop-color="#9D77F7"/>
<stop offset="0.348958" stop-color="#8172DF"/>
<stop offset="0.708333" stop-color="#766BDF"/>
<stop offset="1" stop-color="#6567D6"/>
</linearGradient>
</defs>
</svg>
