<svg width="37" height="40" viewBox="0 0 37 40" fill="none" xmlns="http://www.w3.org/2000/svg">
<path d="M32.0944 0H4.59567C2.42599 0 0.666504 1.56099 0.666504 3.48643V35.7375C0.666504 37.6629 2.42583 39.2239 4.59567 39.2239H32.0943C34.2637 39.2239 36.0232 37.6631 36.0232 35.7375V3.48629C36.0232 1.56085 34.2637 0 32.0944 0ZM18.3449 37.309C17.4155 37.309 16.6586 36.6394 16.6586 35.8119C16.6586 34.9859 17.4155 34.3149 18.3449 34.3149C19.2757 34.3149 20.0326 34.9859 20.0326 35.8119C20.0327 36.6394 19.2757 37.309 18.3449 37.309ZM32.5863 32.0474C32.5863 32.4675 32.202 32.8077 31.7289 32.8077H4.96095C4.4877 32.8077 4.10367 32.4674 4.10367 32.0474V3.73524C4.10367 3.31517 4.4877 2.97495 4.96095 2.97495H31.7289C32.202 2.97495 32.5863 3.31517 32.5863 3.73524V32.0474Z" fill="url(#paint0_linear)"/>
<defs>
<linearGradient id="paint0_linear" x1="18.3449" y1="0" x2="18.3449" y2="39.2239" gradientUnits="userSpaceOnUse">
<stop stop-color="#9D77F7"/>
<stop offset="0.348958" stop-color="#8172DF"/>
<stop offset="0.708333" stop-color="#766BDF"/>
<stop offset="1" stop-color="#6567D6"/>
</linearGradient>
</defs>
</svg>
