<svg width="113" height="113" viewBox="0 0 113 113" fill="none" xmlns="http://www.w3.org/2000/svg">
<circle cx="56.5" cy="56.5" r="56.5" fill="#EAE7FD"/>
<mask id="mask0" mask-type="alpha" maskUnits="userSpaceOnUse" x="0" y="0" width="113" height="113">
<circle cx="56.5" cy="56.5" r="56.5" fill="#EAE7FD"/>
</mask>
<g mask="url(#mask0)">
<g filter="url(#filter0_d)">
<path d="M32.6823 42.4765C47.0243 31.8176 51.9662 23.285 55.3227 16.6811C55.323 16.6811 55.323 16.6809 55.323 16.6809L55.323 16.6811C58.6791 23.285 63.6213 31.8177 77.9633 42.4764C102.417 60.6505 79.399 86.0187 59.1615 72.0564C60.4801 80.7199 64.9801 87.036 69.55 89.7557L69.55 92.5523L55.323 92.5523L41.0959 92.5523L41.0959 89.7561C45.6661 87.0364 50.1658 80.7202 51.4845 72.0564C31.2472 86.0189 8.22911 60.6505 32.6823 42.4765Z" fill="url(#paint0_linear)"/>
</g>
<path d="M39.5503 59.4277C46.2553 54.303 49.6079 50.2281 49.6079 47.203C49.6079 45.3518 48.8594 44.4262 47.3623 44.4262C46.5189 44.4262 45.8969 44.7422 45.4963 45.3743C45.1168 46.0065 44.9059 46.9885 44.8637 48.3205H39.5819C39.7084 45.4082 40.5307 43.2184 42.0489 41.7509C43.567 40.2835 45.4857 39.5498 47.8051 39.5498C50.2299 39.5498 52.0537 40.2045 53.2767 41.5139C54.5207 42.8233 55.1427 44.5277 55.1427 46.6273C55.1427 48.9526 54.3098 51.2327 52.6441 53.4677C50.9784 55.6801 48.9859 57.5539 46.6665 59.0891H55.4906V63.7622H39.5503V59.4277Z" fill="white"/>
<path d="M58.7548 45.5098V40.0916H67.8003V64.0331H62.1073V45.5098H58.7548Z" fill="white"/>
</g>
<defs>
<filter id="filter0_d" x="7.12939" y="1.68091" width="96.3874" height="105.871" filterUnits="userSpaceOnUse" color-interpolation-filters="sRGB">
<feFlood flood-opacity="0" result="BackgroundImageFix"/>
<feColorMatrix in="SourceAlpha" type="matrix" values="0 0 0 0 0 0 0 0 0 0 0 0 0 0 0 0 0 0 127 0"/>
<feOffset/>
<feGaussianBlur stdDeviation="7.5"/>
<feColorMatrix type="matrix" values="0 0 0 0 0.517647 0 0 0 0 0.454902 0 0 0 0 0.870588 0 0 0 0.7 0"/>
<feBlend mode="normal" in2="BackgroundImageFix" result="effect1_dropShadow"/>
<feBlend mode="normal" in="SourceGraphic" in2="effect1_dropShadow" result="shape"/>
</filter>
<linearGradient id="paint0_linear" x1="55.3229" y1="16.6809" x2="55.3229" y2="92.5523" gradientUnits="userSpaceOnUse">
<stop stop-color="#9E77F7"/>
<stop offset="0.390625" stop-color="#8875E2"/>
<stop offset="0.713542" stop-color="#6B6AD9"/>
<stop offset="1" stop-color="#6467D6"/>
</linearGradient>
</defs>
</svg>
