<svg width="113" height="113" viewBox="0 0 113 113" fill="none" xmlns="http://www.w3.org/2000/svg">
<circle cx="56.5" cy="56.5" r="56.5" fill="#EAE7FD"/>
<mask id="mask0" mask-type="alpha" maskUnits="userSpaceOnUse" x="0" y="0" width="113" height="113">
<circle cx="56.5" cy="56.5" r="56.5" fill="#EAE7FD"/>
</mask>
<g mask="url(#mask0)">
<g filter="url(#filter0_d)">
<rect x="20.5" y="27.5" width="74" height="56" rx="3.5" fill="white" stroke="url(#paint0_linear)" stroke-width="5"/>
<path d="M32.2291 35.5807L29.438 41.8081H27.4854L30.3095 35.7929H27V34.2334H32.2291V35.5807Z" fill="url(#paint1_linear)"/>
<path d="M36.8378 36.3764C36.7863 36.0723 36.6834 35.8424 36.5289 35.6868C36.3818 35.5312 36.1685 35.4534 35.8891 35.4534C35.4625 35.4534 35.1573 35.6444 34.9734 36.0263C34.7969 36.4011 34.716 36.9811 34.7307 37.7661C34.8557 37.4762 35.069 37.2498 35.3706 37.0872C35.6795 36.9174 36.0362 36.8326 36.4407 36.8326C37.1761 36.8326 37.7571 37.0483 38.1837 37.4797C38.6102 37.904 38.8235 38.5158 38.8235 39.315C38.8235 39.8172 38.7169 40.2627 38.5036 40.6517C38.2903 41.0407 37.9741 41.3448 37.5549 41.5641C37.143 41.7763 36.6466 41.8824 36.0656 41.8824C34.9256 41.8824 34.1387 41.5429 33.7048 40.8639C33.2708 40.1849 33.0539 39.2443 33.0539 38.042C33.0539 36.6557 33.2856 35.6373 33.7489 34.9866C34.2122 34.3289 34.9661 34 36.0104 34C36.8341 34 37.4593 34.2263 37.8858 34.679C38.3124 35.1245 38.5514 35.6903 38.6029 36.3764H36.8378ZM34.8741 39.2301C34.8741 39.5555 34.9697 39.8207 35.161 40.0258C35.3522 40.2238 35.6317 40.3229 35.9994 40.3229C36.3303 40.3229 36.5877 40.2344 36.7716 40.0576C36.9628 39.8808 37.0584 39.6227 37.0584 39.2832C37.0584 38.9437 36.9628 38.6856 36.7716 38.5087C36.5804 38.3249 36.3193 38.2329 35.9884 38.2329C35.6721 38.2329 35.4073 38.3213 35.1941 38.4981C34.9808 38.6679 34.8741 38.9119 34.8741 39.2301Z" fill="url(#paint2_linear)"/>
<path d="M42.7368 35.9719C42.7368 35.5979 42.8431 35.2459 43.0558 34.9159C43.2685 34.5859 43.5838 34.3183 44.0018 34.1129C44.4271 33.9076 44.9405 33.8049 45.5418 33.8049C46.1505 33.8049 46.6638 33.9076 47.0818 34.1129C47.5071 34.3183 47.8225 34.5859 48.0278 34.9159C48.2405 35.2459 48.3468 35.5979 48.3468 35.9719C48.3468 36.3826 48.2515 36.7346 48.0608 37.0279C47.8701 37.3139 47.5915 37.5339 47.2248 37.6879C48.0975 38.0766 48.5338 38.7329 48.5338 39.6569C48.5338 40.1849 48.4018 40.6396 48.1378 41.0209C47.8738 41.3949 47.5145 41.6809 47.0598 41.8789C46.6125 42.0696 46.1065 42.1649 45.5418 42.1649C44.9845 42.1649 44.4785 42.0696 44.0238 41.8789C43.5691 41.6809 43.2098 41.3949 42.9458 41.0209C42.6818 40.6396 42.5498 40.1849 42.5498 39.6569C42.5498 38.7329 42.9861 38.0766 43.8588 37.6879C43.4921 37.5339 43.2135 37.3139 43.0228 37.0279C42.8321 36.7346 42.7368 36.3826 42.7368 35.9719ZM44.5848 36.2909C44.5848 36.5916 44.6691 36.8226 44.8378 36.9839C45.0138 37.1379 45.2485 37.2149 45.5418 37.2149C45.8351 37.2149 46.0661 37.1379 46.2348 36.9839C46.4108 36.8226 46.4988 36.5916 46.4988 36.2909C46.4988 35.9976 46.4108 35.7666 46.2348 35.5979C46.0588 35.4293 45.8278 35.3449 45.5418 35.3449C45.2558 35.3449 45.0248 35.4293 44.8488 35.5979C44.6728 35.7666 44.5848 35.9976 44.5848 36.2909ZM44.3758 39.5469C44.3758 39.8769 44.4785 40.1373 44.6838 40.3279C44.8965 40.5186 45.1825 40.6139 45.5418 40.6139C45.9011 40.6139 46.1835 40.5186 46.3888 40.3279C46.6015 40.1373 46.7078 39.8769 46.7078 39.5469C46.7078 39.2169 46.5978 38.9603 46.3778 38.7769C46.1651 38.5863 45.8865 38.4909 45.5418 38.4909C45.1971 38.4909 44.9148 38.5863 44.6948 38.7769C44.4821 38.9603 44.3758 39.2169 44.3758 39.5469Z" fill="url(#paint3_linear)"/>
<path d="M49.8266 35.9719C49.8266 35.5979 49.933 35.2459 50.1456 34.9159C50.3583 34.5859 50.6736 34.3183 51.0916 34.1129C51.517 33.9076 52.0303 33.8049 52.6316 33.8049C53.2403 33.8049 53.7536 33.9076 54.1716 34.1129C54.597 34.3183 54.9123 34.5859 55.1176 34.9159C55.3303 35.2459 55.4366 35.5979 55.4366 35.9719C55.4366 36.3826 55.3413 36.7346 55.1506 37.0279C54.96 37.3139 54.6813 37.5339 54.3146 37.6879C55.1873 38.0766 55.6236 38.7329 55.6236 39.6569C55.6236 40.1849 55.4916 40.6396 55.2276 41.0209C54.9636 41.3949 54.6043 41.6809 54.1496 41.8789C53.7023 42.0696 53.1963 42.1649 52.6316 42.1649C52.0743 42.1649 51.5683 42.0696 51.1136 41.8789C50.659 41.6809 50.2996 41.3949 50.0356 41.0209C49.7716 40.6396 49.6396 40.1849 49.6396 39.6569C49.6396 38.7329 50.076 38.0766 50.9486 37.6879C50.582 37.5339 50.3033 37.3139 50.1126 37.0279C49.922 36.7346 49.8266 36.3826 49.8266 35.9719ZM51.6746 36.2909C51.6746 36.5916 51.759 36.8226 51.9276 36.9839C52.1036 37.1379 52.3383 37.2149 52.6316 37.2149C52.925 37.2149 53.156 37.1379 53.3246 36.9839C53.5006 36.8226 53.5886 36.5916 53.5886 36.2909C53.5886 35.9976 53.5006 35.7666 53.3246 35.5979C53.1486 35.4293 52.9176 35.3449 52.6316 35.3449C52.3456 35.3449 52.1146 35.4293 51.9386 35.5979C51.7626 35.7666 51.6746 35.9976 51.6746 36.2909ZM51.4656 39.5469C51.4656 39.8769 51.5683 40.1373 51.7736 40.3279C51.9863 40.5186 52.2723 40.6139 52.6316 40.6139C52.991 40.6139 53.2733 40.5186 53.4786 40.3279C53.6913 40.1373 53.7976 39.8769 53.7976 39.5469C53.7976 39.2169 53.6876 38.9603 53.4676 38.7769C53.255 38.5863 52.9763 38.4909 52.6316 38.4909C52.287 38.4909 52.0046 38.5863 51.7846 38.7769C51.572 38.9603 51.4656 39.2169 51.4656 39.5469Z" fill="url(#paint4_linear)"/>
<path d="M32.4122 46.5429L29.6292 52.9999H27.6822L30.4982 46.7629H27.1982V45.1459H32.4122V46.5429Z" fill="url(#paint5_linear)"/>
<path d="M33.3447 46.9719C33.3447 46.5979 33.451 46.2459 33.6637 45.9159C33.8763 45.5859 34.1917 45.3183 34.6097 45.1129C35.035 44.9076 35.5483 44.8049 36.1497 44.8049C36.7583 44.8049 37.2717 44.9076 37.6897 45.1129C38.115 45.3183 38.4303 45.5859 38.6357 45.9159C38.8483 46.2459 38.9547 46.5979 38.9547 46.9719C38.9547 47.3826 38.8593 47.7346 38.6687 48.0279C38.478 48.3139 38.1993 48.5339 37.8327 48.6879C38.7053 49.0766 39.1417 49.7329 39.1417 50.6569C39.1417 51.1849 39.0097 51.6396 38.7457 52.0209C38.4817 52.3949 38.1223 52.6809 37.6677 52.8789C37.2203 53.0696 36.7143 53.1649 36.1497 53.1649C35.5923 53.1649 35.0863 53.0696 34.6317 52.8789C34.177 52.6809 33.8177 52.3949 33.5537 52.0209C33.2897 51.6396 33.1577 51.1849 33.1577 50.6569C33.1577 49.7329 33.594 49.0766 34.4667 48.6879C34.1 48.5339 33.8213 48.3139 33.6307 48.0279C33.44 47.7346 33.3447 47.3826 33.3447 46.9719ZM35.1927 47.2909C35.1927 47.5916 35.277 47.8226 35.4457 47.9839C35.6217 48.1379 35.8563 48.2149 36.1497 48.2149C36.443 48.2149 36.674 48.1379 36.8427 47.9839C37.0187 47.8226 37.1067 47.5916 37.1067 47.2909C37.1067 46.9976 37.0187 46.7666 36.8427 46.5979C36.6667 46.4293 36.4357 46.3449 36.1497 46.3449C35.8637 46.3449 35.6327 46.4293 35.4567 46.5979C35.2807 46.7666 35.1927 46.9976 35.1927 47.2909ZM34.9837 50.5469C34.9837 50.8769 35.0863 51.1373 35.2917 51.3279C35.5043 51.5186 35.7903 51.6139 36.1497 51.6139C36.509 51.6139 36.7913 51.5186 36.9967 51.3279C37.2093 51.1373 37.3157 50.8769 37.3157 50.5469C37.3157 50.2169 37.2057 49.9603 36.9857 49.7769C36.773 49.5863 36.4943 49.4909 36.1497 49.4909C35.805 49.4909 35.5227 49.5863 35.3027 49.7769C35.09 49.9603 34.9837 50.2169 34.9837 50.5469Z" fill="url(#paint6_linear)"/>
<path d="M28.1211 58.9831V57.2231H31.2671V65.0001H29.2871V58.9831H28.1211Z" fill="url(#paint7_linear)"/>
<path d="M34.319 62.6131C34.4217 63.2511 34.7443 63.5701 35.287 63.5701C35.7123 63.5701 36.0093 63.3757 36.178 62.9871C36.354 62.5984 36.4347 61.9934 36.42 61.1721C36.2953 61.4727 36.079 61.7111 35.771 61.8871C35.4703 62.0557 35.1183 62.1401 34.715 62.1401C33.9817 62.1401 33.4023 61.9201 32.977 61.4801C32.5517 61.0327 32.339 60.3947 32.339 59.5661C32.339 59.0454 32.4453 58.5834 32.658 58.1801C32.8707 57.7767 33.1823 57.4651 33.593 57.2451C34.011 57.0177 34.5097 56.9041 35.089 56.9041C35.8737 56.9041 36.486 57.0691 36.926 57.3991C37.366 57.7291 37.6703 58.1801 37.839 58.7521C38.0077 59.3167 38.092 59.9987 38.092 60.7981C38.092 62.2061 37.8757 63.2731 37.443 63.9991C37.0177 64.7177 36.299 65.0771 35.287 65.0771C34.7297 65.0771 34.2493 64.9671 33.846 64.7471C33.45 64.5197 33.142 64.2191 32.922 63.8451C32.7093 63.4711 32.5883 63.0604 32.559 62.6131H34.319ZM36.277 59.6541C36.277 59.3167 36.1817 59.0454 35.991 58.8401C35.8003 58.6274 35.5217 58.5211 35.155 58.5211C34.825 58.5211 34.5647 58.6127 34.374 58.7961C34.1907 58.9794 34.099 59.2471 34.099 59.5991C34.099 59.9511 34.1943 60.2224 34.385 60.4131C34.5757 60.5964 34.836 60.6881 35.166 60.6881C35.4813 60.6881 35.7453 60.6001 35.958 60.4241C36.1707 60.2407 36.277 59.9841 36.277 59.6541Z" fill="url(#paint8_linear)"/>
<path d="M30.3222 68.8821C30.8648 68.8821 31.3305 68.9774 31.7192 69.1681C32.1078 69.3514 32.4012 69.6081 32.5992 69.9381C32.8045 70.2607 32.9072 70.6274 32.9072 71.0381C32.9072 71.5441 32.7752 71.9511 32.5112 72.2591C32.2545 72.5671 31.9318 72.7614 31.5432 72.8421V72.8971C32.5478 73.2197 33.0502 73.8467 33.0502 74.7781C33.0502 75.2254 32.9475 75.6251 32.7422 75.9771C32.5368 76.3217 32.2362 76.5931 31.8402 76.7911C31.4515 76.9817 30.9822 77.0771 30.4322 77.0771C29.5375 77.0771 28.8262 76.8571 28.2982 76.4171C27.7775 75.9771 27.4952 75.3061 27.4512 74.4041H29.2882C29.3028 74.7487 29.3982 75.0201 29.5742 75.2181C29.7502 75.4161 30.0068 75.5151 30.3442 75.5151C30.6155 75.5151 30.8282 75.4344 30.9822 75.2731C31.1435 75.1117 31.2242 74.9027 31.2242 74.6461C31.2242 74.0081 30.7622 73.6891 29.8382 73.6891H29.4862V72.1601H29.8272C30.6558 72.1747 31.0702 71.8777 31.0702 71.2691C31.0702 71.0051 30.9968 70.8034 30.8502 70.6641C30.7108 70.5174 30.5202 70.4441 30.2782 70.4441C30.0142 70.4441 29.8052 70.5357 29.6512 70.7191C29.4972 70.8951 29.4092 71.1334 29.3872 71.4341H27.5502C27.5868 70.6127 27.8435 69.9821 28.3202 69.5421C28.7968 69.1021 29.4642 68.8821 30.3222 68.8821Z" fill="url(#paint9_linear)"/>
<path d="M34.1443 75.5701V73.9971L37.6973 69.1241H39.7213V73.9311H40.6563V75.5701H39.7213V77.0001H37.8183V75.5701H34.1443ZM37.9723 71.3021L36.0583 73.9311H37.9723V71.3021Z" fill="url(#paint10_linear)"/>
<path d="M43.374 51.5041C45.706 49.8394 46.872 48.5157 46.872 47.5331C46.872 46.9317 46.6117 46.6311 46.091 46.6311C45.7977 46.6311 45.5814 46.7337 45.442 46.9391C45.31 47.1444 45.2367 47.4634 45.222 47.8961H43.385C43.429 46.9501 43.715 46.2387 44.243 45.7621C44.771 45.2854 45.4384 45.0471 46.245 45.0471C47.0884 45.0471 47.7227 45.2597 48.148 45.6851C48.5807 46.1104 48.797 46.6641 48.797 47.3461C48.797 48.1014 48.5074 48.8421 47.928 49.5681C47.3487 50.2867 46.6557 50.8954 45.849 51.3941H48.918V52.9121H43.374V51.5041Z" fill="url(#paint11_linear)"/>
<path d="M52.5525 44.8821C53.0952 44.8821 53.5608 44.9774 53.9495 45.1681C54.3382 45.3514 54.6315 45.6081 54.8295 45.9381C55.0348 46.2607 55.1375 46.6274 55.1375 47.0381C55.1375 47.5441 55.0055 47.9511 54.7415 48.2591C54.4848 48.5671 54.1622 48.7614 53.7735 48.8421V48.8971C54.7782 49.2197 55.2805 49.8467 55.2805 50.7781C55.2805 51.2254 55.1778 51.6251 54.9725 51.9771C54.7672 52.3217 54.4665 52.5931 54.0705 52.7911C53.6818 52.9817 53.2125 53.0771 52.6625 53.0771C51.7678 53.0771 51.0565 52.8571 50.5285 52.4171C50.0078 51.9771 49.7255 51.3061 49.6815 50.4041H51.5185C51.5332 50.7487 51.6285 51.0201 51.8045 51.2181C51.9805 51.4161 52.2372 51.5151 52.5745 51.5151C52.8458 51.5151 53.0585 51.4344 53.2125 51.2731C53.3738 51.1117 53.4545 50.9027 53.4545 50.6461C53.4545 50.0081 52.9925 49.6891 52.0685 49.6891H51.7165V48.1601H52.0575C52.8862 48.1747 53.3005 47.8777 53.3005 47.2691C53.3005 47.0051 53.2272 46.8034 53.0805 46.6641C52.9412 46.5174 52.7505 46.4441 52.5085 46.4441C52.2445 46.4441 52.0355 46.5357 51.8815 46.7191C51.7275 46.8951 51.6395 47.1334 51.6175 47.4341H49.7805C49.8172 46.6127 50.0738 45.9821 50.5505 45.5421C51.0272 45.1021 51.6945 44.8821 52.5525 44.8821Z" fill="url(#paint12_linear)"/>
<path d="M48.204 58.6859H44.706V60.2589C44.86 60.0829 45.0727 59.9472 45.344 59.8519C45.6227 59.7492 45.9234 59.6979 46.246 59.6979C46.7667 59.6979 47.203 59.8152 47.555 60.0499C47.907 60.2772 48.1674 60.5852 48.336 60.9739C48.5047 61.3626 48.589 61.7916 48.589 62.2609C48.589 63.1116 48.3507 63.7862 47.874 64.2849C47.3974 64.7762 46.7264 65.0219 45.861 65.0219C45.2744 65.0219 44.7647 64.9192 44.332 64.7139C43.8994 64.5012 43.5657 64.2079 43.331 63.8339C43.0964 63.4599 42.9717 63.0272 42.957 62.5359H44.794C44.8307 62.7852 44.9297 62.9906 45.091 63.1519C45.2597 63.3132 45.487 63.3939 45.773 63.3939C46.103 63.3939 46.3487 63.2876 46.51 63.0749C46.6787 62.8622 46.763 62.5799 46.763 62.2279C46.763 61.8906 46.675 61.6302 46.499 61.4469C46.323 61.2636 46.0774 61.1719 45.762 61.1719C45.52 61.1719 45.3184 61.2269 45.157 61.3369C44.9957 61.4396 44.8857 61.5752 44.827 61.7439H43.001V57.0359H48.204V58.6859Z" fill="url(#paint13_linear)"/>
<path d="M49.5524 63.5699V61.9969L53.1054 57.1239H55.1294V61.9309H56.0644V63.5699H55.1294V64.9999H53.2264V63.5699H49.5524ZM53.3804 59.3019L51.4664 61.9309H53.3804V59.3019Z" fill="url(#paint14_linear)"/>
<path d="M44.1211 70.983V69.223H47.2671V77H45.2871V70.983H44.1211Z" fill="url(#paint15_linear)"/>
<path d="M48.405 75.57V73.997L51.958 69.124H53.982V73.931H54.917V75.57H53.982V77H52.079V75.57H48.405ZM52.233 71.302L50.319 73.931H52.233V71.302Z" fill="url(#paint16_linear)"/>
<path d="M58.4839 51.5701V49.9971L62.0369 45.1241H64.0609V49.9311H64.9959V51.5701H64.0609V53.0001H62.1579V51.5701H58.4839ZM62.3119 47.3021L60.3979 49.9311H62.3119V47.3021Z" fill="url(#paint17_linear)"/>
<path d="M65.7645 51.5041C68.0965 49.8395 69.2625 48.5158 69.2625 47.5331C69.2625 46.9318 69.0022 46.6311 68.4815 46.6311C68.1882 46.6311 67.9718 46.7338 67.8325 46.9391C67.7005 47.1445 67.6272 47.4635 67.6125 47.8961H65.7755C65.8195 46.9501 66.1055 46.2388 66.6335 45.7621C67.1615 45.2855 67.8288 45.0471 68.6355 45.0471C69.4788 45.0471 70.1132 45.2598 70.5385 45.6851C70.9712 46.1105 71.1875 46.6641 71.1875 47.3461C71.1875 48.1015 70.8978 48.8421 70.3185 49.5681C69.7392 50.2868 69.0462 50.8955 68.2395 51.3941H71.3085V52.9121H65.7645V51.5041Z" fill="url(#paint18_linear)"/>
<path d="M59.374 63.5041C61.706 61.8394 62.872 60.5157 62.872 59.5331C62.872 58.9317 62.6117 58.6311 62.091 58.6311C61.7977 58.6311 61.5814 58.7337 61.442 58.9391C61.31 59.1444 61.2367 59.4634 61.222 59.8961H59.385C59.429 58.9501 59.715 58.2387 60.243 57.7621C60.771 57.2854 61.4384 57.0471 62.245 57.0471C63.0884 57.0471 63.7227 57.2597 64.148 57.6851C64.5807 58.1104 64.797 58.6641 64.797 59.3461C64.797 60.1014 64.5074 60.8421 63.928 61.5681C63.3487 62.2867 62.6557 62.8954 61.849 63.3941H64.918V64.9121H59.374V63.5041Z" fill="url(#paint19_linear)"/>
<path d="M68.5525 56.8821C69.0952 56.8821 69.5608 56.9774 69.9495 57.1681C70.3382 57.3514 70.6315 57.6081 70.8295 57.9381C71.0348 58.2607 71.1375 58.6274 71.1375 59.0381C71.1375 59.5441 71.0055 59.9511 70.7415 60.2591C70.4848 60.5671 70.1622 60.7614 69.7735 60.8421V60.8971C70.7782 61.2197 71.2805 61.8467 71.2805 62.7781C71.2805 63.2254 71.1778 63.6251 70.9725 63.9771C70.7672 64.3217 70.4665 64.5931 70.0705 64.7911C69.6818 64.9817 69.2125 65.0771 68.6625 65.0771C67.7678 65.0771 67.0565 64.8571 66.5285 64.4171C66.0078 63.9771 65.7255 63.3061 65.6815 62.4041H67.5185C67.5332 62.7487 67.6285 63.0201 67.8045 63.2181C67.9805 63.4161 68.2372 63.5151 68.5745 63.5151C68.8458 63.5151 69.0585 63.4344 69.2125 63.2731C69.3738 63.1117 69.4545 62.9027 69.4545 62.6461C69.4545 62.0081 68.9925 61.6891 68.0685 61.6891H67.7165V60.1601H68.0575C68.8862 60.1747 69.3005 59.8777 69.3005 59.2691C69.3005 59.0051 69.2272 58.8034 69.0805 58.6641C68.9412 58.5174 68.7505 58.4441 68.5085 58.4441C68.2445 58.4441 68.0355 58.5357 67.8815 58.7191C67.7275 58.8951 67.6395 59.1334 67.6175 59.4341H65.7805C65.8172 58.6127 66.0738 57.9821 66.5505 57.5421C67.0272 57.1021 67.6945 56.8821 68.5525 56.8821Z" fill="url(#paint20_linear)"/>
<path d="M62.3222 68.8821C62.8648 68.8821 63.3305 68.9774 63.7192 69.1681C64.1078 69.3514 64.4012 69.6081 64.5992 69.9381C64.8045 70.2607 64.9072 70.6274 64.9072 71.0381C64.9072 71.5441 64.7752 71.9511 64.5112 72.2591C64.2545 72.5671 63.9318 72.7614 63.5432 72.8421V72.8971C64.5478 73.2197 65.0502 73.8467 65.0502 74.7781C65.0502 75.2254 64.9475 75.6251 64.7422 75.9771C64.5368 76.3217 64.2362 76.5931 63.8402 76.7911C63.4515 76.9817 62.9822 77.0771 62.4322 77.0771C61.5375 77.0771 60.8262 76.8571 60.2982 76.4171C59.7775 75.9771 59.4952 75.3061 59.4512 74.4041H61.2882C61.3028 74.7487 61.3982 75.0201 61.5742 75.2181C61.7502 75.4161 62.0068 75.5151 62.3442 75.5151C62.6155 75.5151 62.8282 75.4344 62.9822 75.2731C63.1435 75.1117 63.2242 74.9027 63.2242 74.6461C63.2242 74.0081 62.7622 73.6891 61.8382 73.6891H61.4862V72.1601H61.8272C62.6558 72.1747 63.0702 71.8777 63.0702 71.2691C63.0702 71.0051 62.9968 70.8034 62.8502 70.6641C62.7108 70.5174 62.5202 70.4441 62.2782 70.4441C62.0142 70.4441 61.8052 70.5357 61.6512 70.7191C61.4972 70.8951 61.4092 71.1334 61.3872 71.4341H59.5502C59.5868 70.6127 59.8435 69.9821 60.3202 69.5421C60.7968 69.1021 61.4642 68.8821 62.3222 68.8821Z" fill="url(#paint21_linear)"/>
<path d="M66.0343 75.5041C68.3663 73.8394 69.5323 72.5157 69.5323 71.5331C69.5323 70.9317 69.272 70.6311 68.7513 70.6311C68.458 70.6311 68.2417 70.7337 68.1023 70.9391C67.9703 71.1444 67.897 71.4634 67.8823 71.8961H66.0453C66.0893 70.9501 66.3753 70.2387 66.9033 69.7621C67.4313 69.2854 68.0987 69.0471 68.9053 69.0471C69.7487 69.0471 70.383 69.2597 70.8083 69.6851C71.241 70.1104 71.4573 70.6641 71.4573 71.3461C71.4573 72.1014 71.1677 72.8421 70.5883 73.5681C70.009 74.2867 69.316 74.8954 68.5093 75.3941H71.5783V76.9121H66.0343V75.5041Z" fill="url(#paint22_linear)"/>
<path d="M75.4619 49.0289C75.4619 50.2462 75.7076 51.2106 76.1989 51.9219C76.6902 52.6332 77.4749 52.9889 78.5529 52.9889C79.6236 52.9889 80.4046 52.6332 80.8959 51.9219C81.3946 51.2106 81.6439 50.2462 81.6439 49.0289C81.6439 47.8189 81.3946 46.8619 80.8959 46.1579C80.4046 45.4466 79.6236 45.0909 78.5529 45.0909C77.4749 45.0909 76.6902 45.4466 76.1989 46.1579C75.7076 46.8619 75.4619 47.8189 75.4619 49.0289ZM79.7739 49.0289C79.7739 49.7256 79.6896 50.2646 79.5209 50.6459C79.3596 51.0199 79.0369 51.2069 78.5529 51.2069C78.0616 51.2069 77.7316 51.0199 77.5629 50.6459C77.3942 50.2646 77.3099 49.7256 77.3099 49.0289C77.3099 48.3396 77.3942 47.8079 77.5629 47.4339C77.7316 47.0599 78.0616 46.8729 78.5529 46.8729C79.0369 46.8729 79.3596 47.0599 79.5209 47.4339C79.6896 47.8006 79.7739 48.3322 79.7739 49.0289Z" fill="url(#paint23_linear)"/>
<path d="M88.283 46.6859H84.785V48.2589C84.939 48.0829 85.1517 47.9472 85.423 47.8519C85.7017 47.7492 86.0023 47.6979 86.325 47.6979C86.8457 47.6979 87.282 47.8152 87.634 48.0499C87.986 48.2772 88.2463 48.5852 88.415 48.9739C88.5837 49.3626 88.668 49.7916 88.668 50.2609C88.668 51.1116 88.4297 51.7862 87.953 52.2849C87.4763 52.7762 86.8053 53.0219 85.94 53.0219C85.3533 53.0219 84.8437 52.9192 84.411 52.7139C83.9783 52.5012 83.6447 52.2079 83.41 51.8339C83.1753 51.4599 83.0507 51.0272 83.036 50.5359H84.873C84.9097 50.7852 85.0087 50.9906 85.17 51.1519C85.3387 51.3132 85.566 51.3939 85.852 51.3939C86.182 51.3939 86.4277 51.2876 86.589 51.0749C86.7577 50.8622 86.842 50.5799 86.842 50.2279C86.842 49.8906 86.754 49.6302 86.578 49.4469C86.402 49.2636 86.1563 49.1719 85.841 49.1719C85.599 49.1719 85.3973 49.2269 85.236 49.3369C85.0747 49.4396 84.9647 49.5752 84.906 49.7439H83.08V45.0359H88.283V46.6859Z" fill="url(#paint24_linear)"/>
<path d="M75.7368 58.9719C75.7368 58.5979 75.8431 58.2459 76.0558 57.9159C76.2685 57.5859 76.5838 57.3183 77.0018 57.1129C77.4271 56.9076 77.9405 56.8049 78.5418 56.8049C79.1505 56.8049 79.6638 56.9076 80.0818 57.1129C80.5071 57.3183 80.8225 57.5859 81.0278 57.9159C81.2405 58.2459 81.3468 58.5979 81.3468 58.9719C81.3468 59.3826 81.2515 59.7346 81.0608 60.0279C80.8701 60.3139 80.5915 60.5339 80.2248 60.6879C81.0975 61.0766 81.5338 61.7329 81.5338 62.6569C81.5338 63.1849 81.4018 63.6396 81.1378 64.0209C80.8738 64.3949 80.5145 64.6809 80.0598 64.8789C79.6125 65.0696 79.1065 65.1649 78.5418 65.1649C77.9845 65.1649 77.4785 65.0696 77.0238 64.8789C76.5691 64.6809 76.2098 64.3949 75.9458 64.0209C75.6818 63.6396 75.5498 63.1849 75.5498 62.6569C75.5498 61.7329 75.9861 61.0766 76.8588 60.6879C76.4921 60.5339 76.2135 60.3139 76.0228 60.0279C75.8321 59.7346 75.7368 59.3826 75.7368 58.9719ZM77.5848 59.2909C77.5848 59.5916 77.6691 59.8226 77.8378 59.9839C78.0138 60.1379 78.2485 60.2149 78.5418 60.2149C78.8351 60.2149 79.0661 60.1379 79.2348 59.9839C79.4108 59.8226 79.4988 59.5916 79.4988 59.2909C79.4988 58.9976 79.4108 58.7666 79.2348 58.5979C79.0588 58.4293 78.8278 58.3449 78.5418 58.3449C78.2558 58.3449 78.0248 58.4293 77.8488 58.5979C77.6728 58.7666 77.5848 58.9976 77.5848 59.2909ZM77.3758 62.5469C77.3758 62.8769 77.4785 63.1373 77.6838 63.3279C77.8965 63.5186 78.1825 63.6139 78.5418 63.6139C78.9011 63.6139 79.1835 63.5186 79.3888 63.3279C79.6015 63.1373 79.7078 62.8769 79.7078 62.5469C79.7078 62.2169 79.5978 61.9603 79.3778 61.7769C79.1651 61.5863 78.8865 61.4909 78.5418 61.4909C78.1971 61.4909 77.9148 61.5863 77.6948 61.7769C77.4821 61.9603 77.3758 62.2169 77.3758 62.5469Z" fill="url(#paint25_linear)"/>
<path d="M84.4876 62.6129C84.5903 63.2509 84.913 63.5699 85.4556 63.5699C85.881 63.5699 86.178 63.3756 86.3466 62.9869C86.5226 62.5983 86.6033 61.9933 86.5886 61.1719C86.464 61.4726 86.2476 61.7109 85.9396 61.8869C85.639 62.0556 85.287 62.1399 84.8836 62.1399C84.1503 62.1399 83.571 61.9199 83.1456 61.4799C82.7203 61.0326 82.5076 60.3946 82.5076 59.5659C82.5076 59.0453 82.614 58.5833 82.8266 58.1799C83.0393 57.7766 83.351 57.4649 83.7616 57.2449C84.1796 57.0176 84.6783 56.9039 85.2576 56.9039C86.0423 56.9039 86.6546 57.0689 87.0946 57.3989C87.5346 57.7289 87.839 58.1799 88.0076 58.7519C88.1763 59.3166 88.2606 59.9986 88.2606 60.7979C88.2606 62.2059 88.0443 63.2729 87.6116 63.9989C87.1863 64.7176 86.4676 65.0769 85.4556 65.0769C84.8983 65.0769 84.418 64.9669 84.0146 64.7469C83.6186 64.5196 83.3106 64.2189 83.0906 63.8449C82.878 63.4709 82.757 63.0603 82.7276 62.6129H84.4876ZM86.4456 59.6539C86.4456 59.3166 86.3503 59.0453 86.1596 58.8399C85.969 58.6273 85.6903 58.5209 85.3236 58.5209C84.9936 58.5209 84.7333 58.6126 84.5426 58.7959C84.3593 58.9793 84.2676 59.2469 84.2676 59.5989C84.2676 59.9509 84.363 60.2223 84.5536 60.4129C84.7443 60.5963 85.0046 60.6879 85.3346 60.6879C85.65 60.6879 85.914 60.5999 86.1266 60.4239C86.3393 60.2406 86.4456 59.9839 86.4456 59.6539Z" fill="url(#paint26_linear)"/>
<path d="M78.3222 68.8821C78.8648 68.8821 79.3305 68.9774 79.7192 69.1681C80.1078 69.3514 80.4012 69.6081 80.5992 69.9381C80.8045 70.2607 80.9072 70.6274 80.9072 71.0381C80.9072 71.5441 80.7752 71.9511 80.5112 72.2591C80.2545 72.5671 79.9318 72.7614 79.5432 72.8421V72.8971C80.5478 73.2197 81.0502 73.8467 81.0502 74.7781C81.0502 75.2254 80.9475 75.6251 80.7422 75.9771C80.5368 76.3217 80.2362 76.5931 79.8402 76.7911C79.4515 76.9817 78.9822 77.0771 78.4322 77.0771C77.5375 77.0771 76.8262 76.8571 76.2982 76.4171C75.7775 75.9771 75.4952 75.3061 75.4512 74.4041H77.2882C77.3028 74.7487 77.3982 75.0201 77.5742 75.2181C77.7502 75.4161 78.0068 75.5151 78.3442 75.5151C78.6155 75.5151 78.8282 75.4344 78.9822 75.2731C79.1435 75.1117 79.2242 74.9027 79.2242 74.6461C79.2242 74.0081 78.7622 73.6891 77.8382 73.6891H77.4862V72.1601H77.8272C78.6558 72.1747 79.0702 71.8777 79.0702 71.2691C79.0702 71.0051 78.9968 70.8034 78.8502 70.6641C78.7108 70.5174 78.5202 70.4441 78.2782 70.4441C78.0142 70.4441 77.8052 70.5357 77.6512 70.7191C77.4972 70.8951 77.4092 71.1334 77.3872 71.4341H75.5502C75.5868 70.6127 75.8435 69.9821 76.3202 69.5421C76.7968 69.1021 77.4642 68.8821 78.3222 68.8821Z" fill="url(#paint27_linear)"/>
<path d="M82.1443 75.5701V73.9971L85.6973 69.1241H87.7213V73.9311H88.6563V75.5701H87.7213V77.0001H85.8183V75.5701H82.1443ZM85.9723 71.3021L84.0583 73.9311H85.9723V71.3021Z" fill="url(#paint28_linear)"/>
<path d="M64.204 35.6859H60.706V37.2589C60.86 37.0829 61.0727 36.9473 61.344 36.8519C61.6227 36.7493 61.9234 36.6979 62.246 36.6979C62.7667 36.6979 63.203 36.8153 63.555 37.0499C63.907 37.2773 64.1674 37.5853 64.336 37.9739C64.5047 38.3626 64.589 38.7916 64.589 39.2609C64.589 40.1116 64.3507 40.7863 63.874 41.2849C63.3974 41.7763 62.7264 42.0219 61.861 42.0219C61.2744 42.0219 60.7647 41.9193 60.332 41.7139C59.8994 41.5013 59.5657 41.2079 59.331 40.8339C59.0964 40.4599 58.9717 40.0273 58.957 39.5359H60.794C60.8307 39.7853 60.9297 39.9906 61.091 40.1519C61.2597 40.3133 61.487 40.3939 61.773 40.3939C62.103 40.3939 62.3487 40.2876 62.51 40.0749C62.6787 39.8623 62.763 39.5799 62.763 39.2279C62.763 38.8906 62.675 38.6303 62.499 38.4469C62.323 38.2636 62.0774 38.1719 61.762 38.1719C61.52 38.1719 61.3184 38.2269 61.157 38.3369C60.9957 38.4396 60.8857 38.5753 60.827 38.7439H59.001V34.0359H64.204V35.6859Z" fill="url(#paint29_linear)"/>
<path d="M65.8054 35.9719C65.8054 35.5979 65.9117 35.2459 66.1244 34.9159C66.3371 34.5859 66.6524 34.3183 67.0704 34.1129C67.4957 33.9076 68.0091 33.8049 68.6104 33.8049C69.2191 33.8049 69.7324 33.9076 70.1504 34.1129C70.5757 34.3183 70.8911 34.5859 71.0964 34.9159C71.3091 35.2459 71.4154 35.5979 71.4154 35.9719C71.4154 36.3826 71.3201 36.7346 71.1294 37.0279C70.9387 37.3139 70.6601 37.5339 70.2934 37.6879C71.1661 38.0766 71.6024 38.7329 71.6024 39.6569C71.6024 40.1849 71.4704 40.6396 71.2064 41.0209C70.9424 41.3949 70.5831 41.6809 70.1284 41.8789C69.6811 42.0696 69.1751 42.1649 68.6104 42.1649C68.0531 42.1649 67.5471 42.0696 67.0924 41.8789C66.6377 41.6809 66.2784 41.3949 66.0144 41.0209C65.7504 40.6396 65.6184 40.1849 65.6184 39.6569C65.6184 38.7329 66.0547 38.0766 66.9274 37.6879C66.5607 37.5339 66.2821 37.3139 66.0914 37.0279C65.9007 36.7346 65.8054 36.3826 65.8054 35.9719ZM67.6534 36.2909C67.6534 36.5916 67.7377 36.8226 67.9064 36.9839C68.0824 37.1379 68.3171 37.2149 68.6104 37.2149C68.9037 37.2149 69.1347 37.1379 69.3034 36.9839C69.4794 36.8226 69.5674 36.5916 69.5674 36.2909C69.5674 35.9976 69.4794 35.7666 69.3034 35.5979C69.1274 35.4293 68.8964 35.3449 68.6104 35.3449C68.3244 35.3449 68.0934 35.4293 67.9174 35.5979C67.7414 35.7666 67.6534 35.9976 67.6534 36.2909ZM67.4444 39.5469C67.4444 39.8769 67.5471 40.1373 67.7524 40.3279C67.9651 40.5186 68.2511 40.6139 68.6104 40.6139C68.9697 40.6139 69.2521 40.5186 69.4574 40.3279C69.6701 40.1373 69.7764 39.8769 69.7764 39.5469C69.7764 39.2169 69.6664 38.9603 69.4464 38.7769C69.2337 38.5863 68.9551 38.4909 68.6104 38.4909C68.2657 38.4909 67.9834 38.5863 67.7634 38.7769C67.5507 38.9603 67.4444 39.2169 67.4444 39.5469Z" fill="url(#paint30_linear)"/>
<path d="M81.204 35.6859H77.706V37.2589C77.86 37.0829 78.0727 36.9472 78.344 36.8519C78.6227 36.7492 78.9234 36.6979 79.246 36.6979C79.7667 36.6979 80.203 36.8152 80.555 37.0499C80.907 37.2772 81.1674 37.5852 81.336 37.9739C81.5047 38.3626 81.589 38.7916 81.589 39.2609C81.589 40.1116 81.3507 40.7862 80.874 41.2849C80.3974 41.7762 79.7264 42.0219 78.861 42.0219C78.2744 42.0219 77.7647 41.9192 77.332 41.7139C76.8994 41.5012 76.5657 41.2079 76.331 40.8339C76.0964 40.4599 75.9717 40.0272 75.957 39.5359H77.794C77.8307 39.7852 77.9297 39.9906 78.091 40.1519C78.2597 40.3132 78.487 40.3939 78.773 40.3939C79.103 40.3939 79.3487 40.2876 79.51 40.0749C79.6787 39.8622 79.763 39.5799 79.763 39.2279C79.763 38.8906 79.675 38.6302 79.499 38.4469C79.323 38.2636 79.0774 38.1719 78.762 38.1719C78.52 38.1719 78.3184 38.2269 78.157 38.3369C77.9957 38.4396 77.8857 38.5752 77.827 38.7439H76.001V34.0359H81.204V35.6859Z" fill="url(#paint31_linear)"/>
<path d="M82.4424 40.5039C84.7744 38.8392 85.9404 37.5156 85.9404 36.5329C85.9404 35.9316 85.6801 35.6309 85.1594 35.6309C84.8661 35.6309 84.6497 35.7336 84.5104 35.9389C84.3784 36.1442 84.3051 36.4632 84.2904 36.8959H82.4534C82.4974 35.9499 82.7834 35.2386 83.3114 34.7619C83.8394 34.2852 84.5067 34.0469 85.3134 34.0469C86.1567 34.0469 86.7911 34.2596 87.2164 34.6849C87.6491 35.1102 87.8654 35.6639 87.8654 36.3459C87.8654 37.1012 87.5757 37.8419 86.9964 38.5679C86.4171 39.2866 85.7241 39.8952 84.9174 40.3939H87.9864V41.9119H82.4424V40.5039Z" fill="url(#paint32_linear)"/>
</g>
</g>
<defs>
<filter id="filter0_d" x="3" y="10" width="109" height="91" filterUnits="userSpaceOnUse" color-interpolation-filters="sRGB">
<feFlood flood-opacity="0" result="BackgroundImageFix"/>
<feColorMatrix in="SourceAlpha" type="matrix" values="0 0 0 0 0 0 0 0 0 0 0 0 0 0 0 0 0 0 127 0"/>
<feOffset/>
<feGaussianBlur stdDeviation="7.5"/>
<feColorMatrix type="matrix" values="0 0 0 0 0.517647 0 0 0 0 0.454902 0 0 0 0 0.870588 0 0 0 0.4 0"/>
<feBlend mode="normal" in2="BackgroundImageFix" result="effect1_dropShadow"/>
<feBlend mode="normal" in="SourceGraphic" in2="effect1_dropShadow" result="shape"/>
</filter>
<linearGradient id="paint0_linear" x1="57.5" y1="25" x2="57.5" y2="86" gradientUnits="userSpaceOnUse">
<stop stop-color="#9D77F6"/>
<stop offset="0.28125" stop-color="#8172DF"/>
<stop offset="0.645833" stop-color="#5254AE"/>
<stop offset="1" stop-color="#6567D6"/>
</linearGradient>
<linearGradient id="paint1_linear" x1="32.9118" y1="34" x2="32.9118" y2="41.8824" gradientUnits="userSpaceOnUse">
<stop stop-color="#9C77F5"/>
<stop offset="0.286458" stop-color="#8973E5"/>
<stop offset="0.588542" stop-color="#6862C4"/>
<stop offset="1" stop-color="#6264D0"/>
</linearGradient>
<linearGradient id="paint2_linear" x1="32.9118" y1="34" x2="32.9118" y2="41.8824" gradientUnits="userSpaceOnUse">
<stop stop-color="#9C77F5"/>
<stop offset="0.286458" stop-color="#8973E5"/>
<stop offset="0.588542" stop-color="#6862C4"/>
<stop offset="1" stop-color="#6264D0"/>
</linearGradient>
<linearGradient id="paint3_linear" x1="49.0867" y1="33.8049" x2="49.0867" y2="42.1649" gradientUnits="userSpaceOnUse">
<stop stop-color="#9C77F5"/>
<stop offset="1" stop-color="#6264D0"/>
</linearGradient>
<linearGradient id="paint4_linear" x1="49.0867" y1="33.8049" x2="49.0867" y2="42.1649" gradientUnits="userSpaceOnUse">
<stop stop-color="#9C77F5"/>
<stop offset="1" stop-color="#6264D0"/>
</linearGradient>
<linearGradient id="paint5_linear" x1="33.17" y1="44.8049" x2="33.17" y2="53.1649" gradientUnits="userSpaceOnUse">
<stop stop-color="#9C77F5"/>
<stop offset="1" stop-color="#6264D0"/>
</linearGradient>
<linearGradient id="paint6_linear" x1="33.17" y1="44.8049" x2="33.17" y2="53.1649" gradientUnits="userSpaceOnUse">
<stop stop-color="#9C77F5"/>
<stop offset="1" stop-color="#6264D0"/>
</linearGradient>
<linearGradient id="paint7_linear" x1="33.1065" y1="56.9041" x2="33.1065" y2="65.0771" gradientUnits="userSpaceOnUse">
<stop stop-color="#9C77F5"/>
<stop offset="1" stop-color="#6264D0"/>
</linearGradient>
<linearGradient id="paint8_linear" x1="33.1065" y1="56.9041" x2="33.1065" y2="65.0771" gradientUnits="userSpaceOnUse">
<stop stop-color="#9C77F5"/>
<stop offset="1" stop-color="#6264D0"/>
</linearGradient>
<linearGradient id="paint9_linear" x1="34.0538" y1="68.8821" x2="34.0538" y2="77.0771" gradientUnits="userSpaceOnUse">
<stop stop-color="#9C77F5"/>
<stop offset="1" stop-color="#6264D0"/>
</linearGradient>
<linearGradient id="paint10_linear" x1="34.0538" y1="68.8821" x2="34.0538" y2="77.0771" gradientUnits="userSpaceOnUse">
<stop stop-color="#9C77F5"/>
<stop offset="1" stop-color="#6264D0"/>
</linearGradient>
<linearGradient id="paint11_linear" x1="49.3273" y1="44.8821" x2="49.3273" y2="53.0771" gradientUnits="userSpaceOnUse">
<stop stop-color="#9C77F5"/>
<stop offset="1" stop-color="#6264D0"/>
</linearGradient>
<linearGradient id="paint12_linear" x1="49.3273" y1="44.8821" x2="49.3273" y2="53.0771" gradientUnits="userSpaceOnUse">
<stop stop-color="#9C77F5"/>
<stop offset="1" stop-color="#6264D0"/>
</linearGradient>
<linearGradient id="paint13_linear" x1="49.5107" y1="57.0359" x2="49.5107" y2="65.0219" gradientUnits="userSpaceOnUse">
<stop stop-color="#9C77F5"/>
<stop offset="1" stop-color="#6264D0"/>
</linearGradient>
<linearGradient id="paint14_linear" x1="49.5107" y1="57.0359" x2="49.5107" y2="65.0219" gradientUnits="userSpaceOnUse">
<stop stop-color="#9C77F5"/>
<stop offset="1" stop-color="#6264D0"/>
</linearGradient>
<linearGradient id="paint15_linear" x1="49.519" y1="69.124" x2="49.519" y2="77" gradientUnits="userSpaceOnUse">
<stop stop-color="#9C77F5"/>
<stop offset="1" stop-color="#6264D0"/>
</linearGradient>
<linearGradient id="paint16_linear" x1="49.519" y1="69.124" x2="49.519" y2="77" gradientUnits="userSpaceOnUse">
<stop stop-color="#9C77F5"/>
<stop offset="1" stop-color="#6264D0"/>
</linearGradient>
<linearGradient id="paint17_linear" x1="64.8962" y1="45.0471" x2="64.8962" y2="53.0001" gradientUnits="userSpaceOnUse">
<stop stop-color="#9C77F5"/>
<stop offset="1" stop-color="#6264D0"/>
</linearGradient>
<linearGradient id="paint18_linear" x1="64.8962" y1="45.0471" x2="64.8962" y2="53.0001" gradientUnits="userSpaceOnUse">
<stop stop-color="#9C77F5"/>
<stop offset="1" stop-color="#6264D0"/>
</linearGradient>
<linearGradient id="paint19_linear" x1="65.3273" y1="56.8821" x2="65.3273" y2="65.0771" gradientUnits="userSpaceOnUse">
<stop stop-color="#9C77F5"/>
<stop offset="1" stop-color="#6264D0"/>
</linearGradient>
<linearGradient id="paint20_linear" x1="65.3273" y1="56.8821" x2="65.3273" y2="65.0771" gradientUnits="userSpaceOnUse">
<stop stop-color="#9C77F5"/>
<stop offset="1" stop-color="#6264D0"/>
</linearGradient>
<linearGradient id="paint21_linear" x1="65.5148" y1="68.8821" x2="65.5148" y2="77.0771" gradientUnits="userSpaceOnUse">
<stop stop-color="#9C77F5"/>
<stop offset="1" stop-color="#6264D0"/>
</linearGradient>
<linearGradient id="paint22_linear" x1="65.5148" y1="68.8821" x2="65.5148" y2="77.0771" gradientUnits="userSpaceOnUse">
<stop stop-color="#9C77F5"/>
<stop offset="1" stop-color="#6264D0"/>
</linearGradient>
<linearGradient id="paint23_linear" x1="82.065" y1="45.0359" x2="82.065" y2="53.0219" gradientUnits="userSpaceOnUse">
<stop stop-color="#9C77F5"/>
<stop offset="1" stop-color="#6264D0"/>
</linearGradient>
<linearGradient id="paint24_linear" x1="82.065" y1="45.0359" x2="82.065" y2="53.0219" gradientUnits="userSpaceOnUse">
<stop stop-color="#9C77F5"/>
<stop offset="1" stop-color="#6264D0"/>
</linearGradient>
<linearGradient id="paint25_linear" x1="81.9052" y1="56.8049" x2="81.9052" y2="65.1649" gradientUnits="userSpaceOnUse">
<stop stop-color="#9C77F5"/>
<stop offset="1" stop-color="#6264D0"/>
</linearGradient>
<linearGradient id="paint26_linear" x1="81.9052" y1="56.8049" x2="81.9052" y2="65.1649" gradientUnits="userSpaceOnUse">
<stop stop-color="#9C77F5"/>
<stop offset="1" stop-color="#6264D0"/>
</linearGradient>
<linearGradient id="paint27_linear" x1="82.0538" y1="68.8821" x2="82.0538" y2="77.0771" gradientUnits="userSpaceOnUse">
<stop stop-color="#9C77F5"/>
<stop offset="1" stop-color="#6264D0"/>
</linearGradient>
<linearGradient id="paint28_linear" x1="82.0538" y1="68.8821" x2="82.0538" y2="77.0771" gradientUnits="userSpaceOnUse">
<stop stop-color="#9C77F5"/>
<stop offset="1" stop-color="#6264D0"/>
</linearGradient>
<linearGradient id="paint29_linear" x1="65.2797" y1="33.8049" x2="65.2797" y2="42.1649" gradientUnits="userSpaceOnUse">
<stop stop-color="#9C77F5"/>
<stop offset="1" stop-color="#6264D0"/>
</linearGradient>
<linearGradient id="paint30_linear" x1="65.2797" y1="33.8049" x2="65.2797" y2="42.1649" gradientUnits="userSpaceOnUse">
<stop stop-color="#9C77F5"/>
<stop offset="1" stop-color="#6264D0"/>
</linearGradient>
<linearGradient id="paint31_linear" x1="81.9717" y1="34.0359" x2="81.9717" y2="42.0219" gradientUnits="userSpaceOnUse">
<stop stop-color="#9C77F5"/>
<stop offset="1" stop-color="#6264D0"/>
</linearGradient>
<linearGradient id="paint32_linear" x1="81.9717" y1="34.0359" x2="81.9717" y2="42.0219" gradientUnits="userSpaceOnUse">
<stop stop-color="#9C77F5"/>
<stop offset="1" stop-color="#6264D0"/>
</linearGradient>
</defs>
</svg>
