<svg width="113" height="113" viewBox="0 0 113 113" fill="none" xmlns="http://www.w3.org/2000/svg">
<circle cx="56.5" cy="56.5" r="56.5" fill="#EAE7FD"/>
<mask id="mask0" mask-type="alpha" maskUnits="userSpaceOnUse" x="0" y="0" width="113" height="113">
<circle cx="56.5" cy="56.5" r="56.5" fill="#EAE7FD"/>
</mask>
<g mask="url(#mask0)">
<circle cx="56.4992" cy="54.6171" r="35.7833" fill="white"/>
<path d="M40.8629 38.9815C40.4462 39.3982 40.0687 39.8386 39.689 40.2809L36.5795 37.7096C37.0408 37.1703 37.5013 36.6357 38.0092 36.1278C38.5352 35.6017 39.0927 35.1186 39.6463 34.6486L42.0062 37.9485C41.6211 38.2843 41.2301 38.6143 40.8629 38.9815Z" fill="url(#paint0_linear)"/>
<path d="M44.1263 36.2896L41.7815 33.0107C42.9765 32.1905 44.2366 31.4693 45.5493 30.8543L46.9676 34.6393C45.982 35.1201 45.0323 35.6717 44.1263 36.2896Z" fill="url(#paint1_linear)"/>
<path d="M34.569 50.9372L30.5948 50.2693C30.8593 48.848 31.2389 47.4506 31.7295 46.0905L35.4155 47.7618C35.0576 48.7987 34.7747 49.8598 34.569 50.9372Z" fill="url(#paint2_linear)"/>
<path d="M36.4323 45.2769L32.7625 43.6084C33.3836 42.294 34.1112 41.0326 34.9379 39.8367L38.0532 42.4041C37.4438 43.3211 36.9021 44.2812 36.4323 45.2769Z" fill="url(#paint3_linear)"/>
<path d="M61.9167 28.7151C63.338 28.9797 64.7355 29.3593 66.0955 29.8499L64.4242 33.5359C63.3888 33.1769 62.3289 32.8926 61.2528 32.6854L61.9167 28.7151Z" fill="url(#paint4_linear)"/>
<path d="M49.448 33.6082L48.0374 29.8308C49.4041 29.3419 50.8084 28.9646 52.2361 28.7027L52.6262 32.7206C51.5467 32.9396 50.4846 33.2363 49.448 33.6082Z" fill="url(#paint5_linear)"/>
<path d="M55.2809 32.3771L54.9032 28.3638C56.3491 28.2487 57.8018 28.2496 59.2475 28.3667L58.5749 32.3685C57.4781 32.2933 56.3774 32.2963 55.2809 32.3771Z" fill="url(#paint6_linear)"/>
<path d="M58.7846 77.9275L59.1641 81.9426C57.7183 82.0578 56.2656 82.0568 54.8199 81.9398L55.4924 77.938C56.5887 78.0124 57.6888 78.0088 58.7846 77.9275Z" fill="url(#paint7_linear)"/>
<path d="M45.4875 79.4221C44.1968 78.8132 42.9573 78.1016 41.7806 77.2942L44.1272 74.0154C45.0905 74.6716 46.1031 75.2522 47.1559 75.7524L45.4875 79.4221Z" fill="url(#paint8_linear)"/>
<path d="M68.5774 30.8826C69.8918 31.5037 71.1532 32.2314 72.349 33.0581L69.7816 36.1734C68.8646 35.5641 67.9046 35.0224 66.909 34.5525L68.5774 30.8826Z" fill="url(#paint9_linear)"/>
<path d="M52.1505 81.5901C50.7292 81.3255 49.3317 80.946 47.9717 80.4553L49.643 76.7694C50.6784 77.1283 51.7383 77.4127 52.8143 77.6198L52.1505 81.5901Z" fill="url(#paint10_linear)"/>
<path d="M34.2562 56.9039L30.243 57.2815C30.1278 55.8357 30.1287 54.383 30.2458 52.9373L34.2476 53.6099C34.1725 54.7066 34.1754 55.8074 34.2562 56.9039Z" fill="url(#paint11_linear)"/>
<path d="M64.6176 76.6969L66.0282 80.4743C64.6616 80.9633 63.2572 81.3406 61.8295 81.6024L61.4394 77.5845C62.5189 77.3655 63.581 77.0689 64.6176 76.6969Z" fill="url(#paint12_linear)"/>
<path d="M35.4916 62.7364L31.7142 64.1471C31.2253 62.7803 30.848 61.3761 30.5861 59.9483L34.604 59.5583C34.8231 60.6377 35.1197 61.6998 35.4916 62.7364Z" fill="url(#paint13_linear)"/>
<path d="M38.1721 68.061L34.8933 70.4057C34.073 69.2107 33.3518 67.9506 32.7368 66.6379L36.5218 65.2196C37.0027 66.2053 37.5542 67.1549 38.1721 68.061Z" fill="url(#paint14_linear)"/>
<path d="M40.8636 71.3236C41.2308 71.6908 41.6208 72.018 42.006 72.3557L39.6516 75.6612C39.0933 75.1865 38.5358 74.7033 38.0098 74.1773C37.4837 73.6512 37.0006 73.0938 36.5306 72.5402L39.8305 70.1802C40.1664 70.5655 40.4964 70.9565 40.8636 71.3236Z" fill="url(#paint15_linear)"/>
<path d="M69.9402 74.0155L72.285 77.2943C71.09 78.1146 69.8298 78.8358 68.5172 79.4508L67.0989 75.6658C68.0846 75.1849 69.0341 74.6334 69.9402 74.0155Z" fill="url(#paint16_linear)"/>
<path d="M79.8093 53.4012L83.8244 53.0216C83.9396 54.4675 83.9386 55.9202 83.8216 57.3658L79.8198 56.6933C79.8942 55.597 79.8906 54.4969 79.8093 53.4012Z" fill="url(#paint17_linear)"/>
<path d="M78.5779 47.5683L82.3553 46.1577C82.8443 47.5243 83.2215 48.9287 83.4834 50.3564L79.4655 50.7465C79.2465 49.667 78.9498 48.6049 78.5779 47.5683Z" fill="url(#paint18_linear)"/>
<path d="M79.4987 59.367L83.4729 60.0349C83.2084 61.4562 82.8288 62.8536 82.3382 64.2137L78.6522 62.5424C79.0101 61.5055 79.293 60.4444 79.4987 59.367Z" fill="url(#paint19_linear)"/>
<path d="M72.0636 72.3564C72.4488 72.0207 72.8397 71.6905 73.2069 71.3234C73.6236 70.9067 74.0011 70.4663 74.3808 70.024L77.4903 72.5953C77.0309 73.1328 76.5704 73.6673 76.0625 74.1752C75.5364 74.7013 74.979 75.1844 74.4254 75.6544L72.0636 72.3564Z" fill="url(#paint20_linear)"/>
<path d="M77.6346 65.0285L81.3044 66.697C80.6833 68.0115 79.9557 69.2728 79.1289 70.4687L76.0136 67.9013C76.6231 66.9843 77.1647 66.0242 77.6346 65.0285Z" fill="url(#paint21_linear)"/>
<g filter="url(#filter0_d)">
<path d="M30.4 81.7867C15.6902 67.0769 15.6902 43.2277 30.4 28.518C45.1097 13.8082 68.9589 13.8082 83.6687 28.518C98.3785 43.2277 98.3785 67.0769 83.6687 81.7867C68.9492 96.4727 45.1195 96.4727 30.4 81.7867ZM86.3769 51.4416L86.3778 51.4293L86.373 51.4111C85.7263 46.262 83.7308 41.3748 80.5886 37.2446L80.5638 37.2198C74.1812 28.8141 63.7897 24.465 53.3226 25.8183L53.3111 25.8165L53.2949 25.8213C48.146 26.4649 43.2587 28.4573 39.1273 31.5972L39.1225 31.602L39.1159 31.6086C38.0557 32.4128 37.0506 33.2871 36.1072 34.2254C29.641 40.6935 26.5336 49.7909 27.6917 58.8632L27.6908 58.8755L27.7013 58.886C28.344 64.0377 30.3378 68.9277 33.48 73.0602L33.4876 73.0678C35.0945 75.1922 36.9869 77.0846 39.1113 78.6915L39.1189 78.6991C45.2897 83.3838 53.0514 85.4619 60.7374 84.4873L60.7498 84.4882L60.7661 84.4834C65.9155 83.8372 70.8031 81.8421 74.9337 78.7L74.9385 78.6952L74.9451 78.6886C76.0076 77.8871 77.0153 77.0154 77.9615 76.0795C84.4276 69.6113 87.5349 60.5139 86.3769 51.4416Z" fill="url(#paint22_linear)"/>
</g>
<path d="M75.8983 42.2443L79.1771 39.8996C79.9973 41.0946 80.7186 42.3547 81.3335 43.6674L77.5486 45.0857C77.0678 44.1001 76.5162 43.1504 75.8983 42.2443Z" fill="url(#paint23_linear)"/>
<path d="M73.2043 38.9814C72.7876 38.5647 72.3472 38.1871 71.9049 37.8075L74.4762 34.6979C75.0136 35.1574 75.5482 35.6178 76.0561 36.1258C76.5821 36.6518 77.0653 37.2092 77.5352 37.7628L74.2354 40.1228C73.9014 39.7395 73.5714 39.3485 73.2043 38.9814Z" fill="url(#paint24_linear)"/>
<path d="M53.3232 60.7645L48.4719 65.6158C47.9466 66.1411 47.0948 66.1412 46.5694 65.6158C46.044 65.0904 46.044 64.2387 46.5694 63.7133L51.4207 58.862C51.9203 59.6178 52.5674 60.2649 53.3232 60.7645Z" fill="#6768D7"/>
<path d="M60.7437 49.54L65.595 44.6887C66.1203 44.1634 66.972 44.1633 67.4974 44.6887C68.0228 45.2141 68.0228 46.0658 67.4974 46.5912L62.6461 51.4425C62.1465 50.6868 61.4994 50.0396 60.7437 49.54Z" fill="#6768D7"/>
<path d="M46.5694 46.5911C46.0441 46.0658 46.044 45.2141 46.5694 44.6886C47.0948 44.1632 47.9465 44.1632 48.4719 44.6886L53.3232 49.54C52.5673 50.0395 51.9202 50.6866 51.4207 51.4424L46.5694 46.5911Z" fill="#6768D7"/>
<path d="M65.595 65.6159L60.7437 60.7646C61.4994 60.265 62.1465 59.6179 62.6461 58.8622L67.4974 63.7135C68.0227 64.2388 68.0228 65.0905 67.4974 65.6159C66.972 66.1414 66.1203 66.1412 65.595 65.6159Z" fill="#6768D7"/>
<path d="M59.8883 52.2991C61.4644 53.8752 61.4644 56.4305 59.8883 58.0066C58.3123 59.5826 55.757 59.5826 54.1809 58.0066C52.6048 56.4305 52.6048 53.8752 54.1809 52.2991C55.757 50.723 58.3123 50.723 59.8883 52.2991Z" fill="#6768D7"/>
<path d="M75.7417 62.7146C75.7312 62.7385 75.7217 62.7612 75.7132 62.785C71.5086 73.0728 59.7767 78.024 49.4726 73.8591L49.4023 73.8306C39.1145 69.626 34.1633 57.8941 38.3282 47.5901L38.3576 47.5207C42.5584 37.2295 54.2932 32.2766 64.5972 36.4456L64.6666 36.475C74.9576 40.6759 79.9105 52.4106 75.7417 62.7146ZM63.6688 56.0788C63.7544 55.4641 63.7543 54.8405 63.6688 54.2259L69.4009 48.4938C70.9769 46.9178 70.977 44.3624 69.4009 42.7863C67.8248 41.2102 65.2695 41.2102 63.6934 42.7863L57.9613 48.5184C57.3465 48.4328 56.723 48.4329 56.1083 48.5184L50.3762 42.7863C48.8002 41.2103 46.2449 41.2102 44.6688 42.7863C43.0927 44.3624 43.0927 46.9177 44.6688 48.4938L50.4009 54.2259C50.3153 54.8406 50.3154 55.4642 50.4009 56.0788L44.6688 61.8109C43.0928 63.3869 43.0927 65.9423 44.6688 67.5184C46.2449 69.0945 48.8001 69.0945 50.3762 67.5184L56.1083 61.7863C56.7231 61.8719 57.3466 61.8718 57.9613 61.7863L63.6934 67.5184C65.2694 69.0944 67.8248 69.0945 69.4009 67.5184C70.977 65.9423 70.977 63.3871 69.4009 61.8109L63.6688 56.0788Z" fill="url(#paint25_linear)"/>
</g>
<defs>
<filter id="filter0_d" x="4.36768" y="2.4856" width="105.333" height="105.316" filterUnits="userSpaceOnUse" color-interpolation-filters="sRGB">
<feFlood flood-opacity="0" result="BackgroundImageFix"/>
<feColorMatrix in="SourceAlpha" type="matrix" values="0 0 0 0 0 0 0 0 0 0 0 0 0 0 0 0 0 0 127 0"/>
<feOffset/>
<feGaussianBlur stdDeviation="7.5"/>
<feColorMatrix type="matrix" values="0 0 0 0 0.517647 0 0 0 0 0.454902 0 0 0 0 0.870588 0 0 0 0.7 0"/>
<feBlend mode="normal" in2="BackgroundImageFix" result="effect1_dropShadow"/>
<feBlend mode="normal" in="SourceGraphic" in2="effect1_dropShadow" result="shape"/>
</filter>
<linearGradient id="paint0_linear" x1="37.9616" y1="39.0918" x2="41.0255" y2="36.0279" gradientUnits="userSpaceOnUse">
<stop stop-color="#6768D7"/>
<stop offset="0.515625" stop-color="#6768D7"/>
<stop offset="1" stop-color="#9E77F7"/>
</linearGradient>
<linearGradient id="paint1_linear" x1="43.0181" y1="35.1814" x2="46.4473" y2="31.7523" gradientUnits="userSpaceOnUse">
<stop stop-color="#6768D7"/>
<stop offset="0.515625" stop-color="#6768D7"/>
<stop offset="1" stop-color="#9E77F7"/>
</linearGradient>
<linearGradient id="paint2_linear" x1="30.9943" y1="50.6688" x2="34.6584" y2="47.0047" gradientUnits="userSpaceOnUse">
<stop stop-color="#6768D7"/>
<stop offset="0.515625" stop-color="#6768D7"/>
<stop offset="1" stop-color="#9E77F7"/>
</linearGradient>
<linearGradient id="paint3_linear" x1="33.698" y1="44.5439" x2="36.9455" y2="41.2964" gradientUnits="userSpaceOnUse">
<stop stop-color="#6768D7"/>
<stop offset="0.515625" stop-color="#6768D7"/>
<stop offset="1" stop-color="#9E77F7"/>
</linearGradient>
<linearGradient id="paint4_linear" x1="61.4317" y1="32.8643" x2="65.2707" y2="29.0252" gradientUnits="userSpaceOnUse">
<stop stop-color="#6768D7"/>
<stop offset="0.515625" stop-color="#6768D7"/>
<stop offset="1" stop-color="#9E77F7"/>
</linearGradient>
<linearGradient id="paint5_linear" x1="48.7237" y1="32.8838" x2="52.5705" y2="29.037" gradientUnits="userSpaceOnUse">
<stop stop-color="#6768D7"/>
<stop offset="0.515625" stop-color="#6768D7"/>
<stop offset="1" stop-color="#9E77F7"/>
</linearGradient>
<linearGradient id="paint6_linear" x1="55.0045" y1="32.1007" x2="58.993" y2="28.1122" gradientUnits="userSpaceOnUse">
<stop stop-color="#6768D7"/>
<stop offset="0.515625" stop-color="#6768D7"/>
<stop offset="1" stop-color="#9E77F7"/>
</linearGradient>
<linearGradient id="paint7_linear" x1="55.0744" y1="82.1942" x2="59.0629" y2="78.2057" gradientUnits="userSpaceOnUse">
<stop stop-color="#6768D7"/>
<stop offset="0.515625" stop-color="#6768D7"/>
<stop offset="1" stop-color="#9E77F7"/>
</linearGradient>
<linearGradient id="paint8_linear" x1="43.0062" y1="78.5199" x2="46.4648" y2="75.0613" gradientUnits="userSpaceOnUse">
<stop stop-color="#6768D7"/>
<stop offset="0.515625" stop-color="#6768D7"/>
<stop offset="1" stop-color="#9E77F7"/>
</linearGradient>
<linearGradient id="paint9_linear" x1="67.532" y1="35.1755" x2="70.9992" y2="31.7083" gradientUnits="userSpaceOnUse">
<stop stop-color="#6768D7"/>
<stop offset="0.515625" stop-color="#6768D7"/>
<stop offset="1" stop-color="#9E77F7"/>
</linearGradient>
<linearGradient id="paint10_linear" x1="48.7964" y1="81.28" x2="52.6355" y2="77.441" gradientUnits="userSpaceOnUse">
<stop stop-color="#6768D7"/>
<stop offset="0.515625" stop-color="#6768D7"/>
<stop offset="1" stop-color="#9E77F7"/>
</linearGradient>
<linearGradient id="paint11_linear" x1="30.0665" y1="57.1051" x2="33.9047" y2="53.2669" gradientUnits="userSpaceOnUse">
<stop stop-color="#6768D7"/>
<stop offset="0.515625" stop-color="#6768D7"/>
<stop offset="1" stop-color="#9E77F7"/>
</linearGradient>
<linearGradient id="paint12_linear" x1="61.4951" y1="81.2681" x2="65.3419" y2="77.4213" gradientUnits="userSpaceOnUse">
<stop stop-color="#6768D7"/>
<stop offset="0.515625" stop-color="#6768D7"/>
<stop offset="1" stop-color="#9E77F7"/>
</linearGradient>
<linearGradient id="paint13_linear" x1="30.9742" y1="63.407" x2="34.7135" y2="59.6677" gradientUnits="userSpaceOnUse">
<stop stop-color="#6768D7"/>
<stop offset="0.515625" stop-color="#6768D7"/>
<stop offset="1" stop-color="#9E77F7"/>
</linearGradient>
<linearGradient id="paint14_linear" x1="33.6457" y1="69.1582" x2="37.0531" y2="65.7509" gradientUnits="userSpaceOnUse">
<stop stop-color="#6768D7"/>
<stop offset="0.515625" stop-color="#6768D7"/>
<stop offset="1" stop-color="#9E77F7"/>
</linearGradient>
<linearGradient id="paint15_linear" x1="38.0122" y1="74.1796" x2="40.921" y2="71.2708" gradientUnits="userSpaceOnUse">
<stop stop-color="#6768D7"/>
<stop offset="0.515625" stop-color="#6768D7"/>
<stop offset="1" stop-color="#9E77F7"/>
</linearGradient>
<linearGradient id="paint16_linear" x1="67.6192" y1="78.5528" x2="71.0484" y2="75.1236" gradientUnits="userSpaceOnUse">
<stop stop-color="#6768D7"/>
<stop offset="0.515625" stop-color="#6768D7"/>
<stop offset="1" stop-color="#9E77F7"/>
</linearGradient>
<linearGradient id="paint17_linear" x1="80.1627" y1="57.0362" x2="84.0009" y2="53.1981" gradientUnits="userSpaceOnUse">
<stop stop-color="#6768D7"/>
<stop offset="0.515625" stop-color="#6768D7"/>
<stop offset="1" stop-color="#9E77F7"/>
</linearGradient>
<linearGradient id="paint18_linear" x1="79.356" y1="50.637" x2="83.0953" y2="46.8977" gradientUnits="userSpaceOnUse">
<stop stop-color="#6768D7"/>
<stop offset="0.515625" stop-color="#6768D7"/>
<stop offset="1" stop-color="#9E77F7"/>
</linearGradient>
<linearGradient id="paint19_linear" x1="79.4093" y1="63.2995" x2="83.0734" y2="59.6354" gradientUnits="userSpaceOnUse">
<stop stop-color="#6768D7"/>
<stop offset="0.515625" stop-color="#6768D7"/>
<stop offset="1" stop-color="#9E77F7"/>
</linearGradient>
<linearGradient id="paint20_linear" x1="73.0461" y1="74.2751" x2="76.1081" y2="71.2131" gradientUnits="userSpaceOnUse">
<stop stop-color="#6768D7"/>
<stop offset="0.515625" stop-color="#6768D7"/>
<stop offset="1" stop-color="#9E77F7"/>
</linearGradient>
<linearGradient id="paint21_linear" x1="77.1213" y1="69.009" x2="80.3688" y2="65.7615" gradientUnits="userSpaceOnUse">
<stop stop-color="#6768D7"/>
<stop offset="0.515625" stop-color="#6768D7"/>
<stop offset="1" stop-color="#9E77F7"/>
</linearGradient>
<linearGradient id="paint22_linear" x1="30.4" y1="81.7867" x2="83.6687" y2="28.518" gradientUnits="userSpaceOnUse">
<stop stop-color="#6367D5"/>
<stop offset="0.390625" stop-color="#7D6EE3"/>
<stop offset="0.723958" stop-color="#8574DF"/>
<stop offset="1" stop-color="#9D77F6"/>
</linearGradient>
<linearGradient id="paint23_linear" x1="77.0173" y1="44.5544" x2="80.4246" y2="41.1471" gradientUnits="userSpaceOnUse">
<stop stop-color="#6768D7"/>
<stop offset="0.515625" stop-color="#6768D7"/>
<stop offset="1" stop-color="#9E77F7"/>
</linearGradient>
<linearGradient id="paint24_linear" x1="73.1667" y1="39.0693" x2="76.0832" y2="36.1529" gradientUnits="userSpaceOnUse">
<stop stop-color="#6768D7"/>
<stop offset="0.515625" stop-color="#6768D7"/>
<stop offset="1" stop-color="#9E77F7"/>
</linearGradient>
<linearGradient id="paint25_linear" x1="42.7633" y1="69.423" x2="71.3065" y2="40.8798" gradientUnits="userSpaceOnUse">
<stop stop-color="#6567D6"/>
<stop offset="0.328125" stop-color="#7C6DE2"/>
<stop offset="0.630208" stop-color="#8273DF"/>
<stop offset="1" stop-color="#9B77F4"/>
</linearGradient>
</defs>
</svg>
