<svg width="113" height="113" viewBox="0 0 113 113" fill="none" xmlns="http://www.w3.org/2000/svg">
<circle cx="56.5" cy="56.5" r="56.5" fill="#EAE7FD"/>
<mask id="mask0" mask-type="alpha" maskUnits="userSpaceOnUse" x="0" y="0" width="113" height="113">
<circle cx="56.5" cy="56.5" r="56.5" fill="#EAE7FD"/>
</mask>
<g mask="url(#mask0)">
<g filter="url(#filter0_d)">
<rect x="24.814" y="42.6636" width="45.6151" height="47.5983" fill="white"/>
<path d="M42.665 22.8311H88.2801L84.3136 43.6553L87.2885 65.4712L78.3638 68.4461V40.6804L73.4056 32.9457H42.665V22.8311Z" fill="white"/>
<path d="M59.622 73.8574C58.5 73.8574 57.5884 74.769 57.5884 75.891C57.5884 77.013 58.5 77.9246 59.622 77.9246C60.744 77.9246 61.6556 77.013 61.6556 75.891C61.6556 74.769 60.744 73.8574 59.622 73.8574Z" fill="#7B6DE2"/>
<path d="M35.2537 49.4539C35.2417 49.4539 35.2318 49.4539 35.2199 49.4539C34.1138 49.4539 33.2042 50.3455 33.1863 51.4557C33.1684 52.5757 34.066 53.5032 35.1882 53.5211C36.2785 53.5569 37.2358 52.6413 37.2535 51.5192C37.2714 50.4011 36.3738 49.4737 35.2537 49.4539Z" fill="#9579EC"/>
<path d="M35.2537 73.8574C35.2417 73.8574 35.2318 73.8574 35.2199 73.8574C34.1138 73.8574 33.2042 74.7491 33.1863 75.8593C33.1684 76.9793 34.066 77.9068 35.1882 77.9246C36.2785 77.9246 37.2358 77.0449 37.2535 75.9228C37.2714 74.8047 36.3738 73.8772 35.2537 73.8574Z" fill="#7B6DE2"/>
<path d="M67.7573 37.1167H27.085C23.7209 37.1167 20.8486 39.989 20.8486 43.3531V84.1609C20.8486 87.5251 23.7209 90.2618 27.085 90.2618H67.7573C71.1214 90.2618 73.9937 87.5251 73.9937 84.1609V43.3531C73.9937 39.989 71.1214 37.1167 67.7573 37.1167ZM35.3168 45.3867H35.3189C38.6811 45.4443 41.374 48.2247 41.3205 51.5849C41.2647 54.9173 38.536 57.5884 35.2195 57.5884C35.1878 57.5884 35.154 57.5884 35.1222 57.5884C31.758 57.5308 29.065 54.7504 29.1187 51.3902C29.1742 48.0261 31.9606 45.2179 35.3168 45.3867ZM35.2195 81.9917C35.1878 81.9917 35.154 81.9917 35.1222 81.9917C31.758 81.9341 29.065 79.1538 29.1187 75.7936C29.1742 72.4294 31.9606 69.7026 35.3168 69.7901H35.3189C38.6811 69.8477 41.374 72.628 41.3205 75.9883C41.2647 79.3207 38.536 81.9917 35.2195 81.9917ZM47.4212 69.7901C47.3894 69.7901 47.3557 69.7901 47.3238 69.7901C43.9597 69.7325 41.2666 66.9521 41.3203 63.5919C41.3759 60.2257 44.0987 57.5645 47.5185 57.5884H47.5205C50.8828 57.646 53.5757 60.4264 53.5221 63.7866C53.4664 67.119 50.7377 69.7901 47.4212 69.7901ZM59.6228 81.9917C56.2587 81.9917 53.522 79.255 53.522 75.8909C53.522 72.5268 56.2587 69.7901 59.6228 69.7901C62.987 69.7901 65.7237 72.5268 65.7237 75.8909C65.7237 79.255 62.987 81.9917 59.6228 81.9917ZM59.6228 57.5884C59.5911 57.5884 59.5574 57.5884 59.5255 57.5884C56.1614 57.5308 53.4683 54.7504 53.522 51.3902C53.5776 48.0261 56.2367 45.2179 59.7202 45.3867H59.7222C63.0845 45.4443 65.7774 48.2247 65.7238 51.5849C65.6681 54.9173 62.9394 57.5884 59.6228 57.5884Z" fill="url(#paint0_linear)"/>
<path d="M59.656 49.4539C59.6441 49.4539 59.6342 49.4539 59.6223 49.4539C58.5161 49.4539 57.6065 50.3455 57.5886 51.4557C57.5707 52.5757 58.4684 53.5032 59.5905 53.5211C60.6471 53.5569 61.6381 52.6413 61.6559 51.5192C61.6738 50.4011 60.7761 49.4737 59.656 49.4539Z" fill="#9579EC"/>
<path d="M47.4548 61.6555C47.4429 61.6555 47.433 61.6555 47.4211 61.6555C46.3149 61.6555 45.4054 62.5472 45.3875 63.6574C45.3696 64.7774 46.2672 65.7048 47.3894 65.7227C48.5552 65.6472 49.4369 64.841 49.4547 63.7209C49.4726 62.6028 48.575 61.6753 47.4548 61.6555Z" fill="#8475E1"/>
<path d="M80.1262 28.9822C80.1143 28.9822 80.1044 28.9822 80.0925 28.9822C78.9863 28.9822 78.0768 29.8738 78.0589 30.9841C78.041 32.1042 78.9386 33.0316 80.0607 33.0494C81.2165 32.9839 82.1083 32.1676 82.1261 31.0475C82.144 29.9294 81.2463 29.002 80.1262 28.9822Z" fill="#756DDC"/>
<path d="M51.5232 28.9822C51.5113 28.9822 51.5014 28.9822 51.4894 28.9822C50.3833 28.9822 49.4737 29.8738 49.4558 30.9841C49.4379 32.1042 50.3356 33.0316 51.4577 33.0494C52.4626 32.9839 53.5033 32.1676 53.5231 31.0475C53.5409 29.9294 52.6433 29.002 51.5232 28.9822Z" fill="#756DDC"/>
<path d="M84.163 20.8477H43.3552C39.9911 20.8477 37.2544 23.5844 37.2544 26.9485V33.0493H45.7584C45.5198 32.3811 45.3769 31.6681 45.3888 30.9184C45.4444 27.5522 48.0758 24.9009 51.587 24.9149H51.5891C54.9513 24.9725 57.6442 27.7529 57.5907 31.1131C57.5793 31.7957 57.4312 32.4394 57.2133 33.0493H67.7586C73.365 33.0493 78.0622 37.7466 78.0622 43.353V53.8956C78.7014 53.6677 79.3795 53.521 80.0958 53.521C83.46 53.521 86.1967 56.2577 86.1967 59.6219C86.1967 62.986 83.46 65.7227 80.0958 65.7227C79.3795 65.7227 78.7014 65.576 78.0622 65.3481V73.8571H84.163C87.5272 73.8571 90.2639 71.1204 90.2639 67.7563V26.9485C90.2639 23.5844 87.5272 20.8477 84.163 20.8477ZM80.0958 37.1166C80.0641 37.1166 80.0303 37.1166 79.9985 37.1166C76.6343 37.0589 73.9413 34.2786 73.995 30.9184C74.0506 27.5522 76.7634 24.9009 80.1932 24.9149H80.1952C83.5574 24.9725 86.2504 27.7529 86.1968 31.1131C86.1411 34.4455 83.4124 37.1166 80.0958 37.1166Z" fill="url(#paint1_linear)"/>
<path d="M80.0956 57.5881C78.9736 57.5881 78.062 58.4997 78.062 59.6217C78.062 60.7438 78.9736 61.6554 80.0956 61.6554C81.2176 61.6554 82.1292 60.7438 82.1292 59.6217C82.1292 58.4997 81.2176 57.5881 80.0956 57.5881Z" fill="#8875E4"/>
<mask id="mask1" mask-type="alpha" maskUnits="userSpaceOnUse" x="20" y="37" width="54" height="54">
<path d="M67.7573 37.2549H27.085C23.7209 37.2549 20.8486 40.1272 20.8486 43.4913V84.2991C20.8486 87.6633 23.7209 90.4 27.085 90.4H67.7573C71.1214 90.4 73.9937 87.6633 73.9937 84.2991V43.4913C73.9937 40.1272 71.1214 37.2549 67.7573 37.2549ZM35.3168 45.5249H35.3189C38.6811 45.5825 41.374 48.3629 41.3205 51.7231C41.2647 55.0555 38.536 57.7266 35.2195 57.7266C35.1878 57.7266 35.154 57.7266 35.1222 57.7266C31.758 57.669 29.065 54.8886 29.1187 51.5284C29.1742 48.1643 31.9606 45.3561 35.3168 45.5249ZM35.2195 82.1299C35.1878 82.1299 35.154 82.1299 35.1222 82.1299C31.758 82.0723 29.065 79.292 29.1187 75.9318C29.1742 72.5676 31.9606 69.8408 35.3168 69.9283H35.3189C38.6811 69.9859 41.374 72.7662 41.3205 76.1264C41.2647 79.4588 38.536 82.1299 35.2195 82.1299ZM47.4212 69.9283C47.3894 69.9283 47.3557 69.9283 47.3238 69.9283C43.9597 69.8706 41.2666 67.0903 41.3203 63.7301C41.3759 60.3639 44.0987 57.7027 47.5185 57.7266H47.5205C50.8828 57.7842 53.5757 60.5646 53.5221 63.9248C53.4664 67.2572 50.7377 69.9283 47.4212 69.9283ZM59.6228 82.1299C56.2587 82.1299 53.522 79.3932 53.522 76.0291C53.522 72.665 56.2587 69.9283 59.6228 69.9283C62.987 69.9283 65.7237 72.665 65.7237 76.0291C65.7237 79.3932 62.987 82.1299 59.6228 82.1299ZM59.6228 57.7266C59.5911 57.7266 59.5574 57.7266 59.5255 57.7266C56.1614 57.669 53.4683 54.8886 53.522 51.5284C53.5776 48.1643 56.2367 45.3561 59.7202 45.5249H59.7222C63.0845 45.5825 65.7774 48.3629 65.7238 51.7231C65.6681 55.0555 62.9394 57.7266 59.6228 57.7266Z" fill="url(#paint2_linear)"/>
</mask>
<g mask="url(#mask1)">
<path opacity="0.07" fill-rule="evenodd" clip-rule="evenodd" d="M9.97586 39.3584C9.97586 39.3584 29.5627 48.141 35.6546 63.467C41.7465 78.793 57.1936 82.1795 88.0527 80.2589C118.912 78.3383 56.0061 102.462 56.0061 102.462L4.01953 95.1374L9.97586 39.3584Z" fill="white"/>
<path opacity="0.06" fill-rule="evenodd" clip-rule="evenodd" d="M20.814 80.1691C20.814 80.1691 33.3541 75.4109 53.0577 54.9733C72.7613 34.5357 84.7756 25.0802 101.915 41.2023C119.055 57.3243 79.4089 96.1517 79.4089 96.1517H16.6401L20.814 80.1691Z" fill="white"/>
<path opacity="0.03" fill-rule="evenodd" clip-rule="evenodd" d="M9.0878 65.359C9.0878 65.359 24.6562 81.8247 42.4002 81.6054C60.1442 81.3861 58.9852 56.7707 80.8469 65.461C102.709 74.1513 81.2626 99.4235 81.2626 99.4235L23.9469 114.363L9.0878 65.359Z" fill="white"/>
</g>
</g>
</g>
<defs>
<filter id="filter0_d" x="5.84863" y="5.84766" width="99.4153" height="99.5523" filterUnits="userSpaceOnUse" color-interpolation-filters="sRGB">
<feFlood flood-opacity="0" result="BackgroundImageFix"/>
<feColorMatrix in="SourceAlpha" type="matrix" values="0 0 0 0 0 0 0 0 0 0 0 0 0 0 0 0 0 0 127 0"/>
<feOffset/>
<feGaussianBlur stdDeviation="7.5"/>
<feColorMatrix type="matrix" values="0 0 0 0 0.517647 0 0 0 0 0.454902 0 0 0 0 0.870588 0 0 0 0.7 0"/>
<feBlend mode="normal" in2="BackgroundImageFix" result="effect1_dropShadow"/>
<feBlend mode="normal" in="SourceGraphic" in2="effect1_dropShadow" result="shape"/>
</filter>
<linearGradient id="paint0_linear" x1="47.4212" y1="37.1167" x2="47.4212" y2="90.2618" gradientUnits="userSpaceOnUse">
<stop stop-color="#9E77F7"/>
<stop offset="0.338542" stop-color="#8A7CDF"/>
<stop offset="0.703125" stop-color="#7E6EE3"/>
<stop offset="1" stop-color="#6667D7"/>
</linearGradient>
<linearGradient id="paint1_linear" x1="63.7591" y1="20.8477" x2="63.7591" y2="73.8571" gradientUnits="userSpaceOnUse">
<stop stop-color="#6B69D9"/>
<stop offset="0.463542" stop-color="#8474E1"/>
<stop offset="1" stop-color="#9A78F3"/>
</linearGradient>
<linearGradient id="paint2_linear" x1="47.4212" y1="37.2549" x2="47.4212" y2="90.4" gradientUnits="userSpaceOnUse">
<stop stop-color="#9E77F7"/>
<stop offset="0.338542" stop-color="#8A7CDF"/>
<stop offset="0.703125" stop-color="#7E6EE3"/>
<stop offset="1" stop-color="#6667D7"/>
</linearGradient>
</defs>
</svg>
