<svg width="32" height="22" viewBox="0 0 32 22" fill="none" xmlns="http://www.w3.org/2000/svg">
<path fill-rule="evenodd" clip-rule="evenodd" d="M15.6 16.5002C12.2 16.5002 9.4 14.5002 8.1 11.6002H5.8V4.90024H8C9.3 2.00024 12.2 0.000244141 15.6 0.000244141C18.9 0.000244141 21.8 2.00024 23.1 4.90024H25.3V11.7002H23.1C21.8 14.6002 18.9 16.5002 15.6 16.5002ZM26.8 7.00024H31.1L28.9 11.1002L31.1 15.2002H23.1V14.6002C23.4 14.2002 23.8 13.8002 24 13.3002H26.8V7.00024ZM4.3 7.00024H0L2.2 11.1002L0 15.1002H8V14.5002C7.7 14.1002 7.4 13.7002 7.1 13.2002H4.3V7.00024ZM20.9 20.2002L20.7 21.7002L22.1 21.0002L23.5 21.7002L23.3 20.2002L24.4 19.1002L22.9 18.8002L22.2 17.4002L21.5 18.8002L19.9 19.0002L20.9 20.2002ZM14.4 20.2002C14.3 20.7002 14.3 21.2002 14.2 21.7002C14.7 21.5002 15.1 21.3002 15.6 21.0002C16.1 21.2002 16.5 21.4002 17 21.7002C16.9 21.2002 16.9 20.7002 16.8 20.2002C17.1 19.8002 17.5 19.4002 17.9 19.1002C17.4 19.0002 16.9 18.9002 16.4 18.8002C16.2 18.4002 15.9 17.9002 15.7 17.4002C15.5 17.9002 15.2 18.3002 15 18.8002C14.5 18.9002 14 19.0002 13.5 19.1002C13.7 19.4002 14 19.8002 14.4 20.2002ZM7.8 20.2002L7.6 21.7002L9 21.1002L10.4 21.8002L10.2 20.3002L11.3 19.2002L9.8 18.9002L9 17.4002L8.3 18.8002L6.7 19.0002L7.8 20.2002ZM15.6 1.70024L17.7 5.50024L21.9 6.30024L19 9.40024L19.6 13.6002L15.7 11.8002L11.8 13.6002L12.3 9.40024L9.3 6.20024L13.5 5.40024L15.6 1.70024Z" fill="#BDB4EE"/>
</svg>
