<svg width="60" height="60" viewBox="0 0 60 60" fill="none" xmlns="http://www.w3.org/2000/svg">
<circle cx="30" cy="30" r="30" fill="#EAE7FD"/>
<mask id="mask0" mask-type="alpha" maskUnits="userSpaceOnUse" x="0" y="0" width="60" height="60">
<circle cx="30" cy="30" r="30" fill="#EAE7FD"/>
</mask>
<g mask="url(#mask0)">
<g filter="url(#filter0_d)">
<circle cx="30.335" cy="30.335" r="19.335" fill="url(#paint0_linear)"/>
</g>
</g>
<mask id="mask1" mask-type="alpha" maskUnits="userSpaceOnUse" x="11" y="11" width="39" height="39">
<circle cx="30.335" cy="30.335" r="19.335" fill="url(#paint1_linear)"/>
</mask>
<g mask="url(#mask1)">
<path opacity="0.05" fill-rule="evenodd" clip-rule="evenodd" d="M9.99986 44.9999C9.99986 44.9999 15.3982 33.3402 25.249 36.4095C26.4834 36.7941 27.7508 37.096 29.038 37.312C38.0229 38.8195 48.9647 31.8509 55.4248 23.8593C62.8104 14.7226 49.4991 49.9999 49.4991 49.9999L14.8588 51.4125L9.99986 44.9999Z" fill="white"/>
<path opacity="0.05" fill-rule="evenodd" clip-rule="evenodd" d="M6.03231 20.7309C6.03231 20.7309 16.7597 33.9829 26.813 31.3542C36.8663 28.7256 49.4073 24.2444 56.001 36.9998C62.5946 49.7551 26.813 54.9998 26.813 54.9998L6.03169 42.9998L6.03231 20.7309Z" fill="white"/>
</g>
<circle cx="30.3907" cy="30.2794" r="12.3126" stroke="white" stroke-width="2"/>
<path d="M30.3906 22.6724V30.5294L36.096 35.0341" stroke="white" stroke-width="2" stroke-linecap="round" stroke-linejoin="round"/>
<defs>
<filter id="filter0_d" x="-4" y="-4" width="68.67" height="68.67" filterUnits="userSpaceOnUse" color-interpolation-filters="sRGB">
<feFlood flood-opacity="0" result="BackgroundImageFix"/>
<feColorMatrix in="SourceAlpha" type="matrix" values="0 0 0 0 0 0 0 0 0 0 0 0 0 0 0 0 0 0 127 0"/>
<feOffset/>
<feGaussianBlur stdDeviation="7.5"/>
<feColorMatrix type="matrix" values="0 0 0 0 0.517647 0 0 0 0 0.454902 0 0 0 0 0.870588 0 0 0 0.7 0"/>
<feBlend mode="normal" in2="BackgroundImageFix" result="effect1_dropShadow"/>
<feBlend mode="normal" in="SourceGraphic" in2="effect1_dropShadow" result="shape"/>
</filter>
<linearGradient id="paint0_linear" x1="30.335" y1="11" x2="30.335" y2="49.67" gradientUnits="userSpaceOnUse">
<stop stop-color="#A177FA"/>
<stop offset="0.260417" stop-color="#8374DD"/>
<stop offset="0.520833" stop-color="#7D6DE3"/>
<stop offset="1" stop-color="#6166D5"/>
</linearGradient>
<linearGradient id="paint1_linear" x1="30.335" y1="11" x2="30.335" y2="49.67" gradientUnits="userSpaceOnUse">
<stop stop-color="#A177FA"/>
<stop offset="0.260417" stop-color="#8374DD"/>
<stop offset="0.520833" stop-color="#7D6DE3"/>
<stop offset="1" stop-color="#6166D5"/>
</linearGradient>
</defs>
</svg>
