<svg width="162" height="56" viewBox="0 0 162 56" fill="none" xmlns="http://www.w3.org/2000/svg">
<path opacity="0.5" d="M52.0491 0.000244141L13.0024 0.000244141C9.55393 0.000244141 6.24672 1.47524 3.80831 4.10075C1.36989 6.72626 0 10.2872 0 14.0002C0 17.7133 1.36989 21.2742 3.80831 23.8997C6.24672 26.5252 9.55393 28.0002 13.0024 28.0002H26.0047V42.0002C26.0047 45.7133 27.3746 49.2742 29.813 51.8997C32.2515 54.5252 35.5587 56.0002 39.0071 56.0002C42.4556 56.0002 45.7628 54.5252 48.2012 51.8997C50.6396 49.2742 52.0095 45.7133 52.0095 42.0002V0.000244141L52.0491 0.000244141Z" fill="#3D29B1"/>
<path d="M52.0487 0.000276563C48.6304 -0.00532435 45.2446 0.714784 42.085 2.11941C38.9254 3.52403 36.0539 5.58561 33.635 8.1862C31.216 10.7868 29.297 13.8754 27.9877 17.2753C26.6783 20.6752 26.0044 24.3197 26.0044 28.0003V42.0003C26.0044 45.7133 27.3743 49.2742 29.8127 51.8997C32.2511 54.5253 35.5583 56.0002 39.0068 56.0002C42.4552 56.0002 45.7624 54.5253 48.2008 51.8997C50.6392 49.2742 52.0091 45.7133 52.0091 42.0003V0.000276563L52.0487 0.000276563Z" fill="#FFBF2A"/>
<path d="M70.009 0.803792C72.8535 0.725892 75.6104 1.86645 77.6747 3.97509C77.7417 4.03207 77.7959 4.10466 77.8332 4.18742C77.8704 4.27018 77.8898 4.36095 77.8898 4.45292C77.8898 4.54489 77.8704 4.63566 77.8332 4.71842C77.7959 4.80118 77.7417 4.87377 77.6747 4.93075L75.7526 7.07944C75.7055 7.14399 75.6454 7.19619 75.5769 7.23208C75.5083 7.26797 75.4331 7.28662 75.3569 7.28662C75.2807 7.28662 75.2054 7.26797 75.1369 7.23208C75.0683 7.19619 75.0082 7.14399 74.9612 7.07944C73.6169 5.80269 71.8918 5.08777 70.0994 5.06466C66.0461 5.06466 63.0386 8.71683 63.0386 13.0081C63.0198 14.0281 63.1889 15.042 63.5361 15.9912C63.8833 16.9404 64.4017 17.8062 65.0613 18.5385C65.721 19.2708 66.5088 19.8552 67.3794 20.2579C68.2499 20.6606 69.1859 20.8736 70.1333 20.8846C71.909 20.865 73.6226 20.1782 74.9781 18.9429C75.0838 18.8314 75.2259 18.7689 75.3738 18.7689C75.5218 18.7689 75.6639 18.8314 75.7696 18.9429L77.7312 21.122C77.7856 21.1845 77.828 21.2579 77.8558 21.3381C77.8836 21.4183 77.8962 21.5037 77.8931 21.5893C77.8899 21.6748 77.871 21.7588 77.8374 21.8364C77.8038 21.914 77.7562 21.9836 77.6973 22.0412C75.6393 24.1948 72.8729 25.3832 70.0033 25.3464C68.5066 25.3464 67.0246 25.029 65.6419 24.4123C64.2592 23.7956 63.0028 22.8917 61.9445 21.7522C60.8862 20.6127 60.0467 19.2599 59.474 17.7711C58.9012 16.2823 58.6064 14.6866 58.6064 13.0751C58.6064 11.4636 58.9012 9.86789 59.474 8.37907C60.0467 6.89024 60.8862 5.53747 61.9445 4.39797C63.0028 3.25848 64.2592 2.35458 65.6419 1.73789C67.0246 1.1212 68.5066 0.803792 70.0033 0.803792H70.009Z" fill="#F5F6FC"/>
<path d="M84.7029 16.3863C85.4861 16.3909 86.2647 16.516 87.0151 16.7576C87.049 15.0228 86.5402 14.4081 85.37 14.4081C84.174 14.429 82.9844 14.6006 81.8255 14.9194C81.3789 15.0533 81.1584 14.7489 81.0962 14.3107L80.8135 12.5394C80.7878 12.4523 80.7789 12.3604 80.7874 12.2695C80.7959 12.1786 80.8216 12.0905 80.8629 12.0107C80.9042 11.9308 80.9603 11.8609 81.0276 11.8053C81.095 11.7497 81.1722 11.7095 81.2545 11.6872C82.6582 11.2706 84.1062 11.0517 85.5622 11.0359C89.5195 11.0359 90.4353 13.2515 90.4353 16.9707V24.3481C90.431 24.5177 90.3665 24.6792 90.255 24.7992C90.1436 24.9192 89.9936 24.9887 89.836 24.9933H88.7054C88.4849 24.9933 88.3266 24.8959 88.1683 24.5185L87.7896 23.5994C87.2828 24.1483 86.6804 24.5841 86.0168 24.8818C85.3533 25.1795 84.6416 25.3332 83.9228 25.3341C81.3902 25.3341 79.649 23.5628 79.649 20.6655C79.6377 18.2611 81.475 16.3863 84.7029 16.3863ZM84.7708 22.4733C85.203 22.4397 85.623 22.3033 86.0003 22.0738C86.3777 21.8444 86.703 21.5276 86.9529 21.1463V19.2472C86.3895 18.9951 85.7877 18.8568 85.1778 18.8394C83.9454 18.8394 83.12 19.5881 83.12 20.6655C83.1093 20.9048 83.1455 21.1439 83.2264 21.3672C83.3073 21.5905 83.431 21.7928 83.5894 21.9611C83.7479 22.1294 83.9375 22.2599 84.1459 22.3439C84.3544 22.428 84.5769 22.4638 84.799 22.4489L84.7708 22.4733Z" fill="#F5F6FC"/>
<path d="M92.9273 23.3681L93.781 21.542C93.807 21.4679 93.8486 21.4012 93.9024 21.3471C93.9562 21.293 94.0208 21.2529 94.0913 21.2299C94.1618 21.207 94.2362 21.2018 94.3088 21.2147C94.3815 21.2277 94.4504 21.2584 94.5102 21.3046C95.4048 21.7933 96.3857 22.0714 97.3877 22.1203C98.0209 22.1203 98.4675 21.8524 98.4675 21.2681C98.4675 20.6837 98.0209 20.282 96.3419 19.5637C93.9053 18.5411 92.769 17.129 92.769 15.0655C92.769 13.002 94.1937 11.042 97.4216 11.042C98.7862 10.9987 100.135 11.3654 101.317 12.1011C101.461 12.1898 101.569 12.3327 101.622 12.5024C101.674 12.6721 101.666 12.8565 101.599 13.0203L100.808 14.7611C100.729 14.8918 100.609 14.9876 100.47 15.0311C100.331 15.0747 100.182 15.0631 100.05 14.9985C99.2221 14.5888 98.3312 14.3453 97.4216 14.2803C96.6585 14.2803 96.3419 14.6211 96.3419 15.0655C96.3419 15.6742 96.9072 15.8872 98.0831 16.3985C100.525 17.4211 102.357 18.5411 102.357 21.2011C102.357 23.4533 100.525 25.3585 97.3255 25.3585C95.834 25.4217 94.3614 24.9812 93.1139 24.0985C93.0107 24.0174 92.9361 23.901 92.9022 23.7684C92.8683 23.6357 92.8772 23.4946 92.9273 23.3681Z" fill="#F5F6FC"/>
<path d="M104.329 4.18206C104.326 3.87489 104.38 3.57011 104.486 3.28524C104.593 3.00037 104.751 2.74103 104.951 2.52213C105.152 2.30322 105.39 2.12907 105.653 2.00967C105.916 1.89028 106.198 1.828 106.483 1.82641C106.779 1.81018 107.076 1.85899 107.354 1.9699C107.632 2.0808 107.886 2.25146 108.101 2.47152C108.316 2.69158 108.488 2.95642 108.605 3.24996C108.722 3.5435 108.782 3.85959 108.782 4.17902C108.782 4.49844 108.722 4.81454 108.605 5.10807C108.488 5.40161 108.316 5.66645 108.101 5.88651C107.886 6.10657 107.632 6.27723 107.354 6.38814C107.076 6.49904 106.779 6.54786 106.483 6.53162C106.198 6.53084 105.916 6.4693 105.653 6.35057C105.39 6.23184 105.152 6.05826 104.952 5.83984C104.751 5.62142 104.593 5.36248 104.487 5.07795C104.38 4.79343 104.326 4.48894 104.329 4.18206ZM104.612 12.0221C104.611 11.9368 104.626 11.8523 104.656 11.7733C104.686 11.6943 104.73 11.6224 104.785 11.5619C104.841 11.5013 104.907 11.4532 104.98 11.4204C105.054 11.3876 105.132 11.3707 105.211 11.3708H107.84C107.919 11.3708 107.998 11.3876 108.071 11.4203C108.145 11.4531 108.211 11.501 108.268 11.5615C108.324 11.622 108.368 11.6938 108.399 11.7728C108.429 11.8518 108.445 11.9365 108.445 12.0221V24.3481C108.439 24.5184 108.373 24.6798 108.261 24.7997C108.149 24.9196 107.998 24.9888 107.84 24.9934H105.211C105.054 24.9887 104.904 24.9193 104.792 24.7993C104.681 24.6793 104.616 24.5178 104.612 24.3481V12.0221Z" fill="#F5F6FC"/>
<path d="M111.611 12.022C111.611 11.9367 111.626 11.8522 111.655 11.7732C111.685 11.6942 111.729 11.6224 111.785 11.5618C111.841 11.5012 111.907 11.4532 111.98 11.4204C112.053 11.3876 112.131 11.3707 112.211 11.3707H113.415C113.533 11.3703 113.649 11.4101 113.745 11.4844C113.842 11.5587 113.914 11.6637 113.952 11.7846L114.398 13.0446C114.979 12.405 115.673 11.8972 116.439 11.5511C117.205 11.2051 118.028 11.0278 118.859 11.0298C122.878 11.0298 124.512 14.2681 124.512 17.8168V24.3481C124.506 24.5183 124.441 24.6797 124.328 24.7996C124.216 24.9195 124.065 24.9887 123.907 24.9933H121.312C121.232 24.9957 121.152 24.9808 121.078 24.9495C121.003 24.9182 120.935 24.871 120.877 24.8109C120.82 24.7507 120.774 24.6788 120.743 24.5993C120.712 24.5198 120.696 24.4343 120.696 24.3481V17.6098C120.696 15.8385 119.842 14.7124 118.322 14.7124C117.679 14.7039 117.05 14.9045 116.515 15.2879C115.98 15.6713 115.566 16.2197 115.326 16.8611V24.3481C115.326 24.8228 115.139 24.9933 114.534 24.9933H112.194C112.039 24.9842 111.893 24.9127 111.785 24.7932C111.678 24.6736 111.615 24.5147 111.611 24.3481V12.022Z" fill="#F5F6FC"/>
<path d="M132.946 11.0299C134.269 10.996 135.571 11.3876 136.685 12.1546C137.8 12.9216 138.676 14.0292 139.203 15.3356C139.73 16.6421 139.883 18.088 139.642 19.4885C139.401 20.8889 138.778 22.1803 137.852 23.1973C136.926 24.2143 135.739 24.9108 134.444 25.1977C133.148 25.4845 131.802 25.3487 130.579 24.8076C129.355 24.2665 128.309 23.3447 127.575 22.16C126.841 20.9754 126.451 19.5819 126.457 18.1577C126.453 16.2903 127.132 14.4964 128.346 13.163C129.56 11.8295 131.212 11.0634 132.946 11.0299ZM132.946 21.6699C133.782 21.6381 134.572 21.2503 135.142 20.5917C135.713 19.9331 136.017 19.0576 135.988 18.1577C136.013 17.7108 135.953 17.2631 135.812 16.8422C135.671 16.4212 135.451 16.0358 135.166 15.7097C134.881 15.3837 134.537 15.1239 134.155 14.9463C133.774 14.7687 133.362 14.6771 132.946 14.6771C132.531 14.6771 132.119 14.7687 131.738 14.9463C131.356 15.1239 131.012 15.3837 130.727 15.7097C130.442 16.0358 130.222 16.4212 130.081 16.8422C129.94 17.2631 129.88 17.7108 129.905 18.1577C129.888 18.6039 129.954 19.0492 130.098 19.4679C130.243 19.8866 130.462 20.2703 130.745 20.5969C131.028 20.9235 131.368 21.1865 131.746 21.3707C132.124 21.5549 132.532 21.6565 132.946 21.6699Z" fill="#F5F6FC"/>
<path d="M68.9979 30.6298C71.2531 30.6166 73.4613 31.3241 75.3429 32.6628C77.2246 34.0015 78.695 35.9112 79.5681 38.1501C80.4412 40.3891 80.6778 42.8566 80.2478 45.2404C79.8179 47.6242 78.7407 49.817 77.1528 51.5413C75.5648 53.2657 73.5374 54.4439 71.3272 54.927C69.117 55.41 66.8233 55.1762 64.7366 54.255C62.6499 53.3338 60.8639 51.7667 59.6048 49.7521C58.3457 47.7375 57.6699 45.3659 57.6632 42.9376C57.6565 41.328 57.9444 39.7328 58.5105 38.243C59.0766 36.7533 59.9097 35.3982 60.9623 34.2552C62.0149 33.1122 63.2663 32.2038 64.6451 31.5817C66.0239 30.9597 67.503 30.6362 68.9979 30.6298ZM68.9979 50.7168C70.4409 50.724 71.8533 50.2694 73.0559 49.4107C74.2585 48.552 75.197 47.328 75.7523 45.8939C76.3076 44.4599 76.4547 42.8805 76.1748 41.3563C75.8949 39.8321 75.2007 38.4318 74.1804 37.3331C73.16 36.2345 71.8595 35.4871 70.4439 35.1857C69.0283 34.8844 67.5615 35.0427 66.2296 35.6406C64.8978 36.2385 63.7609 37.2491 62.9635 38.5439C62.166 39.8388 61.7438 41.3596 61.7505 42.9133C61.7564 44.9832 62.5211 46.9668 63.8784 48.4328C65.2356 49.8987 67.0755 50.7283 68.9979 50.7411V50.7168Z" fill="#F5F6FC"/>
<path d="M82.8306 41.848C82.8306 41.6753 82.8943 41.5096 83.0077 41.3875C83.1212 41.2654 83.275 41.1967 83.4355 41.1967H84.6396C84.7581 41.1964 84.8737 41.2362 84.9701 41.3105C85.0665 41.3847 85.1387 41.4897 85.1766 41.6106L85.6176 42.8706C86.199 42.2303 86.8939 41.7221 87.661 41.376C88.4281 41.0299 89.2519 40.8531 90.0836 40.8559C94.1031 40.8559 95.7368 44.0941 95.7368 47.6428V54.1741C95.7311 54.3443 95.6654 54.5058 95.553 54.6257C95.4406 54.7456 95.2901 54.8148 95.1319 54.8193H92.5371C92.4568 54.8226 92.3767 54.8084 92.3017 54.7773C92.2266 54.7463 92.1583 54.6992 92.1006 54.6389C92.043 54.5785 91.9974 54.5062 91.9665 54.4264C91.9356 54.3465 91.9201 54.2607 91.9209 54.1741V47.4359C91.9209 45.6646 91.0616 44.5385 89.5466 44.5385C88.907 44.5328 88.2806 44.7348 87.7492 45.1181C87.2177 45.5014 86.8059 46.0482 86.5673 46.6872V54.1741C86.5673 54.6489 86.3808 54.8193 85.7759 54.8193H83.4355C83.2773 54.8148 83.1267 54.7456 83.0144 54.6257C82.902 54.5058 82.8363 54.3443 82.8306 54.1741V41.848Z" fill="#F5F6FC"/>
<path d="M98.2192 31.6524C98.2234 31.4821 98.2878 31.32 98.3991 31.199C98.5104 31.078 98.6604 31.0072 98.8185 31.0011H101.481C101.639 31.0072 101.789 31.078 101.9 31.199C102.012 31.32 102.076 31.4821 102.08 31.6524V54.1741C102.076 54.3438 102.012 54.5052 101.9 54.6253C101.789 54.7453 101.639 54.8147 101.481 54.8193H98.8185C98.6609 54.8147 98.511 54.7453 98.3995 54.6253C98.288 54.5052 98.2235 54.3438 98.2192 54.1741V31.6524Z" fill="#F5F6FC"/>
<path d="M104.329 34.008C104.326 33.7008 104.38 33.396 104.486 33.1112C104.593 32.8263 104.751 32.567 104.951 32.3481C105.152 32.1292 105.39 31.955 105.653 31.8356C105.916 31.7162 106.198 31.6539 106.483 31.6523C106.779 31.6361 107.076 31.6849 107.354 31.7958C107.632 31.9067 107.886 32.0774 108.101 32.2974C108.316 32.5175 108.488 32.7824 108.605 33.0759C108.722 33.3694 108.782 33.6855 108.782 34.0049C108.782 34.3244 108.722 34.6405 108.605 34.934C108.488 35.2275 108.316 35.4924 108.101 35.7124C107.886 35.9325 107.632 36.1032 107.354 36.2141C107.076 36.325 106.779 36.3738 106.483 36.3576C106.198 36.3568 105.916 36.2952 105.653 36.1765C105.39 36.0578 105.152 35.8842 104.952 35.6658C104.751 35.4473 104.593 35.1884 104.487 34.9039C104.38 34.6194 104.326 34.3149 104.329 34.008ZM104.612 41.848C104.611 41.7627 104.626 41.6782 104.656 41.5992C104.686 41.5202 104.73 41.4484 104.785 41.3878C104.841 41.3272 104.907 41.2792 104.98 41.2464C105.054 41.2136 105.132 41.1967 105.211 41.1967H107.84C108 41.1967 108.154 41.2653 108.268 41.3874C108.381 41.5096 108.445 41.6752 108.445 41.848V54.1741C108.439 54.3443 108.373 54.5058 108.261 54.6256C108.149 54.7455 107.998 54.8147 107.84 54.8193H105.211C105.054 54.8147 104.904 54.7452 104.792 54.6252C104.681 54.5052 104.616 54.3437 104.612 54.1741V41.848Z" fill="#F5F6FC"/>
<path d="M111.368 41.848C111.366 41.682 111.424 41.5217 111.53 41.4003C111.635 41.279 111.78 41.2061 111.934 41.1967H113.138C113.261 41.1898 113.383 41.2265 113.485 41.3012C113.587 41.376 113.664 41.4846 113.703 41.6106L114.15 42.8706C114.73 42.231 115.424 41.7232 116.19 41.3772C116.956 41.0311 117.779 40.8539 118.61 40.8559C122.629 40.8559 124.263 44.0941 124.263 47.6428V54.1741C124.259 54.3438 124.194 54.5052 124.083 54.6252C123.971 54.7453 123.821 54.8147 123.664 54.8193H121.063C120.983 54.8226 120.902 54.8083 120.827 54.7774C120.752 54.7464 120.683 54.6994 120.625 54.6392C120.567 54.5789 120.521 54.5067 120.489 54.4268C120.458 54.3469 120.442 54.2609 120.442 54.1741V47.4359C120.442 45.6645 119.588 44.5385 118.067 44.5385C117.428 44.5332 116.803 44.7354 116.272 45.1187C115.742 45.502 115.331 46.0486 115.094 46.6872V54.1741C115.094 54.6489 114.901 54.8193 114.302 54.8193H111.934C111.782 54.8059 111.64 54.7325 111.536 54.6134C111.432 54.4943 111.372 54.3378 111.368 54.1741V41.848Z" fill="#F5F6FC"/>
<path d="M132.726 40.8558C133.505 40.8394 134.279 40.992 135.002 41.3045C135.725 41.6171 136.382 42.0832 136.935 42.675C137.487 43.2669 137.923 43.9724 138.217 44.7495C138.511 45.5266 138.656 46.3595 138.644 47.1984C138.644 47.4358 138.611 47.8802 138.582 48.1175C138.57 48.2818 138.501 48.4351 138.389 48.5476C138.277 48.6601 138.13 48.7238 137.977 48.7262H129.876C129.943 49.5415 130.292 50.2998 130.855 50.8503C131.418 51.4007 132.152 51.7029 132.912 51.6967C133.797 51.6847 134.658 51.3856 135.383 50.8384C135.699 50.6375 135.987 50.5706 136.208 50.8384L137.502 52.4454C137.566 52.497 137.617 52.5637 137.652 52.6403C137.688 52.7169 137.706 52.8012 137.706 52.8867C137.706 52.9721 137.688 53.0565 137.652 53.133C137.617 53.2096 137.566 53.2763 137.502 53.328C136.212 54.5798 134.524 55.2508 132.788 55.2028C131.024 55.2076 129.332 54.4581 128.082 53.1191C126.832 51.7801 126.127 49.9612 126.123 48.0628C126.118 46.1643 126.814 44.3416 128.058 42.9958C129.301 41.6499 130.991 40.8911 132.754 40.8862L132.726 40.8558ZM134.942 46.3341C134.889 45.7095 134.623 45.1279 134.197 44.701C133.77 44.2741 133.212 44.0319 132.629 44.021C132.028 44.0207 131.446 44.2546 130.992 44.6797C130.538 45.1049 130.242 45.6924 130.159 46.3341H134.942Z" fill="#F5F6FC"/>
<path d="M142.002 49.5481C142.696 49.5576 143.359 49.859 143.849 50.388C144.339 50.9169 144.618 51.6313 144.625 52.3785C144.622 52.9334 144.466 53.4748 144.178 53.9346C143.889 54.3944 143.481 54.752 143.004 54.9624C142.527 55.1728 142.003 55.2266 141.498 55.117C140.993 55.0075 140.529 54.7394 140.165 54.3466C139.801 53.9538 139.553 53.4538 139.452 52.9096C139.352 52.3654 139.403 51.8013 139.599 51.2883C139.795 50.7753 140.128 50.3364 140.556 50.0267C140.984 49.717 141.487 49.5505 142.002 49.5481Z" fill="#F5F6FC"/>
<path d="M146.463 34.008C146.461 33.7008 146.514 33.396 146.621 33.1112C146.727 32.8263 146.885 32.567 147.086 32.3481C147.286 32.1292 147.524 31.955 147.787 31.8356C148.05 31.7162 148.332 31.6539 148.617 31.6523C148.914 31.6361 149.21 31.6849 149.488 31.7958C149.766 31.9067 150.021 32.0774 150.236 32.2974C150.451 32.5175 150.622 32.7824 150.739 33.0759C150.856 33.3694 150.916 33.6855 150.916 34.0049C150.916 34.3244 150.856 34.6405 150.739 34.934C150.622 35.2275 150.451 35.4924 150.236 35.7124C150.021 35.9325 149.766 36.1032 149.488 36.2141C149.21 36.325 148.914 36.3738 148.617 36.3576C148.332 36.3568 148.05 36.2952 147.787 36.1765C147.525 36.0578 147.286 35.8842 147.086 35.6658C146.886 35.4473 146.728 35.1884 146.621 34.9039C146.514 34.6194 146.461 34.3149 146.463 34.008ZM146.752 41.848C146.751 41.7627 146.766 41.6782 146.796 41.5992C146.826 41.5202 146.87 41.4484 146.925 41.3878C146.981 41.3272 147.047 41.2792 147.12 41.2464C147.193 41.2136 147.272 41.1967 147.351 41.1967H149.98C150.059 41.1967 150.137 41.2136 150.21 41.2464C150.284 41.2792 150.35 41.3272 150.406 41.3878C150.461 41.4484 150.505 41.5202 150.535 41.5992C150.565 41.6782 150.58 41.7627 150.579 41.848V54.1741C150.575 54.3437 150.51 54.5052 150.399 54.6252C150.287 54.7452 150.137 54.8147 149.98 54.8193H147.351C147.193 54.8147 147.044 54.7452 146.932 54.6252C146.821 54.5052 146.756 54.3437 146.752 54.1741V41.848Z" fill="#F5F6FC"/>
<path d="M154.333 44.7759H153.253C153.099 44.7681 152.955 44.6964 152.849 44.5761C152.744 44.4558 152.686 44.2961 152.687 44.1307V41.8481C152.682 41.7647 152.693 41.6809 152.719 41.6021C152.745 41.5232 152.785 41.451 152.838 41.3899C152.891 41.3288 152.956 41.2801 153.027 41.2469C153.098 41.2136 153.175 41.1966 153.253 41.1968H154.333V37.4168C154.337 37.2465 154.401 37.0844 154.512 36.9634C154.624 36.8424 154.774 36.7716 154.932 36.7655H157.527C157.68 36.7734 157.825 36.845 157.93 36.9653C158.036 37.0857 158.094 37.2453 158.092 37.4107V41.2272H160.879C160.959 41.2218 161.04 41.235 161.115 41.2659C161.191 41.2968 161.259 41.3447 161.316 41.4064C161.373 41.4681 161.417 41.5421 161.445 41.6235C161.473 41.705 161.484 41.7919 161.478 41.8785V44.1307C161.478 44.3018 161.415 44.466 161.303 44.587C161.19 44.708 161.038 44.7759 160.879 44.7759H158.092V50.2542C158.092 51.2099 158.567 51.3499 159.076 51.3499C159.607 51.3106 160.129 51.1833 160.625 50.9725C160.692 50.9375 160.767 50.9197 160.842 50.9206C160.917 50.9214 160.991 50.9408 161.058 50.9772C161.125 51.0137 161.184 51.0662 161.229 51.1308C161.275 51.1954 161.306 51.2703 161.32 51.3499L161.953 53.4925C161.984 53.5704 162 53.6545 162 53.7394C161.999 53.8243 161.982 53.9082 161.95 53.9856C161.917 54.063 161.87 54.1322 161.811 54.1888C161.752 54.2454 161.683 54.2881 161.608 54.3142C160.404 54.8268 159.131 55.1249 157.838 55.1968C155.401 55.1968 154.327 53.5655 154.327 50.802L154.333 44.7759Z" fill="#F5F6FC"/>
<path opacity="0.5" d="M26.0047 0.000244141L13.0024 0.000244141C9.55393 0.000244141 6.24672 1.47524 3.80831 4.10075C1.36989 6.72626 0 10.2872 0 14.0002C0 17.7133 1.36989 21.2742 3.80831 23.8997C6.24672 26.5252 9.55393 28.0002 13.0024 28.0002H26.0047C32.9016 28.0002 39.516 25.0502 44.3929 19.7992C49.2697 14.5482 52.0095 7.4263 52.0095 0.000244141L26.0047 0.000244141Z" fill="#FF3F01"/>
<path d="M17.8186 43.8568C21.4091 43.8568 24.3198 40.7228 24.3198 36.8568C24.3198 32.9908 21.4091 29.8568 17.8186 29.8568C14.2281 29.8568 11.3174 32.9908 11.3174 36.8568C11.3174 40.7228 14.2281 43.8568 17.8186 43.8568Z" fill="#FFBF2A"/>
</svg>
