<svg width="113" height="113" viewBox="0 0 113 113" fill="none" xmlns="http://www.w3.org/2000/svg">
<circle cx="56.5" cy="56.5" r="56.5" fill="#EAE7FD"/>
<mask id="mask0" mask-type="alpha" maskUnits="userSpaceOnUse" x="0" y="0" width="113" height="113">
<circle cx="56.5" cy="56.5" r="56.5" fill="#EAE7FD"/>
</mask>
<g mask="url(#mask0)">
<g filter="url(#filter0_d)">
<path d="M80.2606 28.5669C80.2606 26.2459 78.3862 24.4834 76.0652 24.4834H32.4058C30.0854 24.4834 28.25 26.2459 28.25 28.5669V87.9266H80.2606V28.5669Z" fill="url(#paint0_linear)"/>
</g>
<mask id="mask1" mask-type="alpha" maskUnits="userSpaceOnUse" x="28" y="24" width="53" height="64">
<path d="M80.2606 28.5669C80.2606 26.2459 78.3862 24.4834 76.0652 24.4834H32.4058C30.0854 24.4834 28.25 26.2459 28.25 28.5669V87.9266H80.2606V28.5669Z" fill="url(#paint1_linear)"/>
</mask>
<g mask="url(#mask1)">
<path opacity="0.07" fill-rule="evenodd" clip-rule="evenodd" d="M14.3392 43.9533C14.3392 43.9533 38.4524 75.7726 60.4921 62.1282C82.5317 48.4837 88.7378 33.6137 103.488 46.172C118.239 58.7304 95.1151 101.7 95.1151 101.7H9.4165L14.3392 43.9533Z" fill="white"/>
<path opacity="0.07" fill-rule="evenodd" clip-rule="evenodd" d="M14.8629 74.2842C14.8629 74.2842 29.2263 48.2459 51.257 53.6678C73.2878 59.0897 87.6057 89.4786 111.365 74.2842C135.125 59.0897 97.3091 99.8167 97.3091 99.8167H11.2998L14.8629 74.2842Z" fill="white"/>
</g>
<path d="M90.8638 25.0022C87.8333 25.011 85.2764 27.2609 84.8826 30.2657C84.4895 33.2704 86.3803 36.1028 89.3064 36.8909V52.3403H91.8827V37.0274C94.9887 36.5028 97.1732 33.6843 96.9072 30.5462C96.6411 27.4075 94.0132 24.9972 90.8638 25.0028V25.0022Z" fill="url(#paint2_linear)"/>
<g filter="url(#filter1_d)">
<path d="M32.5162 30.6331H76.717V42.8173H32.5162V30.6331Z" stroke="white" stroke-width="0.999205"/>
</g>
<g filter="url(#filter2_d)">
<path d="M32.5162 72.0665H76.717V84.2506H32.5162V72.0665Z" stroke="white" stroke-width="0.999205"/>
</g>
<g filter="url(#filter3_d)">
<path d="M32.5162 45.6998H76.717V69.1839H32.5162V45.6998Z" stroke="white" stroke-width="0.999205"/>
</g>
<g filter="url(#filter4_d)">
<path d="M35.7832 65.9168H73.4499V48.9668H35.7832V65.9168ZM62.916 52.4945C62.916 52.0352 63.5575 51.7166 64.2215 51.7166H70.6693C71.2441 51.7166 72.0134 52.0256 72.0134 52.4945V54.6657C72.0134 55.2479 71.5452 56.1045 71.4068 56.3526L67.1511 64.1375C66.9984 64.4106 66.706 64.5431 66.2733 64.5431C65.3849 64.5431 64.3861 63.9478 64.3861 63.0942C64.3879 62.9218 64.4372 62.753 64.5295 62.6057L68.9809 55.2187V54.1587H65.9485V55.187C65.9485 55.6809 65.2352 56.0979 64.4141 56.0979C63.5849 56.0979 62.916 55.6976 62.916 55.187V52.4945ZM49.6688 52.4945C49.6688 52.0352 50.2997 51.7166 50.9631 51.7166H57.4109C57.9857 51.7166 58.7663 52.0256 58.7663 52.4945V54.6657C58.7663 55.2479 58.2924 56.1045 58.154 56.3526L53.8927 64.1375C53.7406 64.4106 53.4488 64.5431 53.0149 64.5431C52.1265 64.5431 51.1296 63.9478 51.1296 63.0942C51.132 62.9218 51.1825 62.753 51.2761 62.6057L55.7338 55.2187V54.1587H52.7013V55.187C52.7013 55.6809 51.988 56.0979 51.167 56.0979C50.3378 56.0979 49.6688 55.6976 49.6688 55.187V52.4945ZM37.2196 52.4945C37.2196 52.0352 37.7677 51.7166 38.4316 51.7166H44.8794C45.4542 51.7166 46.1575 52.0256 46.1575 52.4945V54.6657C46.1575 55.2479 45.7248 56.1045 45.5864 56.3526L41.3662 64.1375C41.2141 64.4106 40.9273 64.5431 40.494 64.5431C39.6062 64.5431 38.6193 63.9478 38.6193 63.0942C38.6293 62.92 38.6866 62.7518 38.7858 62.6057L43.2846 55.2187V54.1587H40.0925V55.187C40.0925 55.6809 39.4591 56.0979 38.638 56.0979C37.8088 56.0979 37.2196 55.6976 37.2196 55.187V52.4945Z" fill="#F5F6FC"/>
</g>
<path d="M82.8667 53.9509H92.8502V68.443H82.8667V53.9509Z" fill="url(#paint3_linear)"/>
<g filter="url(#filter5_d)">
<path d="M40.4915 39.4795L40.096 39.0706C38.627 37.7272 37.6665 36.8218 37.6665 35.712C37.6665 34.8066 38.3445 34.1057 39.2203 34.1057C39.7005 34.1057 40.1808 34.3394 40.4915 34.719C40.8023 34.3394 41.2825 34.1057 41.7628 34.1057C42.6385 34.1057 43.3165 34.8066 43.3165 35.712C43.3165 36.8218 42.356 37.7272 40.887 39.0706L40.4915 39.4795Z" fill="#F5F6FC"/>
</g>
<g filter="url(#filter6_d)">
<path d="M53.6751 39.4795L53.2796 39.0706C51.8106 37.7272 50.8501 36.8218 50.8501 35.712C50.8501 34.8066 51.5281 34.1057 52.4038 34.1057C52.8841 34.1057 53.3643 34.3394 53.6751 34.719C53.9858 34.3394 54.4661 34.1057 54.9463 34.1057C55.8221 34.1057 56.5001 34.8066 56.5001 35.712C56.5001 36.8218 55.5396 37.7272 54.0706 39.0706L53.6751 39.4795Z" fill="#F5F6FC"/>
</g>
<g filter="url(#filter7_d)">
<path d="M66.8582 39.4795L66.4627 39.0706C64.9937 37.7272 64.0332 36.8218 64.0332 35.712C64.0332 34.8066 64.7112 34.1057 65.587 34.1057C66.0672 34.1057 66.5475 34.3394 66.8582 34.719C67.169 34.3394 67.6492 34.1057 68.1295 34.1057C69.0052 34.1057 69.6832 34.8066 69.6832 35.712C69.6832 36.8218 68.7227 37.7272 67.2537 39.0706L66.8582 39.4795Z" fill="#F5F6FC"/>
</g>
<path d="M41.8244 79.0625C40.7564 79.8562 40.3883 80.4916 40.1384 80.9834C40.1384 80.9834 40.1384 80.9834 40.1384 80.9834V80.9834C39.8884 80.4916 39.5204 79.8562 38.4524 79.0625C36.6314 77.7091 38.3455 75.8199 39.8525 76.8597C39.7543 76.2145 39.4192 75.7442 39.0789 75.5417V75.3334H40.1384H41.1978V75.5416C40.8575 75.7442 40.5224 76.2145 40.4242 76.8597C41.9312 75.8199 43.6454 77.7091 41.8244 79.0625Z" fill="#E8E5FD"/>
<path d="M41.8244 79.0625C40.7564 79.8562 40.3883 80.4916 40.1384 80.9834C40.1384 80.9834 40.1384 80.9834 40.1384 80.9834V80.9834C39.8884 80.4916 39.5204 79.8562 38.4524 79.0625C36.6314 77.7091 38.3455 75.8199 39.8525 76.8597C39.7543 76.2145 39.4192 75.7442 39.0789 75.5417V75.3334H40.1384H41.1978V75.5416C40.8575 75.7442 40.5224 76.2145 40.4242 76.8597C41.9312 75.8199 43.6454 77.7091 41.8244 79.0625Z" fill="#F5F6FC"/>
<path d="M55.008 79.0625C53.94 79.8562 53.5719 80.4916 53.322 80.9834C53.322 80.9834 53.322 80.9834 53.322 80.9834V80.9834C53.072 80.4916 52.704 79.8562 51.636 79.0625C49.815 77.7091 51.5291 75.8199 53.0361 76.8597C52.9379 76.2145 52.6028 75.7442 52.2625 75.5417V75.3334H53.322H54.3814V75.5416C54.0411 75.7442 53.706 76.2145 53.6078 76.8597C55.1148 75.8199 56.829 77.7091 55.008 79.0625Z" fill="#F5F6FC"/>
<path d="M68.1911 79.0625C67.1231 79.8562 66.755 80.4916 66.5051 80.9834C66.5051 80.9834 66.5051 80.9834 66.5051 80.9834V80.9834C66.2551 80.4916 65.8871 79.8562 64.8191 79.0625C62.9981 77.7091 64.7122 75.8199 66.2192 76.8597C66.121 76.2145 65.7859 75.7442 65.4456 75.5417V75.3334H66.5051H67.5645V75.5416C67.2242 75.7442 66.8891 76.2145 66.7909 76.8597C68.2979 75.8199 70.0121 77.7091 68.1911 79.0625Z" fill="#F5F6FC"/>
</g>
<defs>
<filter id="filter0_d" x="13.25" y="9.4834" width="82.0106" height="93.4432" filterUnits="userSpaceOnUse" color-interpolation-filters="sRGB">
<feFlood flood-opacity="0" result="BackgroundImageFix"/>
<feColorMatrix in="SourceAlpha" type="matrix" values="0 0 0 0 0 0 0 0 0 0 0 0 0 0 0 0 0 0 127 0"/>
<feOffset/>
<feGaussianBlur stdDeviation="7.5"/>
<feColorMatrix type="matrix" values="0 0 0 0 0.517647 0 0 0 0 0.454902 0 0 0 0 0.870588 0 0 0 0.7 0"/>
<feBlend mode="normal" in2="BackgroundImageFix" result="effect1_dropShadow"/>
<feBlend mode="normal" in="SourceGraphic" in2="effect1_dropShadow" result="shape"/>
</filter>
<filter id="filter1_d" x="32.0166" y="30.1335" width="45.2" height="13.1833" filterUnits="userSpaceOnUse" color-interpolation-filters="sRGB">
<feFlood flood-opacity="0" result="BackgroundImageFix"/>
<feColorMatrix in="SourceAlpha" type="matrix" values="0 0 0 0 0 0 0 0 0 0 0 0 0 0 0 0 0 0 127 0"/>
<feOffset/>
<feColorMatrix type="matrix" values="0 0 0 0 0.504939 0 0 0 0 0.45776 0 0 0 0 0.779167 0 0 0 1 0"/>
<feBlend mode="normal" in2="BackgroundImageFix" result="effect1_dropShadow"/>
<feBlend mode="normal" in="SourceGraphic" in2="effect1_dropShadow" result="shape"/>
</filter>
<filter id="filter2_d" x="32.0166" y="71.5669" width="45.2" height="13.1833" filterUnits="userSpaceOnUse" color-interpolation-filters="sRGB">
<feFlood flood-opacity="0" result="BackgroundImageFix"/>
<feColorMatrix in="SourceAlpha" type="matrix" values="0 0 0 0 0 0 0 0 0 0 0 0 0 0 0 0 0 0 127 0"/>
<feOffset/>
<feColorMatrix type="matrix" values="0 0 0 0 0.504939 0 0 0 0 0.45776 0 0 0 0 0.779167 0 0 0 1 0"/>
<feBlend mode="normal" in2="BackgroundImageFix" result="effect1_dropShadow"/>
<feBlend mode="normal" in="SourceGraphic" in2="effect1_dropShadow" result="shape"/>
</filter>
<filter id="filter3_d" x="32.0166" y="45.2002" width="45.2" height="24.4833" filterUnits="userSpaceOnUse" color-interpolation-filters="sRGB">
<feFlood flood-opacity="0" result="BackgroundImageFix"/>
<feColorMatrix in="SourceAlpha" type="matrix" values="0 0 0 0 0 0 0 0 0 0 0 0 0 0 0 0 0 0 127 0"/>
<feOffset/>
<feColorMatrix type="matrix" values="0 0 0 0 0.504939 0 0 0 0 0.45776 0 0 0 0 0.779167 0 0 0 1 0"/>
<feBlend mode="normal" in2="BackgroundImageFix" result="effect1_dropShadow"/>
<feBlend mode="normal" in="SourceGraphic" in2="effect1_dropShadow" result="shape"/>
</filter>
<filter id="filter4_d" x="35.7832" y="48.9668" width="37.6667" height="16.95" filterUnits="userSpaceOnUse" color-interpolation-filters="sRGB">
<feFlood flood-opacity="0" result="BackgroundImageFix"/>
<feColorMatrix in="SourceAlpha" type="matrix" values="0 0 0 0 0 0 0 0 0 0 0 0 0 0 0 0 0 0 127 0"/>
<feOffset/>
<feColorMatrix type="matrix" values="0 0 0 0 0.504939 0 0 0 0 0.45776 0 0 0 0 0.779167 0 0 0 1 0"/>
<feBlend mode="normal" in2="BackgroundImageFix" result="effect1_dropShadow"/>
<feBlend mode="normal" in="SourceGraphic" in2="effect1_dropShadow" result="shape"/>
</filter>
<filter id="filter5_d" x="32.6665" y="29.1057" width="15.65" height="15.3738" filterUnits="userSpaceOnUse" color-interpolation-filters="sRGB">
<feFlood flood-opacity="0" result="BackgroundImageFix"/>
<feColorMatrix in="SourceAlpha" type="matrix" values="0 0 0 0 0 0 0 0 0 0 0 0 0 0 0 0 0 0 127 0"/>
<feOffset/>
<feGaussianBlur stdDeviation="2.5"/>
<feColorMatrix type="matrix" values="0 0 0 0 0.504939 0 0 0 0 0.45776 0 0 0 0 0.779167 0 0 0 1 0"/>
<feBlend mode="normal" in2="BackgroundImageFix" result="effect1_dropShadow"/>
<feBlend mode="normal" in="SourceGraphic" in2="effect1_dropShadow" result="shape"/>
</filter>
<filter id="filter6_d" x="45.8501" y="29.1057" width="15.65" height="15.3738" filterUnits="userSpaceOnUse" color-interpolation-filters="sRGB">
<feFlood flood-opacity="0" result="BackgroundImageFix"/>
<feColorMatrix in="SourceAlpha" type="matrix" values="0 0 0 0 0 0 0 0 0 0 0 0 0 0 0 0 0 0 127 0"/>
<feOffset/>
<feGaussianBlur stdDeviation="2.5"/>
<feColorMatrix type="matrix" values="0 0 0 0 0.504939 0 0 0 0 0.45776 0 0 0 0 0.779167 0 0 0 1 0"/>
<feBlend mode="normal" in2="BackgroundImageFix" result="effect1_dropShadow"/>
<feBlend mode="normal" in="SourceGraphic" in2="effect1_dropShadow" result="shape"/>
</filter>
<filter id="filter7_d" x="59.0332" y="29.1057" width="15.65" height="15.3738" filterUnits="userSpaceOnUse" color-interpolation-filters="sRGB">
<feFlood flood-opacity="0" result="BackgroundImageFix"/>
<feColorMatrix in="SourceAlpha" type="matrix" values="0 0 0 0 0 0 0 0 0 0 0 0 0 0 0 0 0 0 127 0"/>
<feOffset/>
<feGaussianBlur stdDeviation="2.5"/>
<feColorMatrix type="matrix" values="0 0 0 0 0.504939 0 0 0 0 0.45776 0 0 0 0 0.779167 0 0 0 1 0"/>
<feBlend mode="normal" in2="BackgroundImageFix" result="effect1_dropShadow"/>
<feBlend mode="normal" in="SourceGraphic" in2="effect1_dropShadow" result="shape"/>
</filter>
<linearGradient id="paint0_linear" x1="54.2553" y1="24.4834" x2="54.2553" y2="87.9266" gradientUnits="userSpaceOnUse">
<stop stop-color="#A177FA"/>
<stop offset="0.317708" stop-color="#8374DD"/>
<stop offset="0.651042" stop-color="#7D6DE3"/>
<stop offset="1" stop-color="#6166D4"/>
</linearGradient>
<linearGradient id="paint1_linear" x1="54.2553" y1="24.4834" x2="54.2553" y2="87.9266" gradientUnits="userSpaceOnUse">
<stop stop-color="#A177FA"/>
<stop offset="0.317708" stop-color="#8374DD"/>
<stop offset="0.651042" stop-color="#7D6DE3"/>
<stop offset="1" stop-color="#6166D4"/>
</linearGradient>
<linearGradient id="paint2_linear" x1="90.8801" y1="25.0022" x2="90.8801" y2="52.3403" gradientUnits="userSpaceOnUse">
<stop stop-color="#9F77F9"/>
<stop offset="1" stop-color="#6266D5"/>
</linearGradient>
<linearGradient id="paint3_linear" x1="87.8584" y1="53.9509" x2="87.8584" y2="68.443" gradientUnits="userSpaceOnUse">
<stop stop-color="#7D6DE3"/>
<stop offset="1" stop-color="#6467D6"/>
</linearGradient>
</defs>
</svg>
