<svg width="113" height="113" viewBox="0 0 113 113" fill="none" xmlns="http://www.w3.org/2000/svg">
<circle cx="56.5" cy="56.5" r="56.5" fill="#EAE7FD"/>
<mask id="mask0" mask-type="alpha" maskUnits="userSpaceOnUse" x="0" y="0" width="113" height="113">
<circle cx="56.5" cy="56.5" r="56.5" fill="#EAE7FD"/>
</mask>
<g mask="url(#mask0)">
<g filter="url(#filter0_d)">
<rect x="28.25" y="24.408" width="47.5676" height="66.5947" rx="3" fill="url(#paint0_linear)"/>
</g>
<path d="M78.2759 68.4307V28.4099C80.6899 29.4771 86.3226 31.9317 89.5413 33.2124C92.76 34.4931 92.4918 36.9477 91.9553 38.0149L78.2759 68.4307Z" fill="url(#paint1_linear)"/>
<path d="M86.9107 37.2998C86.8223 37.6236 86.914 37.8489 87.1857 37.9756C87.3987 38.0749 87.59 38.0529 87.7597 37.9096C87.933 37.7681 88.106 37.5026 88.2786 37.1131C88.1503 37.2253 87.9897 37.2868 87.7969 37.2976C87.6094 37.3067 87.4147 37.2641 87.2127 37.1699C86.8455 36.9987 86.6036 36.76 86.487 36.4539C86.3721 36.1443 86.4054 35.7948 86.587 35.4054C86.7011 35.1607 86.8556 34.9684 87.0505 34.8285C87.2454 34.6886 87.4698 34.6149 87.7236 34.6074C87.9828 34.5982 88.2574 34.6612 88.5475 34.7965C88.9404 34.9797 89.2109 35.2002 89.3589 35.4581C89.5069 35.7159 89.5605 35.9989 89.5196 36.3071C89.4803 36.6119 89.373 36.9521 89.1979 37.3278C88.8893 37.9895 88.5471 38.4405 88.1713 38.6806C87.8008 38.9191 87.3622 38.9201 86.8554 38.6838C86.5764 38.5537 86.3599 38.3898 86.2062 38.1922C86.0577 37.9929 85.9694 37.7797 85.9412 37.5526C85.9166 37.3271 85.946 37.1059 86.0294 36.8888L86.9107 37.2998ZM88.5397 36.3663C88.6136 36.2078 88.6254 36.058 88.5749 35.917C88.526 35.7725 88.4098 35.6574 88.2262 35.5718C88.0609 35.4948 87.9105 35.4771 87.7748 35.5187C87.6428 35.562 87.5382 35.6664 87.4611 35.8319C87.384 35.9973 87.3722 36.1471 87.4259 36.2812C87.4812 36.4119 87.5915 36.5158 87.7567 36.5928C87.9147 36.6665 88.0661 36.6868 88.2112 36.6537C88.3579 36.6172 88.4674 36.5214 88.5397 36.3663Z" fill="#F5F6FC"/>
<mask id="mask1" mask-type="alpha" maskUnits="userSpaceOnUse" x="28" y="24" width="48" height="68">
<rect x="28.25" y="24.408" width="47.5676" height="66.5947" rx="3" fill="url(#paint2_linear)"/>
</mask>
<g mask="url(#mask1)">
<path opacity="0.07" fill-rule="evenodd" clip-rule="evenodd" d="M20.3418 28.4854C20.3418 28.4854 39.0318 38.6996 44.8448 56.5239C50.6577 74.3482 65.3975 78.2866 94.8436 76.053C124.29 73.8193 64.2644 101.875 64.2644 101.875L14.6582 93.3568L20.3418 28.4854Z" fill="white"/>
<path opacity="0.06" fill-rule="evenodd" clip-rule="evenodd" d="M29.5456 75.4773C29.5456 75.4773 41.6049 70.0459 60.5531 46.7169C79.5013 23.388 91.0549 12.5949 107.538 30.9977C124.02 49.4006 85.894 93.7209 85.894 93.7209H25.5317L29.5456 75.4773Z" fill="white"/>
<path opacity="0.03" fill-rule="evenodd" clip-rule="evenodd" d="M19.7347 58.198C19.7347 58.198 34.4735 77.3021 51.2721 77.0476C68.0706 76.7932 66.9734 48.2336 87.6703 58.3164C108.367 68.3992 88.0638 97.7208 88.0638 97.7208L33.802 115.054L19.7347 58.198Z" fill="white"/>
</g>
<path d="M36.1805 34.9294L34.6732 32.2054L33.9469 32.203L33.9367 34.9206L32.3589 34.9148L32.3846 28.1375L33.9623 28.1437L33.9519 30.7973L34.4873 30.7992L35.9872 28.1512L37.9422 28.1588L35.8309 31.2183L38.0982 34.9361L36.1805 34.9294Z" fill="#F5F6FC"/>
<path d="M66.2899 80.2144L67.793 82.9407L68.5193 82.9442L68.5336 80.2267L70.1115 80.2349L70.0755 87.012L68.4978 87.0035L68.5122 84.3499L67.9768 84.3472L66.4729 86.993L64.518 86.9824L66.6339 83.9261L64.3722 80.2048L66.2899 80.2144Z" fill="#F5F6FC"/>
<path d="M44.1529 51.9419C49.4485 48.0063 51.2733 44.8557 52.5126 42.4173C52.5127 42.4173 52.5127 42.4172 52.5127 42.4172L52.5127 42.4173C53.7519 44.8557 55.5768 48.0063 60.8724 51.9419C69.9015 58.6525 61.4025 68.0193 53.93 62.8639C54.4169 66.0629 56.0785 68.395 57.7659 69.3992L57.7659 70.4318L52.5127 70.4318L47.2595 70.4318L47.2595 69.3993C48.947 68.3951 50.6085 66.063 51.0954 62.8639C43.623 68.0195 35.1239 58.6525 44.1529 51.9419Z" fill="#F5F6FC"/>
</g>
<defs>
<filter id="filter0_d" x="13.25" y="9.40796" width="77.5676" height="96.5947" filterUnits="userSpaceOnUse" color-interpolation-filters="sRGB">
<feFlood flood-opacity="0" result="BackgroundImageFix"/>
<feColorMatrix in="SourceAlpha" type="matrix" values="0 0 0 0 0 0 0 0 0 0 0 0 0 0 0 0 0 0 127 0"/>
<feOffset/>
<feGaussianBlur stdDeviation="7.5"/>
<feColorMatrix type="matrix" values="0 0 0 0 0.517647 0 0 0 0 0.454902 0 0 0 0 0.870588 0 0 0 0.7 0"/>
<feBlend mode="normal" in2="BackgroundImageFix" result="effect1_dropShadow"/>
<feBlend mode="normal" in="SourceGraphic" in2="effect1_dropShadow" result="shape"/>
</filter>
<linearGradient id="paint0_linear" x1="52.0338" y1="24.408" x2="52.0338" y2="91.0026" gradientUnits="userSpaceOnUse">
<stop stop-color="#A177FA"/>
<stop offset="0.286458" stop-color="#8374DD"/>
<stop offset="0.619792" stop-color="#7D6DE3"/>
<stop offset="1" stop-color="#6166D4"/>
</linearGradient>
<linearGradient id="paint1_linear" x1="85.2795" y1="28.4099" x2="85.2795" y2="68.4307" gradientUnits="userSpaceOnUse">
<stop stop-color="#7073D9"/>
<stop offset="1" stop-color="#9A76F3"/>
</linearGradient>
<linearGradient id="paint2_linear" x1="52.0338" y1="24.408" x2="52.0338" y2="91.0026" gradientUnits="userSpaceOnUse">
<stop stop-color="#A177FA"/>
<stop offset="0.286458" stop-color="#8374DD"/>
<stop offset="0.619792" stop-color="#7D6DE3"/>
<stop offset="1" stop-color="#6166D4"/>
</linearGradient>
</defs>
</svg>
